<svg width="1080" height="1192" viewBox="0 0 1080 1192" fill="none" xmlns="http://www.w3.org/2000/svg">
<path d="M0 40.0001C0 17.9087 17.9086 0 40 0H1080V1191.31H40C17.9086 1191.31 0 1173.4 0 1151.31V40.0001Z" fill="url(#paint0_linear_1786_2529)"/>
<path d="M504.296 408.032C504.905 408.105 505.476 407.776 506.009 407.593C507.075 407.263 508.179 407.007 509.245 406.714C509.931 406.495 510.654 406.385 511.339 406.202C512.139 405.982 513.014 405.909 513.814 405.653C514.537 405.397 515.337 405.25 516.136 405.214C517.355 405.141 518.497 404.738 519.715 404.775C520.134 404.775 520.362 404.592 520.438 404.226C520.743 402.542 521.542 401.078 522.532 399.76C524.207 397.528 526.377 395.881 529.081 394.929C531.136 394.197 533.192 394.014 535.362 394.124C536.847 394.197 538.218 394.563 539.588 395.039C540.768 395.442 541.796 396.137 542.748 396.906C543.89 397.857 545.109 398.772 545.794 400.126C546.365 401.224 547.05 402.249 547.241 403.494C547.355 404.152 547.697 404.592 548.497 404.701C549.411 404.811 550.362 404.958 551.314 405.104C553.408 405.433 555.464 405.909 557.52 406.348C559.347 406.751 561.137 407.263 562.926 407.812C565.172 408.508 567.38 409.24 569.588 410.008C570.883 410.448 572.139 410.997 573.396 411.546C575.299 412.314 577.203 413.083 579.03 413.961C580.629 414.73 582.228 415.462 583.789 416.34C584.969 416.999 586.226 417.658 587.406 418.317C587.825 418.536 588.167 418.939 588.662 419.049C588.738 419.158 588.891 419.158 589.005 419.122C589.081 419.561 589.5 419.524 589.766 419.634C589.766 419.89 589.957 419.854 590.147 419.854C590.414 420.256 590.832 420.513 591.327 420.586C591.403 420.988 591.708 420.988 592.051 420.988C592.051 421.318 592.279 421.318 592.507 421.318C592.546 421.464 592.622 421.574 592.774 421.647C594.068 422.489 595.363 423.367 596.657 424.246C597.228 424.648 597.723 425.161 598.409 425.453L598.447 425.527L598.523 425.49C598.561 425.673 598.713 425.746 598.865 425.746H598.903C599.018 426.149 599.246 426.478 599.741 426.478C600.122 426.991 600.579 427.466 601.226 427.686C601.226 427.906 601.378 427.942 601.568 427.906C601.607 428.162 601.797 428.308 602.063 428.308C602.025 428.564 602.178 428.638 602.406 428.601C603.129 429.553 604.081 430.211 605.109 430.834C605.338 431.383 605.871 431.639 606.289 432.041C606.822 432.517 607.089 433.213 607.66 433.542C608.117 433.798 608.459 434.164 608.84 434.457C608.84 434.567 608.878 434.603 608.992 434.567C608.954 434.823 609.145 434.933 609.297 435.116C610.211 436.104 611.391 436.836 612.267 437.861C612.419 438.007 612.495 438.227 612.761 438.227C612.8 438.629 613.066 438.812 613.409 438.922C613.409 439.142 613.561 439.252 613.675 439.398C614.475 440.35 615.274 441.265 616.074 442.18C616.492 442.655 616.759 443.204 617.292 443.57L617.33 443.607C617.33 443.863 617.406 444.01 617.673 444.01C617.673 444.229 617.711 444.412 618.015 444.376C618.053 444.485 618.091 444.595 618.168 444.705C618.244 445.108 618.434 445.364 618.853 445.51L618.929 445.474C618.929 445.474 618.891 445.51 618.853 445.51C619.424 446.645 620.147 447.633 621.061 448.511C621.023 448.694 621.137 448.877 621.213 449.024C622.165 450.195 622.85 451.549 623.726 452.793C624.107 453.306 624.221 454.001 624.868 454.367L624.906 454.404C624.982 454.953 625.135 455.502 625.706 455.795C625.744 456.38 626.01 456.856 626.505 457.222C626.581 457.808 626.81 458.32 627.305 458.686C627.533 459.784 628.218 460.699 628.751 461.651C628.751 461.687 628.789 461.687 628.828 461.687L628.789 461.724L628.828 461.76C628.866 462.309 629.094 462.822 629.513 463.188C629.475 463.407 629.551 463.627 629.665 463.81C630.008 464.688 630.35 465.53 630.807 466.372C630.769 466.665 631.074 466.811 631.15 467.067C631.264 467.507 631.569 468.239 631.797 468.531C631.797 468.678 631.797 468.788 631.911 468.897C631.873 469.154 631.873 469.41 631.987 469.593C632.33 470.215 632.482 470.874 632.711 471.533C633.13 472.777 633.586 474.021 633.967 475.302C634.31 476.474 634.729 477.645 634.995 478.852C635.109 479.401 635.262 479.987 635.452 480.499C635.909 481.707 636.137 482.952 636.404 484.159C636.632 485.111 636.784 486.136 636.975 487.087C637.241 488.588 637.546 490.125 637.66 491.662C637.698 491.919 637.66 492.175 637.965 492.394C638.688 492.907 639.373 493.529 640.287 493.785C640.287 493.968 640.401 494.041 640.554 494.115C642.495 495.322 643.98 496.933 645.274 498.763C646.797 500.849 647.711 503.155 647.977 505.68C648.092 506.595 648.358 507.474 648.244 508.389C648.016 510.218 647.863 512.048 647.254 513.842C646.607 515.782 645.541 517.465 644.246 519.039C642.724 520.906 640.782 522.296 638.422 523.138C637.584 523.431 637.127 523.98 637.317 524.858C636.823 526.945 636.48 529.067 635.871 531.154C635.528 532.325 635.224 533.496 634.957 534.667C634.614 536.021 634.196 537.375 633.701 538.693C633.358 539.645 633.053 540.56 632.749 541.511C632.368 542.719 631.911 543.89 631.416 545.061C630.617 546.965 629.779 548.831 628.942 550.698C627.609 553.626 626.277 556.517 624.525 559.226C624.411 559.409 624.297 559.592 624.335 559.811C623.498 560.433 623.117 561.385 622.546 562.19C622.355 562.483 621.899 562.703 622.089 563.178C621.556 563.508 620.718 564.752 620.566 565.338L620.528 565.374C620.071 565.63 619.69 565.923 619.5 566.399C619.386 566.692 619.196 566.911 619.005 567.131C617.635 568.705 616.34 570.352 614.893 571.889C613.599 573.28 612.343 574.78 611.048 576.171C610.325 576.94 609.525 577.635 608.802 578.404C606.86 580.38 604.69 582.1 602.558 583.894C601.035 585.175 599.398 586.383 597.761 587.554C597.457 587.773 597.038 587.993 596.886 588.396C596.657 588.322 596.543 588.505 596.391 588.615C595.439 589.274 594.525 590.006 593.573 590.665C591.251 592.275 588.815 593.666 586.378 595.057C584.36 596.228 582.266 597.289 580.134 598.241C578.383 599.009 576.67 599.815 574.88 600.547C573.091 601.279 571.264 601.974 569.436 602.633C568.522 602.962 567.609 603.328 566.619 603.548C566.01 603.694 565.439 603.95 564.83 604.097C563.802 604.39 562.736 604.682 561.708 604.975C561.06 605.158 560.375 605.341 559.69 605.488C558.776 605.671 557.901 605.963 556.987 606.146C556.187 606.293 555.35 606.329 554.588 606.586C553.598 606.915 552.494 606.659 551.581 607.171C550.286 607.061 549.106 607.574 547.812 607.574C547.545 607.574 547.203 607.537 547.126 607.903C547.012 607.83 546.898 607.83 546.746 607.903C545.984 607.757 545.223 607.903 544.499 607.94C543.319 608.013 542.177 608.342 540.959 608.306C540.197 608.269 539.436 608.342 538.675 608.416C538.446 608.416 538.142 608.379 537.989 608.672C537.875 608.599 537.761 608.599 537.609 608.672C537.114 608.306 536.923 608.306 536.428 608.672C536.162 608.599 535.933 608.599 535.667 608.672C535.553 608.489 535.4 608.452 535.286 608.672C535.172 608.599 535.058 608.599 534.944 608.672C534.525 608.269 534.411 608.269 534.144 608.672C533.763 608.672 533.421 608.672 533.04 608.672C532.545 608.269 531.576 608.672 531.576 608.672L531.517 608.672C531.517 608.672 530.832 608.379 530.489 608.342C529.575 608.306 528.662 608.342 527.748 608.306C526.91 608.269 525.997 608.379 525.197 608.159C524.017 607.867 522.837 607.903 521.657 607.94C521.542 607.867 521.39 607.867 521.276 607.903C521.238 607.647 521.009 607.574 520.781 607.537C519.296 607.354 517.811 607.098 516.327 606.842C514.537 606.549 512.748 606.183 510.997 605.78C509.436 605.414 507.913 605.048 506.352 604.682C504.829 604.316 503.344 603.914 501.898 603.401C500.222 602.816 498.471 602.34 496.834 601.645C495.083 600.949 493.293 600.29 491.58 599.485C489.791 598.643 488.002 597.765 486.212 596.887C484.651 596.081 483.128 595.24 481.644 594.398C479.968 593.446 478.331 592.422 476.694 591.397C475.095 590.409 473.496 589.384 472.012 588.249C471.25 587.664 470.489 587.041 469.689 586.456C467.633 584.919 465.73 583.198 463.712 581.625C461.732 580.051 459.943 578.257 458.154 576.501C456.669 575.037 455.184 573.609 453.813 571.999C452.1 569.986 450.539 567.863 448.978 565.74C448.864 565.594 448.826 565.411 448.56 565.448L448.521 565.411C448.56 565.118 448.445 564.899 448.217 564.679C447.836 564.24 447.532 563.764 447.189 563.288C445.628 561.165 444.296 558.86 442.925 556.627C441.098 553.626 439.575 550.478 438.166 547.294C437.595 545.976 437.1 544.622 436.529 543.268C435.691 541.292 434.93 539.242 434.359 537.156C434.283 536.936 434.169 536.79 433.978 536.644C434.016 536.497 433.978 536.387 433.94 536.277C433.978 535.546 433.636 534.887 433.407 534.191C433.065 533.02 432.722 531.849 432.493 530.678C432.341 529.836 432.113 529.031 431.922 528.226C431.732 527.201 431.504 526.139 431.313 525.115C431.009 523.504 430.666 521.894 430.476 520.283C430.438 520.027 430.285 519.844 430.133 519.625C430.209 519.295 430.171 519.002 430.095 518.71C430.247 517.868 429.867 517.099 429.828 516.294C429.676 513.732 429.638 511.207 429.524 508.645C429.448 506.193 429.41 503.74 429.676 501.288C429.867 499.678 429.676 497.994 430.057 496.384C430.171 495.981 430.171 495.542 430.057 495.103C430.133 494.847 430.171 494.59 430.095 494.371C430.361 493.858 430.438 493.346 430.438 492.76C430.476 491.882 430.438 491.004 430.78 490.162C430.894 489.906 430.894 489.576 430.818 489.247C430.894 489.064 430.894 488.881 430.856 488.661C430.971 488.515 431.123 488.368 431.161 488.222C431.199 487.417 431.466 486.648 431.618 485.843C431.884 484.379 432.265 482.988 432.608 481.561C432.798 480.719 433.141 479.877 433.103 478.999C433.179 478.889 433.179 478.779 433.141 478.633C433.445 478.523 433.445 478.267 433.483 478.011C433.521 477.755 433.521 477.535 433.636 477.279C434.054 476.254 434.283 475.193 434.587 474.168C435.082 472.448 435.691 470.764 436.301 469.117C436.948 467.433 437.671 465.75 438.394 464.103C439.422 461.87 440.488 459.638 441.631 457.442C442.049 456.636 442.544 455.868 443.001 455.099C443.458 454.331 443.953 453.562 444.448 452.793C444.943 452.025 445.438 451.22 446.009 450.488C446.542 449.792 446.922 448.987 447.532 448.328C448.065 447.743 448.445 447.011 448.94 446.425C449.435 445.84 449.74 445.181 450.273 444.595C450.806 444.046 451.301 443.351 451.758 442.692C452.252 441.997 453.014 441.448 453.318 440.606C453.585 440.569 453.699 440.459 453.661 440.203C454.08 440.093 454.27 439.801 454.423 439.398C454.917 439.178 455.184 438.776 455.412 438.373C455.603 438.263 455.831 438.227 455.831 437.971C456.174 437.605 456.516 437.202 456.859 436.836C457.088 436.653 457.43 436.507 457.468 436.141C457.735 436.141 457.811 435.994 457.849 435.775C458.268 435.738 458.344 435.372 458.496 435.116C458.687 435.043 458.953 435.006 458.915 434.713L458.953 434.677C459.334 434.677 459.41 434.347 459.562 434.091C460.209 433.615 460.819 433.176 461.237 432.481C461.504 432.481 461.618 432.334 461.694 432.115C462.341 431.749 462.836 431.236 463.255 430.687C463.522 430.724 463.598 430.504 463.636 430.321C464.055 430.248 464.321 429.992 464.473 429.626C465.083 429.406 465.539 429.004 465.844 428.491C466.11 428.528 466.187 428.345 466.225 428.125C466.758 427.906 467.176 427.54 467.595 427.174C467.9 426.917 468.357 426.808 468.471 426.332C468.699 426.332 468.89 426.295 468.852 426.002C469.118 425.966 469.347 425.929 469.385 425.6H469.423C469.88 425.49 470.222 425.234 470.451 424.831C470.717 424.868 470.869 424.721 470.946 424.502C471.402 424.392 471.783 424.172 471.973 423.733C472.164 423.733 472.43 423.77 472.316 423.44C472.468 423.514 472.583 423.44 472.659 423.367C473.078 423.294 473.382 423.074 473.534 422.672C473.801 422.672 473.953 422.562 473.991 422.306C474.22 422.269 474.486 422.269 474.524 421.94L474.562 421.903C475.057 421.83 475.362 421.537 475.666 421.208C475.857 421.171 476.161 421.245 476.123 420.915C476.732 420.659 477.303 420.403 477.646 419.817C478.408 419.707 478.979 419.232 479.55 418.756C479.892 418.683 480.235 418.646 480.311 418.28C480.349 418.317 480.387 418.317 480.425 418.243C480.654 418.243 480.92 418.243 480.958 417.951L480.996 417.914C481.225 417.914 481.491 417.951 481.567 417.621C481.682 417.694 481.72 417.621 481.758 417.548C482.177 417.402 482.595 417.255 482.862 416.853C482.976 416.853 483.128 416.853 483.243 416.779C483.89 416.413 484.537 416.047 485.222 415.681C485.451 415.718 485.679 415.681 485.679 415.389C486.022 415.352 486.364 415.425 486.517 414.986C486.631 415.023 486.707 414.986 486.745 414.913C487.012 414.949 487.202 414.876 487.24 414.62C487.354 414.657 487.43 414.657 487.507 414.583C487.735 414.62 487.925 414.547 487.963 414.291C488.23 414.254 488.611 414.4 488.725 413.998C488.991 413.888 489.372 413.998 489.524 413.632H489.601L489.639 413.559C489.753 413.522 489.905 413.485 490.019 413.449C490.248 413.449 490.514 413.485 490.552 413.156C490.628 413.119 490.705 413.119 490.781 413.083C490.933 413.119 491.123 413.083 491.238 412.973C491.39 412.9 491.58 412.79 491.733 412.717C491.999 412.753 492.189 412.644 492.227 412.387C492.342 412.424 492.418 412.424 492.494 412.351C493.065 412.278 493.56 412.095 493.979 411.692C494.436 411.692 494.778 411.436 495.159 411.253C495.387 411.253 495.654 411.289 495.692 410.96C495.92 410.997 496.111 410.923 496.301 410.85C496.568 410.887 496.758 410.814 496.796 410.557C496.948 410.631 497.101 410.557 497.253 410.484C497.367 410.484 497.481 410.484 497.481 410.338C497.634 410.374 497.71 410.265 497.786 410.155C498.052 410.118 498.128 410.045 498.509 409.862C498.585 409.825 498.661 409.825 498.738 409.789C499.004 409.752 499.347 409.899 499.461 409.496C499.613 409.569 499.727 409.459 499.88 409.423C500.184 409.423 500.451 409.459 500.565 409.093C500.679 409.13 500.755 409.13 500.832 409.057C501.098 409.057 501.441 409.167 501.555 408.764C501.707 408.727 501.821 408.727 501.974 408.691C502.24 408.691 502.583 408.801 502.697 408.398C502.849 408.361 502.964 408.361 503.116 408.325C503.382 408.325 503.725 408.435 503.839 408.032C503.915 408.105 504.106 408.069 504.296 408.032ZM493.75 579.355C493.446 578.953 492.989 578.806 492.532 578.66C492.494 578.587 492.418 578.587 492.38 578.623C492.342 578.55 492.342 578.404 492.265 578.367C490.971 577.562 489.715 576.793 488.382 576.025C486.25 574.78 484.118 573.463 482.177 571.962C481.529 571.45 480.958 570.864 480.159 570.571C480.159 570.425 480.083 570.315 479.93 570.205C479.093 569.51 478.293 568.815 477.494 568.119C475.743 566.619 474.144 564.935 472.506 563.361L472.468 563.325C471.669 562.373 470.869 561.458 469.994 560.58C469.88 560.433 469.803 560.287 469.575 560.324C469.537 560.214 469.575 560.067 469.499 559.994C468.89 559.299 468.319 558.64 467.671 557.981C467.291 557.579 466.872 557.615 466.567 558.054C466.377 558.347 466.11 558.603 465.844 558.896C464.778 559.994 463.484 560.836 462.379 561.897C462.189 562.08 461.808 562.19 461.846 562.556C461.275 562.739 460.895 563.178 460.4 563.508C460.057 563.727 459.791 563.984 459.334 564.057C458.154 564.276 456.669 562.922 456.897 561.714C457.011 561.129 457.354 560.69 457.773 560.36C458.648 559.592 459.562 558.86 460.476 558.164C461.885 557.103 463.293 555.968 464.664 554.834C464.892 554.651 465.006 554.431 464.778 554.138C464.626 553.955 464.55 553.699 464.397 553.516C463.445 552.345 462.57 551.1 461.846 549.783C460.895 548.136 460.095 546.416 459.105 544.805C457.925 542.902 457.011 540.926 456.06 538.913C455.07 536.9 454.308 534.814 453.509 532.727C453.166 531.849 452.9 530.971 452.633 530.056C452.443 529.36 452.176 528.701 451.948 528.006C451.643 527.018 451.377 526.03 451.186 525.041C451.034 524.383 450.958 523.724 450.768 523.102C450.463 522.113 450.311 521.089 450.159 520.1C450.044 519.551 450.006 518.966 449.892 518.38C449.74 517.648 449.664 517.575 448.94 517.795C448.065 518.051 447.189 517.978 446.313 517.941C445.4 517.904 444.524 517.538 443.877 517.063C442.735 516.257 442.125 515.05 441.783 513.732C441.516 512.597 441.364 511.463 441.402 510.292C441.44 509.596 441.364 509.596 440.641 509.596C438.737 509.596 436.834 509.596 434.93 509.596C434.13 509.596 434.13 509.596 434.13 510.365C434.092 512.634 434.587 514.867 434.587 517.099C434.587 517.172 434.625 517.209 434.625 517.282C434.968 518.71 434.93 520.174 435.196 521.638C435.387 522.626 435.691 523.577 435.729 524.602C435.729 524.749 435.844 524.895 435.996 524.968C435.92 525.59 435.958 526.176 436.148 526.762C436.453 527.603 436.453 528.482 436.757 529.324C437.024 530.165 437.176 531.044 437.367 531.886C437.595 533.02 437.976 534.118 438.28 535.216C438.623 536.461 439.156 537.668 439.537 538.913C439.537 538.986 439.689 538.986 439.765 539.022C439.689 539.279 439.765 539.498 439.841 539.718C440.488 541.365 441.098 543.048 441.821 544.659C442.773 546.855 443.763 549.014 444.829 551.137C445.78 553.04 446.846 554.87 447.912 556.7C449.664 559.738 451.719 562.556 453.928 565.301C455.07 566.728 456.212 568.192 457.392 569.583C458.154 570.498 459.067 571.303 459.905 572.145C462.189 574.524 464.55 576.867 467.062 578.989C470.793 582.21 474.791 585.138 478.941 587.847C482.405 590.152 485.946 592.348 489.791 593.995C490.514 594.325 491.199 594.837 492.037 594.874C492.418 595.313 492.913 595.532 493.484 595.569C493.75 595.715 494.017 595.899 494.321 596.008C496.796 596.923 499.194 597.911 501.745 598.68C503.078 599.083 504.41 599.595 505.743 600.034C507.608 600.656 509.55 601.096 511.453 601.571C512.101 601.718 512.748 601.791 513.395 601.974C514.347 602.267 515.375 602.377 516.365 602.56C517.355 602.743 518.382 602.852 519.334 603.072C520.705 603.365 522.075 603.475 523.446 603.621C525.654 603.841 527.824 604.06 530.07 604.097C534.715 604.17 539.322 604.097 543.928 603.658C544.157 603.621 544.385 603.621 544.576 603.548C545.261 603.365 545.946 603.328 546.631 603.292C548.078 603.255 549.525 602.962 550.972 602.743C551.733 602.633 552.494 602.596 553.218 602.413C554.055 602.194 554.855 602.011 555.692 601.828C556.987 601.535 558.281 601.315 559.576 600.949C561.403 600.437 563.192 599.888 564.944 599.266C567.495 598.424 570.007 597.509 572.52 596.521C576.403 595.02 580.058 593.08 583.675 591.141C586.111 589.823 588.586 588.505 590.87 586.858C593.65 584.882 596.391 582.832 599.094 580.746C599.627 580.344 600.35 580.124 600.541 579.392C601.15 579.209 601.568 578.77 602.025 578.367C603.929 576.757 605.604 574.963 607.393 573.243C609.03 571.669 610.477 569.949 611.962 568.229C612.723 567.351 613.561 566.472 614.17 565.484C614.208 565.411 614.208 565.374 614.246 565.301C614.437 565.228 614.551 565.118 614.665 564.972C615.198 564.167 615.769 563.398 616.34 562.593C617.749 560.616 619.119 558.64 620.338 556.554C621.708 554.248 622.888 551.869 624.031 549.453C624.373 548.721 625.211 547.038 625.211 547.038C625.82 545.574 626.467 544.11 627.114 542.646C627.381 541.987 627.723 541.328 627.914 540.633C628.256 539.279 628.751 537.998 629.208 536.68C629.741 535.216 630.084 533.716 630.541 532.252C630.731 531.666 631.302 529.141 631.302 529.141C631.493 527.75 631.949 526.432 632.216 525.078C632.482 523.541 632.863 522.004 632.939 520.393C632.939 520.283 632.977 520.137 632.977 520.027C633.32 518.014 633.663 516.001 633.701 513.988C633.701 513.549 633.625 513.11 633.777 512.707C634.043 511.975 634.005 511.207 634.005 510.438C634.005 509.56 633.967 509.56 633.13 509.56C631.264 509.523 629.399 509.523 627.533 509.523C626.924 509.523 626.886 509.56 626.886 510.145C626.886 510.292 626.886 510.438 626.924 510.584C626.962 512.268 626.581 513.878 625.744 515.342C625.249 516.221 624.564 517.063 623.65 517.429C622.317 517.978 620.871 518.124 619.424 517.648C618.967 517.502 618.548 517.648 618.548 518.051C618.548 518.783 618.129 519.405 618.168 520.1C618.168 521.015 617.863 521.857 617.673 522.662C617.368 523.907 617.102 525.188 616.721 526.432C616.34 527.713 615.998 528.994 615.617 530.239C615.388 530.934 614.437 533.642 614.437 533.642C613.904 535.216 613.218 536.717 612.609 538.254C612.495 538.29 611.81 539.828 611.772 539.974C611.619 540.706 611.162 541.365 610.82 542.024C609.602 544.366 608.307 546.672 606.86 548.941C605.909 550.405 604.957 551.869 603.967 553.333C603.7 553.699 603.662 554.138 603.396 554.468C603.32 554.577 603.32 554.724 603.434 554.797C604.005 555.017 604.272 555.639 604.805 555.858C605.299 556.078 605.718 556.407 606.099 556.7C607.47 557.762 608.726 558.933 610.134 559.921C610.591 560.25 611.01 560.616 611.277 561.092C611.657 561.788 611.505 563.069 610.439 563.691C609.678 564.167 608.383 564.093 607.736 563.435C607.317 563.032 606.937 562.629 606.365 562.446C606.365 562.337 606.365 562.19 606.251 562.117C604.728 560.873 603.396 559.409 601.911 558.091C600.845 557.139 600.845 557.139 600.046 558.311C599.208 559.262 597.876 560.799 597.076 561.751C597.076 561.751 595.477 563.471 595.287 563.691C591.594 567.607 587.368 570.901 583.028 574.085C580.172 576.208 577.012 577.891 573.891 579.575C571.987 580.6 569.969 581.442 567.913 582.247C566.276 582.906 564.601 583.491 562.964 584.15C561.365 584.809 559.69 585.321 558.015 585.797C556.378 586.236 554.741 586.639 553.104 587.041C550.934 587.59 548.725 587.993 546.517 588.286C545.147 588.505 543.7 588.542 542.291 588.652C540.464 588.798 538.636 588.725 536.771 588.835C534.715 588.981 532.659 589.054 530.603 588.908C529.271 588.798 527.938 588.798 526.644 588.725C525.083 588.652 523.598 588.322 522.037 588.213C521.314 588.139 520.514 588.066 519.791 587.847C518.725 587.517 517.621 587.517 516.555 587.261C515.641 587.041 514.728 586.822 513.814 586.639C512.748 586.419 511.72 586.053 510.654 585.834C509.588 585.577 508.56 585.211 507.494 584.955C506.162 584.589 504.905 584.077 503.649 583.564C502.316 582.979 500.908 582.576 499.613 581.917C498.661 581.442 497.71 580.893 496.606 580.71C496.568 580.27 496.111 580.307 495.844 580.197C495.235 579.868 494.702 579.429 493.979 579.319L493.941 579.246L493.75 579.355ZM638.46 514.098C638.383 515.05 638.117 517.136 637.774 518.051C637.698 518.234 637.622 518.527 637.85 518.636C638.079 518.746 638.307 518.636 638.498 518.417C638.916 517.978 639.373 517.612 639.792 517.172C640.82 516.074 641.696 514.867 642.229 513.476C642.305 513.366 642.305 513.22 642.305 513.11C642.8 512.524 642.914 511.829 643.028 511.133C643.104 510.731 643.104 510.365 643.18 509.962C643.485 508.572 643.523 507.181 643.028 505.827C643.028 505.534 642.99 505.204 642.99 504.912C642.838 503.997 642.457 503.155 642.076 502.313C641.505 501.105 640.668 500.08 639.906 498.982C639.488 498.397 639.069 497.738 638.193 497.592C638.079 498.25 638.383 500.52 638.383 500.52C638.536 503.96 638.46 507.4 638.46 510.841C638.46 511.902 638.46 513 638.46 514.098ZM533.954 419.451C531.593 419.451 529.271 419.451 526.91 419.451C526.301 419.451 525.692 419.451 525.121 419.451C524.702 419.451 524.36 419.232 524.322 418.902C524.245 418.243 524.055 417.548 524.474 416.962C524.74 416.56 524.702 416.377 524.322 416.084C523.522 415.389 522.723 414.657 522.113 413.778C521.276 412.607 520.591 411.363 520.286 409.972C520.096 409.203 519.981 409.13 519.182 409.24C519.03 409.24 518.877 409.313 518.725 409.313C517.773 409.533 516.822 409.716 515.87 409.935C514.613 410.228 513.357 410.484 512.101 410.777C510.844 411.106 509.55 411.436 508.294 411.802C507.266 412.131 506.2 412.387 505.172 412.753C504.334 413.01 503.535 413.302 502.697 413.595C501.174 414.108 499.651 414.62 498.128 415.206C496.796 415.718 495.463 416.377 494.131 416.889C491.999 417.694 489.905 418.683 487.849 419.671C485.908 420.622 484.004 421.647 482.139 422.709C479.474 424.282 476.885 425.893 474.41 427.723C472.468 429.15 470.679 430.76 468.814 432.261C465.882 434.677 463.103 437.239 460.438 439.947C459.143 441.228 457.925 442.582 456.821 444.01C455.717 445.4 454.461 446.681 453.357 448.109C452.519 449.17 451.834 450.341 450.92 451.366C450.577 451.732 450.501 452.281 449.93 452.501C449.626 453.891 448.521 454.843 447.874 456.014C446.656 458.174 445.285 460.223 444.219 462.419C443.572 463.773 443.001 465.164 442.392 466.555C441.897 467.726 441.326 468.897 440.907 470.142C440.412 471.679 439.727 473.18 439.232 474.717C438.775 476.071 438.242 477.389 437.9 478.743C437.405 480.536 436.948 482.293 436.605 484.123C436.491 484.818 436.415 485.514 436.186 486.172C435.844 487.307 435.691 488.478 435.539 489.649C435.387 490.747 435.235 491.882 435.044 492.98C434.778 494.298 434.892 495.652 434.473 496.933C434.511 499.568 434.092 502.167 434.092 504.765C434.092 505.424 434.016 505.497 434.816 505.497C436.491 505.497 438.166 505.497 439.841 505.497C441.25 505.497 441.326 505.497 441.288 504.143C441.288 502.789 441.669 501.508 442.24 500.3C443.039 498.543 444.6 497.775 446.466 497.445C446.694 497.409 447.037 497.372 447.227 497.482C447.722 497.738 448.255 497.701 448.788 497.811C449.473 497.958 449.664 497.848 449.74 497.226C449.892 496.201 450.044 495.176 450.082 494.151C450.12 493.126 450.311 492.102 450.577 491.077C450.882 489.796 451.225 488.478 451.491 487.197C451.758 486.026 452.062 484.818 452.443 483.684C452.976 481.963 453.585 480.243 454.194 478.56C455.108 475.998 456.212 473.546 457.392 471.093C458.648 468.531 460.133 466.079 461.694 463.664C462.494 462.419 463.407 461.248 464.321 460.077C464.702 459.564 464.74 459.272 464.359 459.089C463.522 458.649 462.912 457.954 462.189 457.442C460.552 456.307 459.143 454.953 457.621 453.745C456.897 453.159 456.631 451.695 457.049 450.89C457.697 449.609 459.714 449.463 460.628 450.341C462.303 451.952 464.093 453.452 465.844 454.953C466.263 455.319 466.605 456.014 467.138 455.978C467.671 455.904 468.014 455.246 468.357 454.806C470.108 452.647 472.088 450.707 474.067 448.731C477.151 445.693 480.463 442.948 483.89 440.313C485.641 438.959 487.583 437.788 489.486 436.616C491.314 435.518 493.141 434.347 495.121 433.432C498.052 432.041 500.984 430.687 504.068 429.589C506.466 428.711 508.903 427.906 511.377 427.174C511.758 427.064 512.101 426.844 512.519 426.771C513.395 426.625 514.271 426.332 515.184 426.185C515.908 426.039 516.631 425.819 517.393 425.746C518.344 425.6 519.334 425.417 520.248 425.234C521.504 424.978 522.761 424.831 523.979 424.685C526.301 424.392 528.624 424.172 530.984 424.209C532.888 424.246 534.791 424.209 536.695 424.209C539.246 424.172 541.758 424.502 544.271 424.685C544.347 424.685 544.461 424.685 544.538 424.721C545.87 425.124 547.279 425.124 548.649 425.344C549.639 425.49 550.667 425.636 551.619 425.856C553.332 426.222 555.045 426.625 556.72 427.137C558.091 427.54 559.5 427.942 560.832 428.418C562.888 429.15 564.868 429.955 566.885 430.834C570.464 432.407 573.929 434.237 577.317 436.141C578.992 437.092 580.591 438.154 582.19 439.215C583.523 440.093 584.817 441.082 586.111 442.033C589.919 444.815 593.421 447.926 596.657 451.293C597.876 452.574 598.98 453.928 600.084 455.282C600.807 456.197 600.997 456.197 601.873 455.429C602.939 454.514 603.967 453.525 605.033 452.61C606.023 451.805 606.937 450.89 608.041 450.195C608.536 449.902 609.868 449.829 610.363 450.122C611.581 450.854 611.81 452.464 610.782 453.416C609.716 454.404 608.574 455.246 607.393 456.087C606.137 456.966 605.033 458.027 603.853 458.979C603.472 459.272 603.51 459.528 603.777 459.894C604.348 460.662 604.919 461.468 605.414 462.273C607.546 465.677 609.678 469.08 611.353 472.704C612.076 474.241 612.838 475.742 613.371 477.352C613.942 478.962 614.551 480.573 615.046 482.22C615.579 483.976 616.226 485.697 616.569 487.527C616.683 488.185 616.759 488.917 616.987 489.576C617.292 490.418 617.406 491.296 617.558 492.138C617.749 493.163 617.977 494.151 618.091 495.176C618.168 495.908 618.358 496.603 618.396 497.335C618.434 497.958 618.663 498.067 619.31 497.958C619.652 497.884 619.995 497.884 620.338 497.811C622.241 497.409 623.688 498.214 624.868 499.495C626.163 500.922 626.543 502.679 626.734 504.472C626.772 504.729 626.734 504.948 626.734 505.204C626.734 505.534 626.886 505.644 627.19 505.607C627.533 505.57 627.876 505.57 628.218 505.57C629.665 505.57 631.15 505.607 632.597 505.644C633.891 505.68 633.891 505.644 633.815 504.472C633.739 502.752 633.663 500.995 633.586 499.275C633.548 498.507 633.663 497.738 633.472 497.006C633.092 495.505 633.168 493.932 632.863 492.394C632.673 491.406 632.52 490.345 632.292 489.357C631.987 487.893 631.721 486.429 631.34 485.001C630.845 483.061 630.388 481.122 629.817 479.218C629.665 478.706 629.437 478.194 629.361 477.645C629.17 476.547 628.751 475.485 628.447 474.424C628.104 473.253 627.571 472.118 627.114 470.947C626.277 468.678 625.287 466.482 624.297 464.286C623.498 462.492 622.508 460.736 621.556 459.015C620.452 457.039 619.272 455.136 618.091 453.196C617.064 451.476 615.845 449.829 614.627 448.182C612.99 445.949 611.201 443.863 609.335 441.85C608.536 441.008 607.736 440.203 606.937 439.361C605.604 437.934 604.157 436.616 602.711 435.299C600.617 433.396 598.409 431.566 596.162 429.845C594.868 428.857 593.573 427.869 592.203 426.954C589.271 425.014 586.302 423.184 583.256 421.428C580.896 420.037 578.383 418.866 575.87 417.731C573.929 416.853 571.949 416.047 569.969 415.242C568.522 414.657 567.038 414.181 565.591 413.668C564.258 413.193 562.888 412.79 561.517 412.351C560.489 412.021 559.5 411.692 558.472 411.472C557.253 411.216 556.073 410.814 554.817 410.557C553.903 410.374 552.951 410.191 552.038 410.008C550.819 409.752 549.563 409.606 548.307 409.386C548.078 409.35 547.964 409.35 547.85 409.533C547.697 409.752 547.621 409.972 547.583 410.191C547.469 411.436 546.86 412.497 546.137 413.449C545.413 414.4 544.766 415.425 543.738 416.157C543.205 416.523 543.205 416.816 543.548 417.365C543.928 417.914 543.776 418.5 543.586 419.049C543.395 419.634 542.786 419.561 542.291 419.561C539.474 419.451 536.733 419.451 533.954 419.451ZM453.813 507.51C453.89 509.962 453.813 512.524 454.118 515.086C454.308 516.88 454.499 518.636 454.879 520.393C455.032 521.015 455.222 521.638 455.298 522.26C455.374 523.175 455.755 524.017 455.945 524.895C456.174 525.956 456.555 526.981 456.821 528.043C457.202 529.47 457.697 530.861 458.23 532.215C458.763 533.642 459.334 535.033 459.943 536.424C460.438 537.559 460.857 538.73 461.466 539.828C462.113 541.072 462.836 542.28 463.407 543.524C463.636 544 463.712 544.549 464.093 544.988C465.006 546.05 465.654 547.294 466.377 548.502C467.138 549.819 467.938 551.1 468.852 552.345C470.222 554.211 471.745 555.968 473.344 557.725C474.829 559.372 476.276 561.092 477.951 562.629C481.339 565.777 484.88 568.705 488.763 571.267C490.4 572.365 492.113 573.353 493.788 574.378C495.768 575.586 497.824 576.61 499.918 577.562C501.136 578.111 502.354 578.66 503.649 579.099C505.324 579.685 506.999 580.27 508.712 580.819C509.969 581.222 511.225 581.625 512.481 582.027C513.547 582.357 514.651 582.613 515.756 582.906C516.745 583.125 517.735 583.308 518.725 583.491C519.677 583.674 520.629 583.857 521.619 584.04C522.646 584.223 523.674 584.443 524.702 584.553C526.568 584.772 528.471 585.028 530.375 584.992C533.497 584.955 536.581 585.102 539.702 584.882C541.301 584.772 542.9 584.516 544.499 584.333C546.441 584.113 548.383 583.747 550.324 583.491C550.934 583.418 551.581 583.272 552.152 583.052C553.218 582.686 554.322 582.43 555.388 582.1C557.139 581.551 558.967 581.112 560.68 580.49C562.964 579.685 565.248 578.806 567.495 577.818C570.045 576.684 572.482 575.403 574.918 574.085C577.85 572.475 580.477 570.498 583.142 568.558C584.284 567.753 585.388 566.875 586.492 565.96C588.205 564.533 589.842 563.069 591.403 561.495C593.307 559.592 594.982 557.505 596.733 555.419C598.028 553.882 599.284 552.308 600.388 550.661C601.759 548.612 602.977 546.452 604.31 544.329C605.185 542.975 605.871 541.548 606.594 540.084C607.393 538.437 608.117 536.717 608.84 535.033C609.145 534.338 609.411 533.642 609.64 532.91C609.982 531.849 610.325 530.788 610.668 529.726C611.086 528.445 611.581 527.164 611.886 525.81C612.228 524.236 612.533 522.662 612.761 521.089C612.99 519.442 613.333 517.795 613.485 516.148C613.485 516.074 613.485 515.965 613.523 515.891C614.056 514.208 613.713 512.451 614.17 510.767C614.094 507.803 614.399 504.802 613.904 501.837C613.637 500.337 613.789 498.836 613.523 497.299C613.294 495.981 612.952 494.7 613.028 493.346C613.028 493.236 612.99 493.09 612.952 492.98C612.571 492.028 612.571 491.004 612.381 490.052C612.19 489.21 612 488.405 611.848 487.563C611.734 487.014 611.581 486.465 611.391 485.916C611.048 484.965 610.744 484.05 610.401 483.098C609.982 481.89 609.602 480.646 609.107 479.438C608.307 477.462 607.431 475.522 606.556 473.582C605.528 471.313 604.386 469.044 603.015 466.958C601.797 465.054 600.464 463.224 599.094 461.394C597.571 459.345 595.934 457.368 594.183 455.538C591.746 453.013 589.271 450.524 586.492 448.328C584.436 446.718 582.419 444.998 580.248 443.461C576.784 441.045 573.167 438.886 569.322 437.092C565.781 435.445 562.241 433.835 558.51 432.59C556.758 432.005 555.007 431.492 553.256 430.98C551.505 430.468 549.715 430.138 547.926 429.882C546.403 429.662 544.88 429.296 543.357 429.187C540.997 428.967 538.636 428.638 536.238 428.711C533.421 428.821 530.603 428.601 527.786 429.004C526.225 429.223 524.626 429.333 523.103 429.553C521.466 429.772 519.829 430.065 518.192 430.468C516.555 430.87 514.88 431.2 513.243 431.602C511.758 431.968 510.273 432.371 508.827 432.847C506.238 433.652 503.763 434.75 501.288 435.848C498.623 437.019 495.958 438.263 493.446 439.764C490.781 441.374 488.04 442.875 485.565 444.815C483.395 446.498 481.225 448.219 479.245 450.085C477.951 451.329 476.618 452.574 475.4 453.928C474.296 455.099 473.344 456.417 472.088 457.442C471.555 458.613 470.565 459.418 469.803 460.443C468.737 461.943 467.633 463.407 466.529 464.871C465.958 465.677 465.387 466.518 464.892 467.36C464.093 468.641 463.369 469.959 462.608 471.276C461.885 472.521 461.161 473.765 460.628 475.119C460.171 476.254 459.676 477.352 459.258 478.487C458.839 479.548 458.42 480.646 458.115 481.744C457.697 483.208 457.24 484.635 456.783 486.063C456.25 487.856 455.869 489.686 455.45 491.516C455.108 492.943 454.917 494.371 454.689 495.798C454.384 497.811 454.194 499.861 453.966 501.874C453.737 503.594 453.813 505.497 453.813 507.51ZM531.86 407.007C531.86 404.592 531.86 402.213 531.86 399.797C531.86 398.845 531.822 398.772 530.832 398.992C529.119 399.358 527.748 400.236 526.606 401.481C525.083 403.128 524.55 405.177 524.36 407.263C524.245 408.471 524.74 409.642 525.235 410.74C525.844 412.058 526.872 413.083 527.748 414.181C528.319 414.876 529.004 415.169 529.88 415.059C530.261 415.023 530.641 415.059 531.022 415.059C531.86 415.059 531.86 415.059 531.86 414.254C531.86 411.802 531.86 409.423 531.86 407.007ZM536.048 406.897C536.086 408.984 536.086 411.033 536.086 413.119C536.086 413.705 535.819 414.51 536.2 414.876C536.619 415.315 537.456 414.986 538.103 415.023C538.675 415.096 539.131 414.84 539.588 414.547C540.654 413.851 541.378 412.863 542.063 411.875C543.129 410.374 543.586 408.654 543.51 406.861C543.472 406.129 543.395 405.397 543.167 404.701C542.634 403.128 541.796 401.737 540.54 400.602C539.512 399.687 538.294 398.955 536.809 398.845C536.086 398.772 536.048 398.809 536.048 399.504C536.048 401.956 536.048 404.445 536.048 406.897ZM449.207 507.949C449.207 507.217 449.207 506.485 449.207 505.753C449.207 504.985 449.245 504.216 449.245 503.484C449.283 501.508 449.283 501.471 447.151 501.764C446.389 501.874 445.895 502.35 445.856 503.045C445.78 505.9 445.704 508.754 445.856 511.646C445.933 513.146 447.189 514.354 448.636 514.208C449.321 514.135 449.397 514.098 449.359 513.439C449.207 511.609 449.207 509.779 449.207 507.949ZM622.127 507.766C622.127 506.229 622.127 504.729 622.089 503.191C622.089 502.167 621.556 501.727 620.49 501.727C620.147 501.727 619.805 501.764 619.462 501.764C619.043 501.764 618.891 501.984 618.891 502.35C618.891 502.569 618.929 502.789 618.929 502.972C618.967 506.01 619.234 509.047 618.777 512.085C618.51 513.915 618.815 514.171 620.756 513.769C621.708 513.586 622.127 513.146 622.127 512.195C622.165 510.767 622.127 509.267 622.127 507.766Z" fill="#E9CC97"/>
<path d="M576.001 429.509C575.887 428.996 576.23 428.557 576.42 428.081C576.839 427.13 577.41 426.251 577.906 425.3C578.096 424.934 578.439 424.604 578.743 424.348C579.848 423.433 581.143 423.836 581.79 425.117C582.285 426.105 581.904 426.91 581.562 427.715C581.143 428.704 580.495 429.582 579.81 430.46C579.429 430.973 578.934 431.339 578.324 431.485C577.144 431.815 575.887 430.57 576.001 429.509Z" fill="#E9CC97"/>
<path d="M617.041 460.838C617.802 460.838 618.793 461.46 618.983 462.155C619.173 462.887 619.097 463.546 618.45 464.132C617.155 465.266 615.708 466.035 614.032 466.547C613.423 466.73 612.394 466.254 611.937 465.632C611.557 465.083 611.595 464.424 612.052 463.802C612.775 462.851 613.727 462.155 614.794 461.606C615.213 461.387 615.67 461.277 616.05 461.057C616.393 460.838 616.736 460.838 617.041 460.838Z" fill="#E9CC97"/>
<path d="M487.923 424.203C488.646 424.093 489.179 424.496 489.56 425.008C490.436 426.216 491.198 427.46 491.731 428.851C491.96 429.437 491.998 430.096 491.541 430.681C490.703 431.816 489.598 431.852 488.76 431.011C487.58 429.803 486.666 428.229 486.057 426.692C485.714 426.216 485.561 425.74 486.018 425.228C486.514 424.606 487.047 424.13 487.923 424.203Z" fill="#E9CC97"/>
<path d="M450.861 460.802C452.118 460.765 453.032 461.461 453.984 462.119C454.784 462.705 455.431 463.437 455.926 464.315C456.422 465.23 455.926 466.219 454.86 466.328C454.098 466.402 453.375 466.328 452.651 465.999C451.471 465.487 450.366 464.901 449.414 464.059C448.919 463.583 448.462 463.034 448.69 462.229C448.957 461.351 449.871 460.656 450.861 460.802Z" fill="#E9CC97"/>
<path d="M606.145 447.149C606.259 448.796 604.659 449.858 603.365 449.821C601.613 449.785 600.47 448.65 600.394 447.04C600.318 445.502 602.032 444.441 603.403 444.441C604.774 444.441 606.221 445.539 606.145 447.149Z" fill="#E9CC97"/>
<path d="M467.5 447.187C467.576 448.76 465.938 450.078 464.263 449.566C463.806 449.419 463.387 449.346 462.968 449.09C462.092 448.541 461.749 447.626 462.092 446.711C462.435 445.759 462.93 445.064 463.958 444.625C465.063 444.112 466.738 444.917 467.157 445.869C467.271 446.308 467.614 446.711 467.5 447.187Z" fill="#E9CC97"/>
<path d="M613.542 546.481C614.113 546.334 614.57 546.664 615.065 546.847C616.322 547.286 617.503 547.872 618.455 548.86C619.293 549.665 619.064 550.763 618.302 551.495C617.655 552.117 616.36 552.337 615.484 551.861C614.532 551.349 613.504 550.836 612.666 550.104C612.247 549.738 611.904 549.299 611.714 548.713C611.523 548.128 611.638 547.689 611.98 547.286C612.361 546.81 612.78 546.334 613.542 546.481Z" fill="#E9CC97"/>
<path d="M535.946 596.771C535.946 597.393 535.984 597.979 535.946 598.601C535.87 599.736 535.222 600.285 534.08 600.248C533.851 600.248 533.623 600.248 533.432 600.211C532.785 600.138 532.366 599.736 532.214 599.113C531.947 597.942 531.909 596.771 532.137 595.6C532.214 595.197 532.214 594.758 532.252 594.319C532.328 593.587 532.899 593.001 533.623 592.891C534.346 592.782 535.527 593.111 535.755 593.88C535.87 594.355 536.06 594.795 536.022 595.307C535.946 595.819 535.984 596.295 535.946 596.771C535.984 596.771 535.984 596.771 535.946 596.771Z" fill="#E9CC97"/>
<path d="M450.363 551.971C449.715 552.117 449.296 551.568 448.991 551.019C448.649 550.434 448.611 549.702 449.068 549.116C449.449 548.567 449.944 548.165 450.591 547.872C451.429 547.506 452.229 547.14 453.028 546.774C453.447 546.554 453.866 546.554 454.323 546.554C455.085 546.554 455.542 546.92 455.885 547.542C456.151 548.091 456.151 548.64 455.77 549.153C455.58 549.409 455.39 549.629 455.161 549.812C454.133 550.69 452.952 551.349 451.657 551.861C451.277 551.934 450.896 551.934 450.363 551.971Z" fill="#E9CC97"/>
<path d="M489.641 582.35C491.279 582.35 492.269 584.034 491.545 585.315C490.936 586.376 490.288 587.401 489.603 588.389C489.07 589.121 488.384 589.451 487.584 589.231C486.709 588.975 486.023 588.096 486.061 587.255C486.099 586.632 486.252 586.047 486.632 585.571C487.166 584.876 487.584 584.107 488.118 583.375C488.498 582.826 488.917 582.277 489.641 582.35Z" fill="#E9CC97"/>
<path d="M578.049 582.312C578.506 582.312 578.887 582.385 579.23 582.751C580.334 583.923 581.134 585.313 581.819 586.704C581.858 586.814 581.934 586.887 581.896 587.034C581.705 587.766 580.296 588.827 579.496 588.827C578.963 588.827 578.582 588.681 578.316 588.278C577.516 587.143 576.716 586.009 576.107 584.728C575.65 583.849 576.64 582.202 578.049 582.312Z" fill="#E9CC97"/>
<path d="M502.136 590.95C502.136 592.341 501.108 593.366 499.661 593.329C497.985 593.329 496.843 592.304 496.843 590.767C496.843 589.413 498.176 588.205 499.623 588.242C500.842 588.278 502.289 589.267 502.136 590.95Z" fill="#E9CC97"/>
<path d="M603.363 564.451C604.277 564.451 605.382 565.293 605.687 566.098C606.448 568.074 605.001 569.428 603.44 569.758C602.488 569.941 601.688 569.355 601.155 568.623C600.241 567.415 600.736 565.622 602.145 564.89C602.564 564.634 602.945 564.305 603.363 564.451Z" fill="#E9CC97"/>
<path d="M464.779 569.575C463.142 569.685 461.961 568.441 461.961 566.977C461.961 565.586 463.446 564.561 464.741 564.524C466.188 564.488 467.369 565.696 467.407 567.16C467.445 568.441 466.226 569.575 464.779 569.575Z" fill="#E9CC97"/>
<path d="M569.907 588.645C569.869 588.901 569.983 588.974 570.249 588.938C570.249 589.157 570.402 589.34 570.516 589.523C570.821 590.146 571.125 590.768 570.897 591.5C570.592 592.598 569.374 593.586 567.812 593.22C567.012 593.037 566.213 592.671 565.908 591.902C565.565 591.024 565.679 590.072 566.365 589.34C567.012 588.608 567.888 588.206 568.955 588.425C569.221 588.499 569.564 588.572 569.907 588.645Z" fill="#E9CC97"/>
<path d="M611.362 506.368C611.362 507.832 611.4 509.369 611.362 510.869C611.324 512.37 611.134 513.907 610.943 515.408C610.829 516.286 610.829 517.201 610.601 518.08C610.334 519.178 610.258 520.276 610.03 521.374C609.649 523.021 609.23 524.667 608.773 526.314C608.05 528.803 607.288 531.292 606.299 533.708C605.461 535.721 604.509 537.66 603.557 539.637C601.73 543.516 599.446 547.14 596.819 550.544C595.029 552.922 593.05 555.192 591.07 557.424C589.547 559.144 587.872 560.645 586.197 562.219C585.435 562.951 584.522 563.573 583.646 564.159C582.885 564.671 582.237 565.366 581.514 565.915C580.296 566.867 579.078 567.782 577.859 568.697C576.298 569.868 574.623 570.82 572.91 571.735C570.968 572.796 569.027 573.931 566.933 574.736C565.105 575.431 563.316 576.237 561.489 576.932C559.851 577.518 558.214 578.14 556.539 578.652C555.093 579.091 553.684 579.567 552.237 579.933C550.981 580.262 549.724 580.519 548.506 580.848C547.478 581.104 546.412 581.141 545.384 581.434C544.547 581.69 543.633 581.617 542.757 581.69C539.559 581.983 536.399 582.129 533.201 582.019C530.993 581.946 528.747 582.019 526.539 581.763C525.473 581.653 524.369 581.69 523.341 581.47C522.465 581.287 521.552 581.214 520.676 580.958C519.838 580.702 518.925 580.702 518.087 580.446C516.869 580.08 515.612 579.86 514.394 579.457C513.823 579.274 513.252 579.164 512.681 579.018C511.234 578.652 509.864 578.14 508.455 577.627C507.046 577.115 505.676 576.603 504.267 576.127C502.097 575.322 500.041 574.37 497.947 573.382C494.94 571.918 492.122 570.124 489.343 568.294C488.087 567.453 486.907 566.501 485.688 565.549C484.813 564.854 483.861 564.232 483.061 563.5C482.072 562.658 481.082 561.78 480.168 560.865C477.541 558.229 475.066 555.448 472.744 552.556C471.145 550.507 469.584 548.421 468.214 546.225C467.414 544.944 466.615 543.626 465.777 542.345C464.863 540.881 464.178 539.234 463.379 537.697C462.503 535.904 461.741 534.074 460.98 532.244C460.447 530.889 459.99 529.535 459.571 528.144C459.229 527.01 458.886 525.912 458.543 524.777C458.391 524.192 458.239 523.606 458.125 523.021C457.972 522.179 457.782 521.337 457.592 520.532C457.325 519.397 457.439 518.226 456.983 517.128C456.944 517.055 456.944 516.945 456.944 516.872C456.716 513.797 456.411 510.76 456.45 507.685C456.488 505.233 456.411 502.744 456.602 500.292C456.716 499.121 456.754 497.913 456.983 496.778C457.249 495.388 457.516 494.034 457.782 492.643C458.01 491.545 458.391 490.483 458.658 489.422C458.924 488.214 459.419 487.08 459.609 485.835C459.686 485.286 459.914 484.774 460.066 484.261C460.485 482.797 460.98 481.333 461.513 479.906C462.427 477.49 463.493 475.148 464.673 472.842C465.32 471.598 466.12 470.39 466.729 469.109C467.033 468.45 467.566 467.865 468.023 467.243C468.594 466.401 469.127 465.522 469.736 464.717C470.384 463.875 471.107 463.07 471.678 462.192C472.858 460.398 474.305 458.825 475.714 457.251C477.617 455.128 479.787 453.225 481.843 451.248C483.937 449.199 486.183 447.332 488.544 445.612C489.724 444.734 491.056 444.075 492.275 443.27C494.597 441.769 497.072 440.525 499.546 439.354C501.754 438.292 504.039 437.341 506.323 436.426C508.074 435.73 509.864 435.108 511.691 434.596C512.833 434.303 513.975 433.973 515.118 433.681C516.374 433.388 517.668 433.132 518.963 432.766C519.686 432.546 520.486 432.509 521.247 432.326C522.465 432.034 523.722 431.997 524.94 431.741C525.968 431.521 526.996 431.594 528.062 431.485C531.108 431.082 534.191 431.192 537.275 431.265C539.179 431.302 541.082 431.448 542.948 431.851C543.1 431.887 543.252 431.887 543.405 431.887C544.889 431.924 546.298 432.326 547.745 432.546C549.115 432.766 550.448 433.095 551.78 433.424C553.341 433.827 554.94 434.156 556.463 434.742C557.301 435.071 558.176 435.291 559.052 435.547C560.575 436.023 562.022 436.609 563.506 437.158C565.638 437.963 567.656 439.024 569.712 440.012C571.616 440.964 573.443 442.025 575.27 443.087C579.039 445.209 582.314 447.991 585.55 450.773C587.72 452.639 589.776 454.689 591.717 456.775C593.621 458.825 595.562 460.911 597.238 463.143C598.532 464.864 599.598 466.767 600.74 468.597C602.111 470.793 603.329 473.062 604.433 475.404C605.233 477.051 605.88 478.771 606.565 480.455C607.403 482.505 608.012 484.627 608.659 486.714C609.192 488.434 609.649 490.191 609.991 491.984C610.144 492.789 610.144 493.668 610.563 494.473C610.601 494.509 610.639 494.583 610.601 494.656C610.486 495.827 610.981 496.925 611.019 498.096C611.172 500.804 611.552 503.549 611.362 506.368ZM532.897 580.702C536.285 580.482 539.331 580.628 542.377 580.262C544.471 580.006 546.565 579.75 548.658 579.348C550.6 578.982 552.504 578.433 554.407 577.92C556.425 577.371 558.443 576.749 560.423 576.017C562.859 575.102 565.258 574.114 567.58 572.979C569.636 571.954 571.654 570.893 573.671 569.722C575.537 568.624 577.364 567.453 579.078 566.098C580.486 564.964 581.857 563.866 583.265 562.731C585.055 561.304 586.654 559.73 588.253 558.12C589.509 556.912 590.613 555.558 591.755 554.277C593.164 552.666 594.534 551.056 595.867 549.372C597.047 547.835 598.075 546.188 599.103 544.541C600.245 542.711 601.349 540.845 602.263 538.905C603.405 536.453 604.585 534 605.499 531.438C606.032 529.938 606.451 528.437 606.908 526.937C607.288 525.656 607.593 524.375 607.936 523.094C608.126 522.289 608.354 521.447 608.469 520.605C608.621 519.58 608.811 518.555 609.002 517.567C609.23 516.213 609.382 514.859 609.535 513.505C609.763 511.199 609.725 508.893 609.687 506.551C609.687 506.075 609.991 505.672 609.877 505.196C609.649 504.135 609.687 503.037 609.687 501.976C609.687 500.219 609.23 498.535 609.154 496.815C609.116 496.083 608.887 495.315 608.849 494.583C608.849 494.509 608.849 494.4 608.811 494.326C608.354 493.485 608.469 492.533 608.24 491.655C608.05 490.923 607.859 490.117 607.707 489.349C607.593 488.8 607.479 488.214 607.25 487.702C606.793 486.75 606.565 485.689 606.299 484.701C605.842 483.017 605.118 481.407 604.509 479.796C604.128 478.808 603.672 477.856 603.291 476.905C602.491 474.892 601.425 472.989 600.321 471.122C599.56 469.804 598.837 468.487 597.923 467.243C597.009 465.962 596.21 464.607 595.258 463.363C592.441 459.666 589.243 456.263 585.74 453.152C583.722 451.322 581.59 449.601 579.382 448.028C577.555 446.71 575.689 445.392 573.709 444.258C571.616 443.087 569.484 441.879 567.313 440.817C564.953 439.646 562.478 438.622 559.966 437.743C558.747 437.304 557.491 436.901 556.273 436.462C555.321 436.096 554.331 435.84 553.303 435.62C552.161 435.364 551.019 434.998 549.877 434.742C549.039 434.522 548.164 434.376 547.288 434.23C546.222 434.047 545.118 433.864 544.052 433.681C542.186 433.351 540.283 433.205 538.417 433.132C534.572 432.985 530.727 432.839 526.844 433.315C524.788 433.571 522.77 434.01 520.676 434.193C520.6 434.193 520.486 434.23 520.409 434.266C519.572 434.632 518.62 434.596 517.744 434.852C517.288 434.998 516.793 435.181 516.298 435.218C515.118 435.328 514.013 435.803 512.871 436.096C511.501 436.426 510.168 437.011 508.798 437.414C506.97 437.963 505.257 438.805 503.506 439.463C502.287 439.903 501.145 440.561 500.003 441.11C497.262 442.391 494.711 443.965 492.122 445.539C489.914 446.893 487.82 448.394 485.917 450.114C483.328 452.456 480.739 454.872 478.264 457.361C476.97 458.642 475.752 460.032 474.648 461.423C472.973 463.583 471.374 465.779 469.698 467.938C469.546 468.157 469.356 468.414 469.28 468.633C468.861 469.731 468.099 470.646 467.49 471.671C466.044 474.123 464.863 476.685 463.797 479.32C463.302 480.565 462.846 481.846 462.427 483.127C462.122 484.005 461.818 484.884 461.551 485.799C461.285 486.787 460.866 487.738 460.637 488.727C460.295 490.081 459.838 491.398 459.533 492.753C459.381 493.558 459.267 494.363 459.076 495.168C458.772 496.339 458.734 497.584 458.505 498.755C458.239 500.255 458.239 501.829 458.163 503.403C458.01 506.185 457.896 509.003 458.315 511.784C458.582 513.468 458.467 515.188 458.734 516.872C458.924 518.08 459.153 519.251 459.305 520.495C459.381 521.117 459.495 521.776 459.686 522.362C460.104 523.533 460.257 524.777 460.675 525.948C461.018 526.973 461.247 528.071 461.589 529.096C462.274 530.963 462.96 532.793 463.683 534.623C464.635 537.002 465.891 539.271 467.071 541.54C467.757 542.858 468.67 544.029 469.394 545.31C470.384 547.03 471.526 548.64 472.706 550.214C474.305 552.41 476.171 554.423 478.036 556.436C479.369 557.9 480.853 559.218 482.224 560.608C482.833 561.231 483.518 561.78 484.127 562.365C485.384 563.536 486.716 564.634 488.125 565.586C489.99 566.867 491.818 568.185 493.76 569.392C495.054 570.198 496.31 571.076 497.681 571.735C500.079 572.833 502.44 574.077 504.914 575.029C506.551 575.651 508.15 576.346 509.826 576.895C511.691 577.518 513.595 578.067 515.498 578.542C517.021 578.908 518.544 579.238 520.067 579.604C520.828 579.787 521.552 579.823 522.313 580.006C523.874 580.372 525.435 580.482 526.996 580.592C527.986 580.665 528.976 580.628 529.927 580.665C530.993 580.592 532.135 580.665 532.897 580.702Z" fill="#E9CC97"/>
<path d="M460.678 507.32C460.411 504.538 460.982 501.61 461.096 498.646C461.591 497.694 461.363 496.633 461.667 495.608C461.934 494.766 461.972 493.815 462.162 492.936C462.467 491.619 462.771 490.338 463.152 489.057C463.343 488.434 463.457 487.776 463.685 487.153C464.028 486.165 464.256 485.104 464.599 484.116C465.132 482.652 465.665 481.188 466.312 479.724C467.302 477.418 468.406 475.149 469.662 472.953C471.452 469.805 473.584 466.877 475.792 463.986C478.19 460.838 480.893 458.02 483.749 455.275C485.843 453.299 488.089 451.469 490.411 449.749C493.267 447.626 496.388 445.906 499.548 444.295C501.3 443.417 503.013 442.465 504.84 441.697C506.059 441.184 507.277 440.672 508.571 440.306C509.752 439.976 510.894 439.501 512.074 439.098C513.102 438.732 514.13 438.439 515.158 438.11C516.376 437.744 517.594 437.524 518.813 437.158C519.422 436.975 520.069 436.902 520.678 436.829C521.706 436.682 522.734 436.499 523.762 436.316C525.208 436.024 526.655 436.097 528.064 435.767C528.635 435.621 529.206 435.658 529.777 435.658C532.48 435.658 535.183 435.658 537.848 435.658C539.485 435.658 541.16 435.877 542.759 436.097C543.825 436.243 544.929 436.39 545.995 436.609C546.909 436.829 547.899 437.048 548.851 437.122C549.536 437.195 550.221 437.378 550.869 437.561C551.935 437.854 553.039 438.11 554.105 438.512C555.323 438.988 556.655 439.318 557.912 439.72C559.206 440.159 560.501 440.635 561.757 441.111C564.041 442.026 566.287 443.087 568.458 444.222C570.894 445.503 573.293 446.894 575.615 448.394C577.366 449.566 579.041 450.883 580.678 452.164C583.496 454.397 585.97 456.922 588.445 459.484C589.816 460.875 591.148 462.339 592.328 463.876C593.775 465.779 595.108 467.719 596.402 469.732C597.658 471.708 598.877 473.685 599.866 475.771C600.78 477.674 601.58 479.651 602.455 481.554C603.217 483.201 603.636 484.957 604.207 486.678C604.587 487.812 604.816 489.02 605.158 490.191C605.691 492.058 605.996 493.961 606.301 495.864C606.643 497.914 606.834 499.963 607.1 501.976C607.405 504.538 607.328 507.1 607.252 509.662C607.214 511.309 607.138 512.956 606.91 514.567C606.643 516.323 606.567 518.08 606.186 519.8C605.958 520.862 605.653 521.923 605.349 522.948C605.12 523.717 604.892 524.522 604.702 525.327C604.473 526.279 604.207 527.194 603.864 528.109C603.293 529.646 602.722 531.22 602.113 532.757C601.085 535.319 599.943 537.844 598.534 540.296C597.24 542.565 595.907 544.798 594.384 546.921C593.014 548.861 591.453 550.654 589.892 552.447C587.493 555.156 584.981 557.791 582.239 560.17C580.26 561.89 578.204 563.537 575.958 564.964C574.282 566.026 572.607 567.051 570.932 568.075C568.876 569.356 566.592 570.271 564.422 571.369C562.785 572.175 561.072 572.833 559.359 573.456C558.064 573.931 556.77 574.334 555.475 574.737C554.447 575.066 553.381 575.359 552.353 575.652C551.63 575.871 550.869 576.091 550.069 576.164C549.46 576.201 548.813 576.384 548.242 576.567C547.366 576.859 546.376 576.676 545.577 577.152C545.539 577.189 545.462 577.152 545.386 577.189C543.369 577.445 541.389 577.665 539.333 577.591C539.028 577.591 538.686 577.628 538.381 577.665C538.381 577.665 534.955 577.921 534.384 577.921C533.47 577.921 532.556 577.921 531.643 577.921C529.244 577.884 526.846 577.591 524.485 577.335C523.305 577.225 522.163 577.079 521.021 576.823C520.107 576.64 519.155 576.567 518.28 576.237C517.747 576.054 517.137 575.981 516.566 575.835C515.005 575.432 513.444 574.92 511.922 574.444C510.323 573.931 508.724 573.346 507.125 572.833C506.173 572.504 505.221 572.138 504.269 571.699C503.051 571.113 501.833 570.637 500.614 570.015C499.32 569.32 498.026 568.624 496.769 567.892C495.361 567.051 493.952 566.172 492.619 565.221C491.363 564.306 490.107 563.391 488.926 562.403C487.746 561.451 486.68 560.39 485.424 559.511C484.282 558.706 483.292 557.681 482.34 556.656C480.475 554.643 478.571 552.704 476.858 550.581C475.944 549.41 474.916 548.312 474.003 547.14C472.822 545.603 471.832 543.956 470.843 542.309C470.233 541.248 469.624 540.186 468.977 539.125C468.025 537.661 467.34 536.051 466.655 534.44C465.931 532.72 465.36 530.927 464.675 529.17C464.18 527.926 463.837 526.681 463.343 525.437C463.114 524.888 463.076 524.302 462.962 523.753C462.81 522.911 462.581 522.07 462.391 521.264C462.162 520.423 462.2 519.508 461.82 518.702C461.782 518.666 461.782 518.593 461.782 518.519C461.82 517.202 461.249 515.957 461.325 514.64C461.363 514.018 461.363 513.359 461.058 512.737C460.944 512.517 460.982 512.261 460.982 512.005C460.678 510.504 460.678 509.004 460.678 507.32ZM557.798 493.009C557.683 493.046 557.569 493.046 557.493 493.083C556.275 494.034 554.942 494.876 553.686 495.754C552.963 496.267 552.125 496.596 551.63 497.328C551.287 497.328 551.059 497.548 550.831 497.731C549.726 498.536 548.584 499.268 547.48 500.073C547.1 500.366 546.49 500.476 546.3 500.988C546.148 501.025 545.995 500.988 545.957 501.171C544.929 501.61 544.13 502.416 543.216 502.965C542.912 503.148 542.836 503.44 542.988 503.77C543.483 504.721 543.673 505.746 543.711 506.808C543.749 507.942 543.673 509.04 543.369 510.138C543.026 510.98 542.683 511.895 542.074 512.554C540.932 513.835 539.79 515.116 538.039 515.774C537.506 515.957 536.858 516.031 536.478 516.506C535.983 516.763 536.173 517.202 536.173 517.568C536.135 530.268 536.097 543.005 536.097 555.705C536.097 555.961 536.097 556.181 536.135 556.437C536.173 556.62 536.325 556.656 536.478 556.62C536.554 556.656 536.668 556.73 536.744 556.73C538.648 556.766 540.513 556.4 542.379 556.144C543.711 555.961 545.006 555.522 546.3 555.229C548.089 554.826 549.879 554.314 551.592 553.619C554.98 552.301 558.293 550.764 561.376 548.897C563.508 547.58 565.526 546.152 567.43 544.542C568.762 543.407 570.095 542.199 571.351 540.955C573.064 539.235 574.587 537.405 576.072 535.502C577.633 533.489 578.927 531.293 580.107 529.06C580.907 527.523 581.592 525.949 582.239 524.339C582.734 523.058 583.153 521.704 583.572 520.423C583.762 519.874 583.953 519.251 584.029 518.666C584.105 517.824 584.371 516.982 584.562 516.177C584.828 515.079 584.904 513.944 585.133 512.846C585.323 511.895 585.323 510.907 585.475 509.955C585.59 509.113 585.552 509.077 584.676 509.077C582.392 509.077 580.107 509.077 577.823 509.077C577.404 509.077 576.947 509.04 576.605 509.187C575.958 509.443 575.425 509.296 574.854 509.113C573.217 508.601 572.683 506.478 573.978 505.417C574.511 504.978 575.082 504.685 575.843 504.721C578.775 504.758 581.744 504.758 584.676 504.758C585.475 504.758 585.628 504.612 585.475 503.916C585.095 502.306 585.285 500.659 584.866 499.048C584.638 498.207 584.562 497.292 584.333 496.45C584.029 495.169 583.762 493.888 583.343 492.607C583.039 491.619 582.734 490.63 582.392 489.679C581.554 487.556 580.64 485.47 579.498 483.457C577.975 480.785 576.338 478.223 574.321 475.881C572.455 473.685 570.437 471.672 568.153 469.842C566.516 468.524 564.841 467.243 563.09 466.072C560.843 464.571 558.483 463.254 555.97 462.192C554.181 461.424 552.353 460.728 550.564 460.033C548.775 459.338 546.947 458.789 545.12 458.349C543.33 457.947 541.503 457.544 539.638 457.471C539.219 457.471 538.8 457.398 538.419 457.325C537.696 457.178 536.973 457.178 536.249 457.178C536.097 457.434 536.135 457.691 536.135 457.91C536.135 461.277 536.135 464.608 536.135 467.975C536.135 468.268 536.135 468.597 536.097 468.89C535.983 469.878 534.422 470.793 533.47 470.427C532.252 469.952 531.909 469.476 531.871 468.195C531.871 465.56 531.871 462.888 531.871 460.253C531.871 459.411 531.871 458.532 531.871 457.691C531.871 457.288 531.719 457.142 531.3 457.178C529.739 457.325 528.14 457.434 526.579 457.581C526.503 457.581 526.389 457.654 526.313 457.654C525.361 457.837 524.409 458.093 523.457 458.203C522.696 458.313 522.011 458.569 521.249 458.715C520.259 458.935 519.307 459.374 518.318 459.63C516.757 460.07 515.272 460.692 513.787 461.314C511.807 462.119 509.942 463.071 508.076 464.096C506.249 465.12 504.345 466.109 502.746 467.463C500.272 469.476 497.721 471.416 495.513 473.795C493.19 476.283 490.982 478.882 489.269 481.773C488.051 483.859 487.023 486.019 486.071 488.251C485.348 489.935 484.853 491.655 484.32 493.375C484.168 493.888 483.901 494.4 483.863 494.949C483.825 495.791 483.52 496.596 483.368 497.438C483.102 498.719 482.911 500 482.759 501.281C482.645 502.159 482.645 503.038 482.454 503.916C482.302 504.612 482.416 504.721 483.178 504.721C485.538 504.721 487.937 504.721 490.297 504.685C490.944 504.685 491.553 504.612 492.201 504.648C493.114 504.685 493.685 505.161 494.028 505.856C494.218 506.295 494.675 506.771 494.447 507.283C494.218 507.869 493.952 508.455 493.19 508.784C492.505 509.077 491.858 509.186 491.173 509.113C488.774 508.894 486.338 509.113 483.939 509.04C482.188 509.003 482.188 509.04 482.454 510.724C482.683 512.151 482.797 513.615 483.025 515.079C483.178 516.067 483.368 517.055 483.596 518.007C483.825 519.105 484.206 520.166 484.51 521.228C485.081 523.168 485.843 525.034 486.68 526.901C487.822 529.426 489.345 531.805 490.906 534.111C493 537.222 495.513 540.003 498.292 542.565C501.68 545.676 505.373 548.385 509.447 550.581C512.645 552.301 516.033 553.692 519.536 554.717C520.297 554.936 521.091 555.189 522.011 555.449C522.658 555.632 523.343 555.815 523.99 555.924C524.866 556.071 525.703 556.217 526.541 556.4C527.645 556.656 529.358 556.803 530.462 556.766C531.604 556.839 531.719 556.73 531.719 555.668C531.719 545.384 531.681 535.136 531.681 524.851C531.681 522.289 531.681 519.727 531.681 517.165C531.681 516.726 531.604 516.47 531.11 516.287C530.158 515.921 529.168 515.628 528.368 514.969C527.988 514.676 527.326 514.118 527.326 514.118C527.288 514.045 527.15 513.944 527.112 513.908C526.122 513.139 525.513 512.078 525.018 511.016C524.447 509.809 524.066 508.564 524.104 507.174C524.143 505.929 524.295 504.721 524.828 503.55C524.942 503.331 525.018 503.038 524.828 502.855C524.066 502.269 523.008 501.413 522.62 500.988H522.582C522.163 500.512 520.988 499.602 520.602 499.305C519.079 498.133 517.518 496.962 515.957 495.828C515.653 495.608 515.424 495.242 515.005 495.169L514.967 495.132C514.929 495.059 514.929 494.949 514.853 494.876C513.292 493.705 511.731 492.607 510.208 491.399C509.066 490.484 507.924 489.569 506.744 488.691C506.249 488.325 505.678 487.995 505.373 487.373C504.955 486.458 505.145 485.653 505.64 484.884C505.754 484.884 505.83 484.811 505.792 484.665C505.982 484.591 506.211 484.555 506.401 484.445C507.01 484.079 507.62 484.042 508.267 484.445C508.419 484.555 508.647 484.518 508.8 484.591C508.8 484.665 508.8 484.738 508.838 484.774C510.437 486.019 511.998 487.336 513.635 488.544C516.033 490.301 518.28 492.204 520.602 493.998C522.81 495.718 525.018 497.475 527.188 499.231C527.759 499.671 527.759 499.671 528.406 499.305C530.005 498.353 531.681 497.658 533.584 497.658C534.269 497.658 534.993 497.584 535.678 497.767C536.934 498.133 538.229 498.536 539.295 499.341C539.676 499.634 540.094 499.597 540.513 499.378C540.742 499.268 540.932 499.122 541.122 498.975C542.112 498.316 543.102 497.621 544.092 496.962C546.719 495.169 549.346 493.375 551.935 491.545C553.039 490.777 554.143 490.008 555.247 489.276C557.836 487.593 560.348 485.763 562.861 483.969C564.346 482.944 565.755 481.846 567.239 480.785C567.963 480.273 568.8 480.346 569.485 480.639C570.894 481.224 571.084 483.164 569.98 484.189C569.409 484.738 568.686 485.104 568.039 485.58C566.935 486.385 565.754 487.08 564.65 487.885C564.041 488.325 563.356 488.654 562.861 489.24C562.785 489.24 562.671 489.24 562.595 489.313C561.262 490.228 559.968 491.179 558.635 492.131C558.483 492.46 558.026 492.607 557.798 493.009ZM467.645 517.202C467.987 517.312 468.33 517.202 468.673 517.129C470.69 516.726 472.746 516.58 474.84 516.47C474.84 516.653 474.992 516.689 475.145 516.763C476.058 517.202 476.439 517.97 476.287 518.922C476.173 519.508 475.487 519.983 474.574 520.057C474.307 520.093 474.003 520.093 473.736 520.166C472.746 520.496 471.718 520.532 470.69 520.752C469.472 520.972 468.216 521.191 466.997 521.411C466.426 521.521 466.426 521.777 466.35 522.216C466.236 523.021 466.731 523.68 466.845 524.412C466.959 525.254 467.34 526.022 467.568 526.828C467.607 526.974 467.721 527.011 467.835 527.011C468.444 527.011 469.053 527.157 469.51 526.608C470.157 526.681 470.728 526.315 471.299 526.132C472.822 525.693 474.269 525.071 475.792 524.595C477.086 524.192 477.543 524.266 478.419 525.364C478.533 525.547 478.647 525.693 478.761 525.876C479.104 526.462 478.99 527.303 478.381 527.633C477.81 527.926 477.239 528.255 476.591 528.438C475.525 528.731 474.497 529.06 473.47 529.39C472.213 529.792 470.995 530.195 469.739 530.561C468.977 530.78 468.901 530.89 469.167 531.512C469.967 533.306 470.766 535.063 471.642 536.819C471.832 537.185 472.023 537.258 472.365 537.222C472.632 537.222 472.86 537.112 473.089 537.002C474.84 536.124 476.629 535.282 478.381 534.44C478.723 534.294 479.104 534.184 479.333 533.855C479.409 533.855 479.523 533.891 479.599 533.855C480.932 533.123 482.34 532.427 483.749 531.769C484.396 531.476 484.358 531.476 484.053 530.89C483.444 529.829 482.835 528.731 482.378 527.633C481.655 525.913 480.97 524.192 480.398 522.399C479.942 521.008 479.637 519.617 479.294 518.227C479.104 517.385 478.99 516.543 478.876 515.701C478.647 514.201 478.267 512.737 478.228 511.199C478.19 510.614 478.228 510.028 478.228 509.479C478.228 508.894 478.114 508.82 477.505 508.857C476.896 508.894 476.287 508.93 475.716 508.93C472.327 508.967 468.939 509.04 465.551 508.93C464.637 508.894 464.523 508.967 464.675 509.845C464.865 510.98 464.98 512.151 464.942 513.286C464.903 514.53 465.36 515.738 465.322 517.019C465.322 517.202 465.36 517.421 465.589 517.421C466.236 517.568 466.997 517.787 467.645 517.202ZM592.976 509.187C592.138 509.113 591.338 509.113 590.501 509.187C589.739 509.15 589.701 509.15 589.701 509.772C589.701 510.284 589.739 510.797 589.739 511.309C589.625 511.895 589.587 512.444 589.701 513.029C589.283 513.322 589.359 513.798 589.359 514.201C589.397 515.408 589.016 516.506 588.826 517.678C588.673 518.483 588.559 519.325 588.255 520.093C588.026 520.825 587.798 521.521 587.569 522.253C587.151 523.497 586.732 524.778 586.275 525.986C585.932 526.864 585.704 527.743 585.247 528.584C584.866 529.316 584.524 530.048 584.105 530.744C583.686 531.439 583.838 531.805 584.638 532.135C584.676 532.135 584.714 532.135 584.714 532.171C586.465 533.013 588.255 533.782 589.968 534.697C591.605 535.575 593.318 536.344 594.727 537.551C595.146 537.917 595.564 537.771 595.831 537.258C596.554 536.014 597.087 534.66 597.696 533.379C598.001 532.757 598.344 532.171 598.572 531.476C598.762 530.89 598.8 530.89 598.267 530.707C597.468 530.414 596.707 530.158 595.907 529.865C594.575 529.39 593.204 528.95 591.871 528.475C591.148 528.218 590.463 527.999 589.778 527.706C589.168 527.45 588.826 526.754 589.092 526.205C589.892 524.595 590.577 524.083 592.519 524.668C593.204 524.888 593.813 525.327 594.575 525.217C594.917 525.473 596.021 525.876 596.592 525.913C596.668 525.986 596.783 525.986 596.859 525.949C596.897 526.059 596.935 526.205 597.087 526.205C598.077 526.388 598.915 526.901 599.905 527.303C599.981 526.937 600.399 526.681 600.285 526.242C600.438 526.022 600.476 525.766 600.438 525.51C600.552 525.473 600.666 525.4 600.704 525.29C600.894 524.266 601.199 523.241 601.504 522.253C601.694 521.557 601.504 521.338 600.742 521.228C599.752 521.118 598.762 521.045 597.734 520.825C596.212 520.496 594.651 520.313 593.09 520.02C592.557 519.91 591.91 519.8 591.681 519.251C591.034 517.714 591.948 516.397 593.585 516.47C594.689 516.506 595.793 516.689 596.859 516.909C598.42 517.238 600.019 517.055 601.542 517.531C601.618 517.568 601.732 517.531 601.808 517.568C602.113 517.568 602.265 517.495 602.379 517.129C602.76 515.994 602.684 514.786 602.874 513.615C603.064 512.407 602.988 511.199 603.026 509.955C603.064 509.077 603.026 509.04 602.075 509.077C601.998 509.077 601.96 509.113 601.884 509.113C600.666 509.04 599.486 509.04 598.267 509.113C597.887 509.04 597.506 509.04 597.125 509.113C596.478 509.04 595.831 509.04 595.184 509.113C594.46 509.113 593.737 509.113 592.976 509.187ZM536.021 452.75C537.582 452.896 539.028 452.969 540.475 453.116C541.465 453.226 542.417 453.372 543.369 453.591C544.244 453.811 545.158 453.884 546.034 454.104C547.214 454.433 548.432 454.653 549.574 455.019C551.782 455.751 554.029 456.373 556.122 457.398C557.912 458.276 559.777 459.008 561.567 459.923C563.051 460.692 564.384 461.643 565.793 462.522C567.239 463.4 568.458 464.498 569.866 465.413C570.666 465.926 571.275 466.658 571.998 467.243C573.293 468.268 572.836 468.451 574.054 467.06C575.615 465.267 577.29 463.62 578.927 461.863C579.879 460.802 580.907 459.777 581.859 458.752C582.011 458.606 582.163 458.459 581.973 458.203C580.869 456.995 579.689 455.824 578.28 454.909C577.481 454.36 577.442 454.397 576.833 455.129C575.92 456.227 575.044 457.361 574.092 458.423C573.445 459.118 572.836 459.813 572.341 460.619C571.846 461.387 571.161 461.9 570.475 462.449C570.171 462.668 569.828 462.705 569.524 462.449C569.067 462.119 568.61 461.79 568.229 461.424C567.544 460.728 567.468 460.106 568.191 459.447C569.562 458.166 570.628 456.666 571.732 455.202C572.531 454.214 573.483 453.335 574.13 452.164C572.607 450.847 570.894 449.749 569.105 448.797C568.572 448.504 568.001 448.614 567.772 449.163C567.315 450.151 566.706 451.066 566.173 452.018C565.374 453.482 564.536 454.982 563.546 456.336C563.013 457.068 562.404 457.325 561.605 457.068C561.072 456.922 560.691 456.483 560.348 456.08C559.968 455.641 559.93 455.202 560.196 454.726C561.567 452.274 562.861 449.785 564.46 447.443C564.917 446.747 564.841 446.491 564.041 446.125C563.318 445.796 562.595 445.43 561.833 445.1C560.958 444.734 560.044 444.368 559.168 444.002C558.597 443.783 558.369 443.929 558.14 444.478C557.836 445.283 557.607 446.162 557.303 446.967C556.617 448.797 556.008 450.664 555.475 452.53C555.323 453.079 554.98 453.555 554.447 453.738C553.686 453.994 553.001 453.701 552.353 453.225C551.782 452.823 551.516 452.384 551.63 451.688C551.782 450.81 552.125 449.932 552.353 449.053C552.886 447.223 553.534 445.43 554.219 443.673C554.562 442.758 554.371 442.355 553.381 442.099C552.125 441.806 550.907 441.44 549.688 441.038C549.384 440.928 549.041 440.965 549.041 441.331C549.003 441.88 548.66 442.355 548.66 442.904C548.622 443.893 548.242 444.844 548.089 445.832C547.937 446.711 547.671 447.553 547.556 448.394C547.48 449.09 547.1 449.712 547.1 450.444C547.1 450.737 546.795 450.92 546.605 451.066C545.995 451.542 544.777 451.542 544.168 451.03C543.635 450.59 543.254 450.115 543.369 449.346C543.483 448.358 543.711 447.37 543.902 446.381C544.054 445.686 544.054 444.991 544.244 444.332C544.587 443.161 544.739 441.953 545.006 440.782C545.082 440.342 544.891 440.233 544.473 440.123C543.216 439.793 541.884 439.867 540.627 439.647C539.447 439.427 538.229 439.501 537.011 439.501C536.287 439.501 536.211 439.61 536.173 440.306C536.173 440.452 536.173 440.599 536.173 440.745C536.173 444.295 536.173 447.809 536.173 451.359C536.021 451.871 536.021 452.274 536.021 452.75ZM502.746 446.747C503.241 447.004 503.317 447.37 503.508 447.662C504.916 449.822 506.249 452.018 507.391 454.287C507.581 454.653 507.886 455.092 507.734 455.568C507.467 456.373 506.858 456.885 506.059 457.105C505.297 457.325 504.764 456.959 504.307 456.373C503.584 455.531 503.051 454.58 502.518 453.628C501.68 452.128 500.919 450.554 499.929 449.126C499.586 448.614 499.32 448.577 498.787 448.834C498.406 449.053 498.026 449.236 497.645 449.456C496.579 450.078 495.665 450.883 494.523 451.359C493.99 451.579 493.952 452.237 494.371 452.75C495.361 453.957 496.427 455.129 497.416 456.373C498.178 457.361 499.053 458.24 499.701 459.301C499.929 459.667 500.272 460.07 500.196 460.545C500.119 461.241 498.901 462.156 498.216 462.229C497.264 462.339 496.655 461.863 496.16 461.204C494.942 459.484 493.609 457.874 492.239 456.3C491.858 455.861 491.515 455.421 491.097 455.019C490.564 454.506 490.221 454.506 489.764 454.946C488.584 456.044 487.251 456.959 486.109 458.093C485.69 458.532 485.69 458.972 486.223 459.191C486.452 459.301 486.642 459.484 486.794 459.63C489.345 462.156 491.858 464.681 494.142 467.39C494.409 467.719 494.637 467.756 494.98 467.499C495.437 467.17 495.932 466.877 496.388 466.475C497.607 465.377 498.901 464.462 500.272 463.547C501.528 462.741 502.746 461.826 504.041 461.094C506.135 459.96 508.191 458.825 510.399 457.947C512.417 457.142 514.434 456.263 516.528 455.604C517.899 455.165 519.307 454.726 520.716 454.36C522.544 453.884 524.371 453.445 526.198 453.116C527.531 452.86 528.939 452.64 530.348 452.713C530.615 452.713 530.919 452.713 531.186 452.713C531.643 452.713 531.833 452.53 531.795 452.091C531.795 451.981 531.795 451.835 531.795 451.725C531.795 448.358 531.795 444.954 531.795 441.587C531.795 441.148 531.795 440.745 531.757 440.306C531.719 439.83 531.49 439.61 530.995 439.574C530.805 439.574 530.615 439.574 530.424 439.574C528.559 439.427 526.769 439.94 524.942 439.903C524.409 439.903 523.876 439.976 523.381 440.196C522.696 440.489 522.543 440.672 522.848 441.331C523 441.697 523.077 442.099 523.115 442.465C523.229 443.234 523.419 444.002 523.571 444.771C523.8 445.906 524.143 447.004 524.257 448.138C524.295 448.358 524.333 448.541 524.447 448.724C524.675 449.126 524.675 449.566 524.561 449.968C524.295 450.737 523.153 451.322 522.163 451.213C521.516 451.139 520.564 450.298 520.45 449.639C520.221 448.358 520.031 447.077 519.688 445.796C519.574 445.43 519.307 445.1 519.307 444.698C519.346 443.71 519.003 442.795 518.927 441.806C518.889 441.367 518.698 441.221 518.28 441.221C517.252 441.221 516.3 441.55 515.348 441.843C514.853 441.989 514.32 442.063 513.863 442.392C513.597 442.575 513.254 442.795 513.368 443.051C513.711 443.783 513.901 444.551 514.168 445.32C514.472 446.162 514.815 447.004 515.082 447.882C515.424 449.017 515.729 450.115 516.186 451.213C516.604 452.274 516.224 453.079 515.043 453.628C514.168 454.031 512.988 453.701 512.531 452.823C512.34 452.494 512.226 452.091 512.112 451.725C511.807 450.737 511.541 449.749 511.122 448.797C510.589 447.516 510.094 446.198 509.79 444.844C509.713 444.478 509.561 444.185 509.295 443.966C509.028 443.746 508.8 444.039 508.533 444.149C508.457 444.185 508.419 444.185 508.343 444.185C506.477 444.917 504.726 445.759 502.746 446.747ZM495.475 546.116C495.094 546.482 494.713 546.774 494.409 547.104C493.609 548.019 492.734 548.897 491.896 549.776C490.183 551.532 488.317 553.106 486.566 554.79C485.957 555.375 485.957 555.449 486.566 555.998C487.632 556.949 488.698 557.937 489.802 558.889C490.411 559.438 490.602 559.401 491.135 558.743C491.896 557.791 492.657 556.839 493.381 555.888C494.295 554.643 495.322 553.472 496.122 552.155C496.503 551.532 497.036 551.093 497.949 551.203C498.749 551.313 499.168 551.642 499.548 552.264C500.005 552.996 500.043 553.143 499.51 553.765C498.939 554.497 498.444 555.229 497.835 555.961C496.617 557.425 495.627 559.072 494.256 560.426C494.066 560.609 493.876 560.865 493.762 561.085C493.609 561.378 493.571 561.634 493.99 561.89C495.665 562.988 497.34 564.086 499.053 565.147C499.777 565.587 499.815 565.587 500.234 564.855C500.652 564.049 501.033 563.208 501.452 562.403C502.213 560.865 503.051 559.328 504.041 557.901C504.916 556.656 505.716 556.473 507.048 557.425C507.772 557.937 507.81 558.34 507.429 559.145C507.353 559.328 507.277 559.475 507.201 559.621C505.906 562.037 504.764 564.489 503.317 566.831C503.165 567.051 503.165 567.27 503.508 567.417C504.117 567.709 504.688 568.112 505.297 568.405C506.439 568.954 507.62 569.466 508.8 569.979C509.485 570.271 509.561 570.271 509.828 569.613C509.942 569.283 510.094 568.99 510.17 568.661C510.513 567.27 511.008 565.953 511.389 564.562C511.693 563.464 512.112 562.366 512.455 561.268C512.607 560.756 512.988 560.463 513.521 560.426C514.663 560.353 515.386 561.012 516.071 561.78C516.224 561.927 516.224 562.146 516.148 562.293C515.843 562.732 515.881 563.244 515.729 563.683C515.082 565.587 514.434 567.49 513.825 569.393C513.711 569.722 513.521 570.052 513.521 570.418C513.483 571.077 513.597 571.223 514.206 571.406C515.005 571.662 515.805 571.918 516.642 572.138C517.061 572.248 517.48 572.467 517.899 572.504C518.66 572.614 518.813 572.541 518.927 571.845C519.041 571.15 519.269 570.491 519.422 569.796C519.726 568.222 520.107 566.648 520.488 565.074C520.678 564.269 520.945 563.464 521.934 563.098C522.658 562.805 523.267 562.915 523.838 563.318C524.295 563.683 524.371 564.159 524.295 564.708C524.181 565.623 523.952 566.502 523.838 567.417C523.724 568.624 523.381 569.796 523.191 571.003C523.077 571.662 523.038 572.321 523 573.016C523 573.309 523.077 573.565 523.457 573.565C524.485 573.639 525.513 574.005 526.541 573.968C526.846 573.968 527.15 574.041 527.493 574.114C528.711 574.297 529.929 574.371 531.186 574.297C531.681 574.261 531.871 574.041 531.833 573.602C531.833 573.419 531.833 573.236 531.833 573.053C531.833 569.796 531.833 566.538 531.833 563.281C531.833 562.768 531.833 562.256 531.833 561.744C531.833 561.341 531.719 561.085 531.224 561.122C531.11 561.122 530.957 561.122 530.843 561.122C529.168 561.158 527.493 561.085 525.856 560.719C524.523 560.426 523.115 560.316 521.782 559.95C520.83 559.694 519.84 559.511 518.889 559.182C518.051 558.889 517.214 558.523 516.376 558.267C514.625 557.718 512.911 557.059 511.236 556.327C509.637 555.632 508.038 554.826 506.515 553.985C505.183 553.253 503.927 552.411 502.67 551.569C501.49 550.8 500.348 549.995 499.244 549.08C498.444 548.421 497.493 547.982 496.807 547.214C496.503 546.774 495.932 546.555 495.475 546.116ZM577.29 559.255C577.709 558.962 578.052 558.743 578.356 558.486C579.498 557.608 580.564 556.693 581.554 555.668C582.011 555.192 582.011 555.156 581.44 554.717C580.869 554.241 580.298 553.728 579.727 553.216C577.48 551.24 575.463 549.044 573.293 546.994C572.531 546.262 572.189 546.262 571.351 546.994C570.437 547.836 569.447 548.604 568.458 549.373C565.298 551.752 561.985 553.911 558.369 555.595C556.96 556.254 555.551 556.913 554.067 557.352C552.353 557.864 550.64 558.523 548.889 558.999C547.633 559.365 546.338 559.658 545.082 559.914C544.168 560.097 543.254 560.28 542.303 560.426C540.513 560.682 538.686 560.902 536.858 561.048C535.983 561.122 535.945 561.085 535.945 561.963C535.945 565.587 535.945 569.21 535.983 572.833C535.983 574.041 536.325 574.297 537.62 574.188C538.419 574.114 539.257 574.005 540.056 573.968C541.351 573.931 542.645 573.895 543.94 573.602C544.701 573.419 544.891 573.199 544.663 572.467C544.549 572.101 544.435 571.699 544.396 571.333C544.358 570.454 544.092 569.613 543.902 568.734C543.673 567.746 543.597 566.758 543.292 565.806C543.14 565.33 543.216 564.781 543.216 564.269C543.216 563.793 543.863 563.061 544.32 562.951C545.386 562.622 546.681 563.281 546.871 564.379C547.1 565.66 547.366 566.941 547.709 568.185C548.051 569.466 548.356 570.784 548.775 572.028C548.927 572.504 549.193 572.504 549.536 572.394C550.831 571.882 552.201 571.699 553.534 571.369C554.143 571.223 554.219 571.077 554.067 570.491C553.534 568.515 552.81 566.575 552.239 564.598C552.087 564.013 551.973 563.427 551.782 562.842C551.325 561.597 552.049 560.573 553.419 560.426C554.333 560.353 555.018 560.719 555.209 561.524C555.437 562.366 555.78 563.208 556.008 564.049C556.503 565.733 557.227 567.343 557.645 569.064C557.76 569.576 558.102 569.649 558.673 569.613C559.092 569.576 559.435 569.32 559.815 569.21C561.11 568.734 562.404 568.295 563.623 567.6C564.194 567.27 564.346 566.831 564.041 566.319C563.432 565.294 563.051 564.196 562.404 563.171C561.567 561.854 560.805 560.463 560.158 558.999C560.044 558.779 559.93 558.523 560.082 558.303C560.348 557.937 560.615 557.535 560.958 557.279C561.605 556.73 562.138 556.766 562.823 557.242C563.204 557.498 563.47 557.864 563.699 558.267C564.917 560.39 566.135 562.476 567.354 564.598C567.81 565.367 568.001 565.404 568.724 564.964C570.247 564.049 571.77 563.134 573.255 562.22C573.864 561.854 573.978 561.414 573.521 560.902C572.531 559.804 571.617 558.633 570.742 557.425C569.828 556.181 568.838 554.973 568.077 553.619C567.848 553.216 567.734 552.813 567.925 552.484C568.343 551.715 568.991 551.093 569.904 550.947C570.628 550.837 571.123 551.349 571.503 551.898C571.541 551.935 571.579 551.972 571.617 552.045C573.064 553.911 574.359 555.888 575.881 557.718C576.453 558.194 576.871 558.706 577.29 559.255ZM599.943 486.348C599.6 485.177 599.105 484.116 598.8 483.018C598.648 482.432 598.306 481.92 598.115 481.371C598.001 481.078 597.811 480.968 597.544 481.078C596.44 481.517 595.298 481.81 594.232 482.322C592.976 482.944 591.719 483.493 590.425 484.042C589.397 484.482 588.445 484.299 587.684 483.493C587.341 483.127 586.96 482.688 587.113 482.139C587.341 481.334 587.722 480.639 588.597 480.309C590.805 479.431 592.899 478.296 595.222 477.601C595.983 477.381 596.097 476.942 595.755 476.283C595.298 475.442 594.803 474.6 594.384 473.721C594.194 473.319 593.927 473.172 593.509 473.246C593.204 473.282 592.937 473.392 592.633 473.538C590.044 475.002 587.569 476.723 584.942 478.15C584.333 478.479 583.724 478.882 583.115 479.211C582.925 479.321 582.696 479.504 582.582 479.687C582.468 479.87 582.734 479.98 582.81 480.126C583.115 480.785 583.458 481.444 583.8 482.103C584.676 483.823 585.59 485.543 586.199 487.336C586.77 489.02 587.455 490.667 587.874 492.387C588.293 494.034 588.826 495.645 588.94 497.328C588.94 497.511 588.978 497.694 589.016 497.877C589.321 499.195 589.435 500.512 589.587 501.83C589.701 502.599 589.625 503.367 589.701 504.099C589.739 504.721 589.816 504.721 590.463 504.758C590.653 504.758 590.844 504.758 591.034 504.758C594.346 504.758 597.62 504.758 600.932 504.758C601.427 504.758 601.96 504.758 602.455 504.758C602.798 504.758 602.95 504.648 602.95 504.282C602.912 502.818 602.95 501.354 602.722 499.89C602.646 499.414 602.455 499.231 601.922 499.231C599.943 499.268 598.039 499.707 596.059 499.671C595.907 499.671 595.755 499.744 595.602 499.817C594.689 500.073 593.775 500.037 592.861 500C592.443 500 592.214 499.707 592.024 499.488C591.377 498.609 591.833 496.852 592.861 496.413C593.28 496.23 593.775 496.011 594.194 496.011C596.021 496.011 597.811 495.462 599.676 495.571C600.209 495.608 600.742 495.535 601.275 495.571C601.694 495.608 601.808 495.425 601.808 495.022C601.846 493.522 601.427 492.094 601.047 490.667C600.971 490.374 600.78 490.301 600.476 490.374C599.981 490.484 599.524 490.704 599.029 490.777C597.544 491.033 596.212 491.655 594.803 492.131C594.003 492.387 593.242 492.68 592.366 492.68C591.529 492.68 590.691 492.058 590.425 491.253C590.158 490.521 590.577 489.789 591.3 489.24C591.948 488.764 592.709 488.508 593.432 488.325C595.679 487.702 597.773 487.007 599.943 486.348ZM471.299 504.758C473.127 504.758 474.992 504.758 476.82 504.758C477.048 504.758 477.277 504.758 477.467 504.758C477.695 504.758 477.848 504.648 477.81 504.429C477.734 503.587 478.152 502.818 478.114 501.976C478.076 500.732 478.609 499.524 478.571 498.28C478.571 498.207 478.571 498.17 478.609 498.097C479.028 497.182 478.99 496.194 479.18 495.242C479.447 493.924 479.713 492.607 480.132 491.399C480.703 489.752 481.122 488.068 481.845 486.458C482.721 484.555 483.52 482.578 484.586 480.749C484.815 480.346 485.348 480.017 485.119 479.541C484.891 479.102 484.32 478.992 483.901 478.772C481.959 477.821 480.056 476.759 478.152 475.625C476.934 474.893 475.792 473.978 474.421 473.429C473.812 473.172 473.774 473.172 473.508 473.795C473.47 473.904 473.393 474.014 473.317 474.124C472.937 474.893 472.518 475.661 472.137 476.466C471.909 476.942 471.985 477.125 472.518 477.345C474.155 478.04 475.792 478.809 477.353 479.651C478.19 480.09 479.066 480.492 479.827 481.041C480.056 481.224 480.398 481.334 480.437 481.7C480.551 482.505 480.437 483.274 479.789 483.859C479.142 484.445 478.305 484.482 477.581 484.189C476.439 483.75 475.335 483.164 474.231 482.652C473.165 482.139 472.099 481.627 471.071 481.115C470.728 480.968 470.386 480.932 470.043 481.005C469.662 481.078 469.815 481.444 469.7 481.663C469.244 482.505 469.053 483.42 468.711 484.299C468.482 484.848 468.178 485.397 468.14 486.019C468.101 486.385 468.14 486.714 468.52 486.824C469.7 487.227 470.881 487.556 472.061 487.922C472.898 488.178 473.736 488.398 474.536 488.727C474.84 488.837 475.107 488.947 475.411 489.02C477.162 489.532 477.734 490.996 476.515 492.46C476.173 492.863 475.754 493.083 475.069 492.826C474.497 492.607 473.85 492.497 473.279 492.314C472.213 492.021 471.109 491.728 470.043 491.399C469.167 491.106 468.216 490.923 467.378 490.557C467.188 490.484 466.845 490.411 466.769 490.777C466.388 492.058 466.198 493.375 465.969 494.656C465.855 495.242 466.16 495.535 466.807 495.571C467.302 495.608 467.835 495.645 468.33 495.608C470.272 495.608 472.175 495.937 474.079 496.084C475.868 496.23 476.477 497.841 475.525 499.341C475.183 499.89 474.612 500.037 474.003 500.037C472.822 500.073 471.68 499.78 470.5 499.671C469.777 499.597 469.053 499.597 468.33 499.451C467.454 499.305 466.579 499.341 465.665 499.268C465.284 499.231 465.056 499.414 464.98 499.744C464.903 500.073 464.827 500.403 464.827 500.732C464.789 501.83 464.751 502.928 464.751 504.026C464.751 504.758 464.751 504.758 465.551 504.758C467.492 504.758 469.396 504.758 471.299 504.758ZM485.652 535.026C485.462 535.063 485.195 535.026 485.005 535.282C484.815 535.575 484.472 535.685 484.168 535.831C483.178 536.38 482.15 536.892 481.16 537.405C479.789 538.1 478.457 538.942 477.086 539.601C476.325 539.967 475.64 540.406 474.84 540.735C474.193 541.028 474.155 541.284 474.612 541.833C474.916 542.199 475.183 542.565 475.449 542.931C476.477 544.395 477.391 545.969 478.533 547.36C479.066 547.982 479.599 548.604 480.094 549.227C480.855 550.215 481.655 551.166 482.569 552.045C483.14 552.594 483.368 552.557 483.977 552.008C484.244 551.789 484.396 551.496 484.624 551.24C486.185 549.812 487.746 548.348 489.307 546.957C490.335 546.042 491.439 545.201 492.467 544.286C493.038 543.773 493 543.663 492.505 543.114C491.515 542.016 490.564 540.882 489.574 539.747C488.47 538.43 487.442 537.039 486.566 535.575C486.338 535.209 486.109 534.989 485.652 535.026ZM582.163 535.136C581.897 534.989 581.783 535.246 581.592 535.392C581.364 535.612 581.211 535.868 581.021 536.124C579.879 537.771 578.737 539.418 577.48 540.955C576.833 541.76 576.148 542.529 575.463 543.334C575.006 543.92 575.044 544.103 575.615 544.505C577.404 545.823 578.965 547.397 580.678 548.824C581.897 549.885 583.001 551.093 584.181 552.155C584.866 552.74 584.981 552.704 585.59 552.045C587.113 550.361 588.559 548.641 589.93 546.848C590.996 545.457 592.024 544.103 592.976 542.639C593.965 541.101 593.851 541.431 592.443 540.626C589.511 538.979 586.541 537.368 583.61 535.685C583.191 535.392 582.772 535.063 582.163 535.136ZM475.906 469.549C476.287 469.549 476.401 469.769 476.591 469.878C479.751 471.708 482.721 473.795 485.728 475.844C486.147 476.1 486.452 476.576 486.985 476.576C487.594 476.576 487.632 475.917 487.937 475.551C489.117 474.087 490.259 472.623 491.515 471.233C492.086 470.574 492.086 470.537 491.439 469.915C489.612 468.158 487.822 466.401 486.033 464.608C485.234 463.803 484.396 463.071 483.558 462.302C482.949 461.753 482.34 461.79 481.807 462.375C481.35 462.924 480.855 463.473 480.398 464.022C478.952 465.779 477.619 467.719 475.906 469.549ZM575.653 470.574C576.491 471.599 577.328 472.55 578.128 473.538C578.851 474.417 579.574 475.295 580.336 476.174C580.526 476.393 580.678 476.576 581.097 476.283C581.478 475.954 581.973 475.698 582.392 475.405C585.247 473.319 588.255 471.452 591.262 469.659C591.605 469.476 591.643 469.329 591.415 469.037C590.615 467.975 589.778 466.914 588.978 465.816C588.102 464.645 586.998 463.693 586.199 462.449C586.047 462.229 585.818 462.083 585.59 461.9C585.019 461.534 584.828 461.534 584.409 462.046C583.876 462.778 583.191 463.364 582.582 463.986C580.336 466.218 578.052 468.341 575.653 470.574ZM539.485 507.174C539.485 504.465 536.782 501.72 534.117 501.793C530.995 501.903 528.521 503.953 528.445 507.1C528.368 509.589 531.376 512.517 534.079 512.517C536.858 512.517 539.638 509.809 539.485 507.174Z" fill="#E9CC97"/>
<path d="M533.896 504.317C535.647 504.098 536.714 505.855 536.828 507.172C536.942 508.343 535.533 509.88 534.048 509.88C532.448 509.844 531.154 508.782 531.115 507.355C531.001 505.855 532.296 504.134 533.896 504.317Z" fill="#E9CC97"/>
<path d="M306.853 752.62V681.456H318.794V742.69H349.691V752.62H306.853Z" fill="#E9CC97"/>
<path d="M409.097 698.736V752.62H399.893L398.301 745.367H397.654C396.493 747.217 395.017 748.758 393.226 749.991C391.434 751.192 389.444 752.084 387.255 752.668C385.066 753.285 382.761 753.593 380.339 753.593C376.193 753.593 372.644 752.912 369.692 751.549C366.773 750.154 364.534 748.012 362.975 745.124C361.416 742.236 360.637 738.504 360.637 733.928V698.736H372.379V731.787C372.379 735.973 373.241 739.104 374.966 741.181C376.724 743.258 379.444 744.296 383.126 744.296C386.675 744.296 389.494 743.582 391.584 742.155C393.673 740.727 395.149 738.617 396.012 735.827C396.907 733.036 397.355 729.612 397.355 725.556V698.736H409.097Z" fill="#E9CC97"/>
<path d="M438.054 725.069L419.645 698.736H432.979L445.567 717.671L458.204 698.736H471.489L452.98 725.069L472.434 752.62H459.05L445.567 732.419L432.034 752.62H418.749L438.054 725.069Z" fill="#E9CC97"/>
<path d="M504.177 753.593C498.97 753.593 494.459 752.604 490.644 750.624C486.83 748.645 483.894 745.611 481.838 741.522C479.781 737.433 478.753 732.241 478.753 725.945C478.753 719.39 479.881 714.036 482.136 709.882C484.392 705.729 487.51 702.662 491.49 700.683C495.503 698.703 500.097 697.713 505.272 697.713C508.556 697.713 511.524 698.038 514.178 698.687C516.865 699.304 519.137 700.066 520.994 700.975L517.511 710.126C515.488 709.315 513.415 708.633 511.292 708.081C509.169 707.53 507.129 707.254 505.172 707.254C501.955 707.254 499.268 707.952 497.112 709.347C494.989 710.742 493.397 712.819 492.336 715.578C491.308 718.336 490.793 721.759 490.793 725.848C490.793 729.807 491.324 733.149 492.386 735.875C493.447 738.569 495.022 740.613 497.112 742.008C499.202 743.371 501.772 744.053 504.824 744.053C507.842 744.053 510.546 743.696 512.934 742.982C515.322 742.268 517.578 741.343 519.701 740.207V750.137C517.611 751.306 515.372 752.166 512.984 752.717C510.596 753.301 507.66 753.593 504.177 753.593Z" fill="#E9CC97"/>
<path d="M544.329 676.88V695.912C544.329 697.892 544.262 699.823 544.13 701.705C544.03 703.587 543.914 705.047 543.781 706.086H544.428C545.589 704.204 547.015 702.662 548.707 701.462C550.399 700.228 552.289 699.304 554.379 698.687C556.502 698.07 558.757 697.762 561.146 697.762C565.358 697.762 568.94 698.46 571.893 699.855C574.845 701.218 577.1 703.344 578.659 706.232C580.251 709.12 581.047 712.868 581.047 717.476V752.62H569.355V719.618C569.355 715.431 568.476 712.3 566.718 710.223C564.96 708.114 562.24 707.059 558.558 707.059C555.009 707.059 552.19 707.789 550.1 709.25C548.044 710.677 546.568 712.803 545.672 715.626C544.777 718.417 544.329 721.824 544.329 725.848V752.62H532.637V676.88H544.329Z" fill="#E9CC97"/>
<path d="M646.175 725.556C646.175 730.034 645.578 734.009 644.384 737.482C643.19 740.954 641.449 743.891 639.16 746.292C636.871 748.661 634.118 750.478 630.901 751.744C627.683 752.977 624.051 753.593 620.005 753.593C616.223 753.593 612.757 752.977 609.606 751.744C606.455 750.478 603.719 748.661 601.397 746.292C599.108 743.891 597.333 740.954 596.073 737.482C594.813 734.009 594.182 730.034 594.182 725.556C594.182 719.618 595.227 714.588 597.317 710.467C599.44 706.313 602.458 703.149 606.372 700.975C610.286 698.801 614.946 697.713 620.353 697.713C625.428 697.713 629.906 698.801 633.787 700.975C637.667 703.149 640.702 706.313 642.892 710.467C645.081 714.62 646.175 719.65 646.175 725.556ZM606.223 725.556C606.223 729.483 606.704 732.841 607.666 735.632C608.661 738.423 610.187 740.564 612.243 742.057C614.3 743.517 616.953 744.248 620.204 744.248C623.454 744.248 626.108 743.517 628.164 742.057C630.221 740.564 631.73 738.423 632.692 735.632C633.654 732.841 634.135 729.483 634.135 725.556C634.135 721.63 633.654 718.303 632.692 715.578C631.73 712.819 630.221 710.726 628.164 709.298C626.108 707.838 623.438 707.108 620.154 707.108C615.311 707.108 611.779 708.698 609.556 711.878C607.334 715.058 606.223 719.618 606.223 725.556Z" fill="#E9CC97"/>
<path d="M688.317 697.713C694.52 697.713 699.346 699.287 702.796 702.435C706.278 705.55 708.02 710.564 708.02 717.476V752.62H696.328V719.618C696.328 715.431 695.449 712.3 693.691 710.223C691.933 708.114 689.213 707.059 685.531 707.059C680.191 707.059 676.476 708.666 674.386 711.878C672.329 715.091 671.301 719.747 671.301 725.848V752.62H659.609V698.736H668.714L670.356 706.037H671.003C672.197 704.155 673.673 702.614 675.431 701.413C677.222 700.18 679.212 699.255 681.401 698.638C683.624 698.022 685.929 697.713 688.317 697.713Z" fill="#E9CC97"/>
<path d="M773.148 725.556C773.148 730.034 772.551 734.009 771.357 737.482C770.163 740.954 768.421 743.891 766.132 746.292C763.844 748.661 761.091 750.478 757.873 751.744C754.656 752.977 751.024 753.593 746.977 753.593C743.196 753.593 739.73 752.977 736.579 751.744C733.427 750.478 730.691 748.661 728.369 746.292C726.08 743.891 724.306 740.954 723.045 737.482C721.785 734.009 721.155 730.034 721.155 725.556C721.155 719.618 722.2 714.588 724.289 710.467C726.412 706.313 729.431 703.149 733.345 700.975C737.259 698.801 741.919 697.713 747.325 697.713C752.4 697.713 756.878 698.801 760.759 700.975C764.64 703.149 767.675 706.313 769.864 710.467C772.053 714.62 773.148 719.65 773.148 725.556ZM733.195 725.556C733.195 729.483 733.676 732.841 734.638 735.632C735.633 738.423 737.159 740.564 739.216 742.057C741.272 743.517 743.926 744.248 747.176 744.248C750.427 744.248 753.08 743.517 755.137 742.057C757.193 740.564 758.703 738.423 759.664 735.632C760.626 732.841 761.107 729.483 761.107 725.556C761.107 721.63 760.626 718.303 759.664 715.578C758.703 712.819 757.193 710.726 755.137 709.298C753.08 707.838 750.41 707.108 747.126 707.108C742.284 707.108 738.751 708.698 736.529 711.878C734.306 715.058 733.195 719.618 733.195 725.556Z" fill="#E9CC97"/>
<defs>
<linearGradient id="paint0_linear_1786_2529" x1="1.15864e-06" y1="39.1086" x2="1753.08" y2="-371.493" gradientUnits="userSpaceOnUse">
<stop stop-color="#1B120D"/>
<stop stop-color="#1B120D"/>
<stop offset="1" stop-color="#964315"/>
</linearGradient>
</defs>
</svg>
