<svg width="218" height="63" viewBox="0 0 218 63" fill="none" xmlns="http://www.w3.org/2000/svg">
<path d="M21.9696 4.09199C22.1485 4.11349 22.3162 4.01677 22.4726 3.96305C22.7856 3.86633 23.1098 3.79112 23.4228 3.70515C23.624 3.64068 23.8363 3.60844 24.0375 3.55471C24.2723 3.49023 24.5294 3.46874 24.7641 3.39352C24.9765 3.3183 25.2112 3.27532 25.4459 3.26457C25.8036 3.24308 26.139 3.12488 26.4967 3.13563C26.6196 3.13563 26.6867 3.0819 26.709 2.97444C26.7984 2.48014 27.0332 2.05031 27.3238 1.66346C27.8156 1.00798 28.4528 0.524419 29.2464 0.24503C29.85 0.0301161 30.4536 -0.0236138 31.0907 0.00862334C31.5267 0.0301148 31.9291 0.137572 32.3315 0.277266C32.678 0.395469 32.9798 0.599638 33.2592 0.825298C33.5945 1.10469 33.9522 1.37333 34.1534 1.77092C34.3211 2.09329 34.5223 2.39417 34.5782 2.75953C34.6117 2.95295 34.7123 3.0819 34.9471 3.11414C35.2153 3.14637 35.4948 3.18935 35.7742 3.23234C36.389 3.32905 36.9926 3.46874 37.5962 3.59769C38.1327 3.7159 38.6581 3.86633 39.1834 4.02752C39.8429 4.23169 40.4912 4.4466 41.1396 4.67226C41.5196 4.80121 41.8885 4.9624 42.2573 5.12358C42.8162 5.34924 43.3751 5.5749 43.9116 5.8328C44.3811 6.05846 44.8506 6.27338 45.3089 6.53127C45.6554 6.72469 46.0242 6.91812 46.3708 7.11154C46.4937 7.17601 46.5943 7.29422 46.7396 7.32645C46.762 7.35869 46.8067 7.35869 46.8402 7.34795C46.8626 7.47689 46.9855 7.46615 47.0638 7.49839C47.0638 7.57361 47.1197 7.56286 47.1756 7.56286C47.2538 7.68106 47.3768 7.75628 47.5221 7.77777C47.5444 7.89598 47.6338 7.89598 47.7344 7.89598C47.7344 7.99269 47.8015 7.99269 47.8686 7.99269C47.8798 8.03567 47.9021 8.06791 47.9468 8.0894C48.3269 8.33655 48.7069 8.59445 49.087 8.85234C49.2546 8.97055 49.3999 9.12099 49.6011 9.20695L49.6123 9.22845L49.6347 9.2177C49.6459 9.27143 49.6906 9.29292 49.7353 9.29292H49.7465C49.78 9.41112 49.8471 9.50783 49.9924 9.50783C50.1041 9.65827 50.2383 9.79797 50.4283 9.86244C50.4283 9.92692 50.473 9.93766 50.5289 9.92692C50.5401 10.0021 50.596 10.0451 50.6742 10.0451C50.663 10.1203 50.7077 10.1418 50.7748 10.1311C50.9872 10.4105 51.2666 10.6039 51.5684 10.7866C51.6355 10.9478 51.792 11.023 51.9149 11.1412C52.0714 11.2809 52.1497 11.485 52.3173 11.5818C52.4515 11.657 52.5521 11.7644 52.6639 11.8504C52.6639 11.8826 52.675 11.8934 52.7086 11.8826C52.6974 11.9579 52.7533 11.9901 52.798 12.0438C53.0663 12.334 53.4128 12.5489 53.6699 12.8498C53.7146 12.8927 53.7369 12.9572 53.8152 12.9572C53.8263 13.0754 53.9046 13.1291 54.0052 13.1614C54.0052 13.2258 54.0499 13.2581 54.0834 13.3011C54.3182 13.5805 54.5529 13.8491 54.7876 14.1177C54.9106 14.2574 54.9888 14.4186 55.1453 14.5261L55.1565 14.5368C55.1565 14.6121 55.1789 14.655 55.2571 14.655C55.2571 14.7195 55.2683 14.7732 55.3577 14.7625C55.3689 14.7947 55.38 14.827 55.4024 14.8592C55.4248 14.9774 55.4807 15.0526 55.6036 15.0956L55.626 15.0849C55.626 15.0849 55.6148 15.0956 55.6036 15.0956C55.7713 15.4287 55.9837 15.7189 56.2519 15.9768C56.2407 16.0305 56.2743 16.0842 56.2966 16.1272C56.5761 16.4711 56.7773 16.8686 57.0344 17.234C57.1461 17.3844 57.1797 17.5886 57.3697 17.6961L57.3809 17.7068C57.4032 17.868 57.4479 18.0292 57.6156 18.1151C57.6268 18.2871 57.705 18.4268 57.8503 18.5342C57.8727 18.7062 57.9398 18.8566 58.0851 18.9641C58.1521 19.2864 58.3533 19.5551 58.5098 19.8345C58.5098 19.8452 58.521 19.8452 58.5322 19.8452L58.521 19.856L58.5322 19.8667C58.5434 20.0279 58.6104 20.1783 58.7334 20.2858C58.7222 20.3503 58.7446 20.4147 58.7781 20.4685C58.8787 20.7264 58.9793 20.9735 59.1134 21.2207C59.1023 21.3066 59.1917 21.3496 59.214 21.4248C59.2476 21.5538 59.337 21.7687 59.4041 21.8547C59.4041 21.8976 59.4041 21.9299 59.4376 21.9621C59.4264 22.0373 59.4264 22.1126 59.4599 22.1663C59.5605 22.349 59.6053 22.5424 59.6723 22.7358C59.7953 23.1012 59.9294 23.4665 60.0412 23.8426C60.1418 24.1865 60.2647 24.5303 60.343 24.8849C60.3765 25.0461 60.4212 25.2181 60.4771 25.3685C60.6113 25.7231 60.6783 26.0885 60.7566 26.4431C60.8236 26.7225 60.8683 27.0233 60.9242 27.3027C61.0025 27.7433 61.0919 28.1946 61.1254 28.6459C61.1366 28.7212 61.1254 28.7964 61.2149 28.8609C61.4272 29.0113 61.6284 29.194 61.8967 29.2692C61.8967 29.3229 61.9302 29.3444 61.975 29.3659C62.545 29.7205 62.9809 30.1933 63.361 30.7306C63.8081 31.3431 64.0764 32.0201 64.1546 32.7616C64.1881 33.0302 64.2664 33.2881 64.2329 33.5567C64.1658 34.094 64.1211 34.6313 63.9422 35.1579C63.7522 35.7274 63.4392 36.2217 63.0592 36.6837C62.6121 37.2318 62.042 37.6401 61.349 37.8873C61.1031 37.9732 60.969 38.1344 61.0248 38.3923C60.8795 39.0048 60.7789 39.6281 60.6001 40.2406C60.4995 40.5844 60.4101 40.9283 60.3318 41.2722C60.2312 41.6698 60.1083 42.0673 59.9629 42.4542C59.8624 42.7336 59.7729 43.0022 59.6835 43.2816C59.5717 43.6362 59.4376 43.9801 59.2923 44.3239C59.0576 44.8827 58.8116 45.4308 58.5657 45.9788C58.1745 46.8384 57.7833 47.6874 57.2691 48.4825C57.2356 48.5363 57.202 48.59 57.2132 48.6545C56.9673 48.8371 56.8555 49.1165 56.6879 49.3529C56.632 49.4389 56.4978 49.5034 56.5537 49.6431C56.3972 49.7398 56.1513 50.1051 56.1066 50.2771L56.0954 50.2878C55.9613 50.363 55.8495 50.449 55.7936 50.5887C55.7601 50.6747 55.7042 50.7391 55.6483 50.8036C55.2459 51.2657 54.8659 51.7492 54.4411 52.2006C54.0611 52.6089 53.6922 53.0495 53.3122 53.4578C53.0998 53.6835 52.8651 53.8876 52.6527 54.1133C52.0826 54.6936 51.4455 55.1986 50.8195 55.7251C50.3724 56.1012 49.8918 56.4559 49.4111 56.7997C49.3217 56.8642 49.1987 56.9287 49.154 57.0469C49.087 57.0254 49.0534 57.0791 49.0087 57.1113C48.7293 57.3048 48.461 57.5197 48.1816 57.7131C47.4997 58.1859 46.7843 58.5943 46.069 59.0026C45.4765 59.3465 44.8618 59.6581 44.2358 59.9375C43.7216 60.1631 43.2186 60.3995 42.6933 60.6144C42.1679 60.8294 41.6314 61.0335 41.0948 61.2269C40.8266 61.3237 40.5583 61.4311 40.2677 61.4956C40.0888 61.5386 39.9212 61.6138 39.7423 61.6568C39.4405 61.7427 39.1275 61.8287 38.8257 61.9147C38.6357 61.9684 38.4345 62.0221 38.2333 62.0651C37.9651 62.1188 37.708 62.2048 37.4397 62.2585C37.205 62.3015 36.9591 62.3123 36.7355 62.3875C36.4449 62.4842 36.1207 62.409 35.8525 62.5594C35.4724 62.5272 35.1259 62.6776 34.7459 62.6776C34.6676 62.6776 34.567 62.6669 34.5447 62.7743C34.5111 62.7528 34.4776 62.7528 34.4329 62.7743C34.2093 62.7313 33.9858 62.7743 33.7734 62.7851C33.4269 62.8066 33.0915 62.9033 32.7339 62.8925C32.5103 62.8818 32.2867 62.9033 32.0632 62.9248C31.9961 62.9248 31.9067 62.914 31.862 63C31.8285 62.9785 31.7949 62.9785 31.7502 63C31.6049 62.8925 31.549 62.8925 31.4037 63C31.3255 62.9785 31.2584 62.9785 31.1801 63C31.1466 62.9463 31.1019 62.9355 31.0684 63C31.0348 62.9785 31.0013 62.9785 30.9678 63C30.8448 62.8818 30.8113 62.8818 30.733 63C30.6213 63 30.5207 63 30.4089 63C30.2636 62.8818 29.9792 63 29.9792 63L29.9618 63C29.9618 63 29.7606 62.914 29.66 62.9033C29.3917 62.8925 29.1234 62.9033 28.8552 62.8925C28.6093 62.8818 28.341 62.914 28.1062 62.8496C27.7597 62.7636 27.4132 62.7743 27.0667 62.7851C27.0332 62.7636 26.9885 62.7636 26.9549 62.7743C26.9438 62.6991 26.8767 62.6776 26.8096 62.6669C26.3737 62.6131 25.9378 62.5379 25.5018 62.4627C24.9765 62.3767 24.4511 62.2693 23.9369 62.1511C23.4786 62.0436 23.0315 61.9362 22.5732 61.8287C22.1261 61.7213 21.6902 61.603 21.2654 61.4526C20.7736 61.2807 20.2594 61.141 19.7788 60.9368C19.2646 60.7327 18.7393 60.5392 18.2363 60.3028C17.7109 60.0557 17.1856 59.7978 16.6602 59.5399C16.2019 59.3035 15.7548 59.0563 15.3189 58.8092C14.827 58.5298 14.3464 58.2289 13.8657 57.928C13.3963 57.6379 12.9268 57.337 12.4909 57.0039C12.2673 56.832 12.0438 56.6493 11.809 56.4774C11.2054 56.026 10.6465 55.521 10.0541 55.0589C9.47288 54.5968 8.94752 54.0703 8.42216 53.5545C7.98623 53.1247 7.5503 52.7056 7.1479 52.2328C6.6449 51.6418 6.18661 51.0185 5.72832 50.3953C5.69479 50.3523 5.68361 50.2986 5.60536 50.3093L5.59418 50.2986C5.60536 50.2126 5.57183 50.1481 5.50476 50.0837C5.39298 49.9547 5.30356 49.815 5.20296 49.6753C4.74467 49.0521 4.35345 48.3751 3.95105 47.7196C3.41451 46.8384 2.9674 45.9143 2.55383 44.9794C2.38616 44.5926 2.24085 44.195 2.07318 43.7974C1.82727 43.2171 1.60371 42.6154 1.43605 42.0029C1.41369 41.9384 1.38016 41.8954 1.32427 41.8524C1.33545 41.8094 1.32427 41.7772 1.31309 41.745C1.32427 41.5301 1.22367 41.3366 1.1566 41.1325C1.056 40.7886 0.955401 40.4447 0.888334 40.1009C0.843623 39.8537 0.776556 39.6173 0.720667 39.3809C0.664778 39.08 0.597713 38.7684 0.541824 38.4675C0.452401 37.9947 0.351802 37.5219 0.295913 37.0491C0.284735 36.9739 0.240023 36.9201 0.195312 36.8557C0.217667 36.759 0.20649 36.673 0.184135 36.587C0.228846 36.3399 0.117067 36.1142 0.105889 35.8778C0.0611778 35.1256 0.0500013 34.3842 0.016468 33.632C-0.00588759 32.912 -0.0170661 32.192 0.0611785 31.4721C0.117067 30.9993 0.0611785 30.505 0.172956 30.0321C0.20649 29.9139 0.20649 29.785 0.172956 29.656C0.195312 29.5808 0.20649 29.5056 0.184135 29.4411C0.262379 29.2907 0.284734 29.1403 0.284734 28.9683C0.295912 28.7104 0.284734 28.4525 0.385334 28.2054C0.418867 28.1302 0.418868 28.0334 0.396512 27.9367C0.418868 27.883 0.418868 27.8293 0.407691 27.7648C0.441224 27.7218 0.485934 27.6788 0.497111 27.6359C0.508289 27.3994 0.586535 27.1738 0.631246 26.9374C0.709491 26.5076 0.821268 26.0992 0.921868 25.6801C0.977757 25.433 1.07836 25.1858 1.06718 24.9279C1.08953 24.8957 1.08954 24.8635 1.07836 24.8205C1.16778 24.7882 1.16778 24.713 1.17896 24.6378C1.19013 24.5626 1.19013 24.4981 1.22367 24.4229C1.34662 24.122 1.41369 23.8104 1.50311 23.5095C1.64842 23.0044 1.82727 22.5101 2.00611 22.0266C2.19614 21.5323 2.40851 21.038 2.62089 20.5544C2.92269 19.8989 3.23567 19.2434 3.571 18.5987C3.69396 18.3623 3.83927 18.1366 3.9734 17.911C4.10754 17.6853 4.25285 17.4597 4.39816 17.234C4.54347 17.0083 4.68878 16.7719 4.85645 16.557C5.01294 16.3529 5.12472 16.1164 5.30356 15.923C5.46005 15.7511 5.57183 15.5362 5.71714 15.3642C5.86245 15.1923 5.95187 14.9989 6.10836 14.827C6.26485 14.6658 6.41016 14.4616 6.5443 14.2682C6.68961 14.064 6.91316 13.9028 7.00259 13.6557C7.08083 13.6449 7.11436 13.6127 7.10319 13.5375C7.22614 13.5052 7.28203 13.4193 7.32674 13.3011C7.47205 13.2366 7.5503 13.1184 7.61736 13.0002C7.67325 12.968 7.74032 12.9572 7.74032 12.882C7.84092 12.7745 7.94152 12.6563 8.04212 12.5489C8.10919 12.4951 8.20979 12.4522 8.22096 12.3447C8.29921 12.3447 8.32156 12.3017 8.33274 12.2372C8.4557 12.2265 8.47806 12.119 8.52277 12.0438C8.57866 12.0223 8.6569 12.0116 8.64572 11.9256L8.6569 11.9149C8.76868 11.9149 8.79103 11.8182 8.83574 11.7429C9.02577 11.6032 9.20461 11.4743 9.32757 11.2701C9.40581 11.2701 9.43934 11.2271 9.4617 11.1627C9.65172 11.0552 9.79704 10.9048 9.91999 10.7436C9.99823 10.7543 10.0206 10.6899 10.0318 10.6361C10.1547 10.6146 10.233 10.5394 10.2777 10.432C10.4565 10.3675 10.5907 10.2493 10.6801 10.0988C10.7583 10.1096 10.7807 10.0559 10.7919 9.99139C10.9483 9.92692 11.0713 9.81946 11.1943 9.712C11.2837 9.63678 11.4178 9.60455 11.4513 9.46485C11.5184 9.46485 11.5743 9.45411 11.5631 9.36814C11.6414 9.35739 11.7084 9.34665 11.7196 9.24994H11.7308C11.8649 9.2177 11.9655 9.14248 12.0326 9.02428C12.1108 9.03502 12.1555 8.99204 12.1779 8.92756C12.312 8.89533 12.4238 8.83085 12.4797 8.70191C12.5356 8.70191 12.6138 8.71265 12.5803 8.61594C12.625 8.63743 12.6585 8.61594 12.6809 8.59445C12.8039 8.57296 12.8933 8.50848 12.938 8.39028C13.0162 8.39028 13.0609 8.35804 13.0721 8.28282C13.1392 8.27208 13.2174 8.27208 13.2286 8.17536L13.2398 8.16462C13.3851 8.14313 13.4745 8.05716 13.5639 7.96045C13.6198 7.94971 13.7093 7.9712 13.6981 7.87449C13.8769 7.79927 14.0446 7.72405 14.1452 7.55211C14.3687 7.51988 14.5364 7.38018 14.7041 7.24049C14.8047 7.219 14.9053 7.20825 14.9276 7.10079C14.9388 7.11154 14.95 7.11154 14.9612 7.09005C15.0282 7.09005 15.1065 7.09005 15.1177 7.00408L15.1288 6.99334C15.1959 6.99334 15.2741 7.00408 15.2965 6.90737C15.33 6.92886 15.3412 6.90737 15.3524 6.88588C15.4753 6.8429 15.5983 6.79991 15.6765 6.68171C15.7101 6.68171 15.7548 6.68171 15.7883 6.66022C15.9784 6.55276 16.1684 6.44531 16.3696 6.33785C16.4366 6.34859 16.5037 6.33785 16.5037 6.25188C16.6043 6.24114 16.7049 6.26263 16.7496 6.13368C16.7831 6.14443 16.8055 6.13368 16.8167 6.11219C16.8949 6.12293 16.9508 6.10144 16.962 6.02622C16.9955 6.03697 17.0179 6.03697 17.0402 6.01548C17.1073 6.02622 17.1632 6.00473 17.1744 5.92951C17.2526 5.91877 17.3644 5.96175 17.3979 5.84355C17.4762 5.81131 17.588 5.84355 17.6327 5.73609H17.655L17.6662 5.7146C17.6997 5.70385 17.7444 5.69311 17.778 5.68236C17.845 5.68236 17.9233 5.69311 17.9345 5.59639C17.9568 5.58565 17.9792 5.58565 18.0015 5.5749C18.0462 5.58565 18.1021 5.5749 18.1357 5.54267C18.1804 5.52117 18.2363 5.48894 18.281 5.46745C18.3592 5.47819 18.4151 5.44595 18.4263 5.37073C18.4598 5.38148 18.4822 5.38148 18.5045 5.35999C18.6722 5.3385 18.8175 5.28477 18.9405 5.16657C19.0746 5.16657 19.1752 5.09135 19.287 5.03762C19.354 5.03762 19.4323 5.04836 19.4435 4.95165C19.5105 4.9624 19.5664 4.94091 19.6223 4.91942C19.7006 4.93016 19.7564 4.90867 19.7676 4.83345C19.8123 4.85494 19.857 4.83345 19.9017 4.81196C19.9353 4.81196 19.9688 4.81196 19.9688 4.76897C20.0135 4.77972 20.0359 4.74748 20.0582 4.71525C20.1365 4.7045 20.1588 4.68301 20.2706 4.62928C20.293 4.61853 20.3153 4.61853 20.3377 4.60779C20.4159 4.59704 20.5165 4.64003 20.5501 4.52182C20.5948 4.54331 20.6283 4.51108 20.673 4.50033C20.7624 4.50033 20.8407 4.51108 20.8742 4.40362C20.9078 4.41437 20.9301 4.41437 20.9525 4.39287C21.0307 4.39287 21.1313 4.42511 21.1648 4.30691C21.2096 4.29616 21.2431 4.29616 21.2878 4.28542C21.366 4.28542 21.4666 4.31765 21.5002 4.19945C21.5449 4.18871 21.5784 4.18871 21.6231 4.17796C21.7014 4.17796 21.802 4.2102 21.8355 4.09199C21.8579 4.11349 21.9138 4.10274 21.9696 4.09199ZM18.8734 54.3927C18.784 54.2745 18.6498 54.2315 18.5157 54.1885C18.5045 54.167 18.4822 54.167 18.471 54.1778C18.4598 54.1563 18.4598 54.1133 18.4375 54.1025C18.0574 53.8661 17.6886 53.6405 17.2973 53.4148C16.6714 53.0495 16.0454 52.6626 15.4753 52.222C15.2853 52.0716 15.1177 51.8997 14.8829 51.8137C14.8829 51.7707 14.8606 51.7385 14.8159 51.7063C14.5699 51.5021 14.3352 51.2979 14.1005 51.0937C13.5863 50.6532 13.1168 50.1589 12.6362 49.6968L12.625 49.6861C12.3903 49.4067 12.1555 49.138 11.8985 48.8801C11.8649 48.8371 11.8426 48.7942 11.7755 48.8049C11.7643 48.7727 11.7755 48.7297 11.7531 48.7082C11.5743 48.504 11.4066 48.3106 11.2166 48.1172C11.1048 47.999 10.9819 48.0097 10.8925 48.1387C10.8366 48.2246 10.7583 48.2999 10.6801 48.3858C10.3671 48.7082 9.98705 48.9553 9.6629 49.267C9.60701 49.3207 9.49523 49.3529 9.50641 49.4604C9.33874 49.5141 9.22697 49.6431 9.08166 49.7398C8.98106 49.8043 8.90281 49.8795 8.76867 49.901C8.42216 49.9655 7.98623 49.5679 8.0533 49.2132C8.08683 49.0413 8.18743 48.9124 8.31038 48.8157C8.56747 48.59 8.83574 48.3751 9.10401 48.1709C9.51759 47.8593 9.93116 47.5262 10.3336 47.193C10.4006 47.1393 10.4342 47.0748 10.3671 46.9889C10.3224 46.9352 10.3 46.8599 10.2553 46.8062C9.97588 46.4623 9.71879 46.097 9.50641 45.7101C9.22696 45.2266 8.99223 44.7215 8.70161 44.2487C8.3551 43.6899 8.08683 43.1097 7.80739 42.5187C7.51676 41.9277 7.29321 41.3151 7.05847 40.7026C6.95787 40.4447 6.87963 40.1868 6.80138 39.9182C6.74549 39.714 6.66725 39.5206 6.60018 39.3164C6.51076 39.0263 6.43252 38.7362 6.37663 38.446C6.33192 38.2526 6.30956 38.0592 6.25367 37.8765C6.16425 37.5864 6.11954 37.2855 6.07483 36.9954C6.04129 36.8342 6.03012 36.6623 5.99658 36.4903C5.95187 36.2754 5.92952 36.2539 5.71714 36.3184C5.46005 36.3936 5.20296 36.3721 4.94587 36.3614C4.67761 36.3506 4.42051 36.2432 4.23049 36.1035C3.89516 35.8671 3.71631 35.5125 3.61571 35.1256C3.53747 34.7925 3.49276 34.4594 3.50394 34.1155C3.51511 33.9114 3.49276 33.9114 3.28038 33.9114C2.72149 33.9114 2.1626 33.9114 1.60371 33.9114C1.36898 33.9114 1.36898 33.9114 1.36898 34.137C1.3578 34.8032 1.50311 35.4587 1.50311 36.1142C1.50311 36.1357 1.51429 36.1465 1.51429 36.1679C1.61489 36.587 1.60371 37.0169 1.68196 37.4467C1.73785 37.7368 1.82727 38.0162 1.83845 38.3171C1.83845 38.3601 1.87198 38.4031 1.91669 38.4245C1.89434 38.6072 1.90551 38.7792 1.9614 38.9511C2.05082 39.1982 2.05083 39.4561 2.14025 39.7033C2.21849 39.9504 2.2632 40.2083 2.31909 40.4555C2.38616 40.7886 2.49794 41.111 2.58736 41.4333C2.68796 41.7987 2.84445 42.1533 2.95622 42.5187C2.95622 42.5402 3.00094 42.5402 3.02329 42.5509C3.00094 42.6261 3.02329 42.6906 3.04565 42.7551C3.23567 43.2386 3.41451 43.7329 3.62689 44.2057C3.90634 44.8505 4.19696 45.4845 4.50994 46.1077C4.78938 46.6665 5.10236 47.2038 5.41534 47.7411C5.92952 48.633 6.53312 49.4604 7.18143 50.2663C7.51677 50.6854 7.8521 51.1152 8.19861 51.5236C8.42216 51.7922 8.69043 52.0286 8.93634 52.2758C9.60701 52.9742 10.3 53.662 11.0378 54.2852C12.1332 55.2308 13.3069 56.0905 14.5252 56.8857C15.5424 57.5627 16.5819 58.2074 17.7109 58.691C17.9233 58.7877 18.1245 58.9381 18.3704 58.9489C18.4822 59.0778 18.6275 59.1423 18.7952 59.153C18.8734 59.196 18.9516 59.2497 19.0411 59.282C19.7676 59.5506 20.4718 59.8408 21.2207 60.0664C21.612 60.1846 22.0032 60.3351 22.3944 60.464C22.9421 60.6467 23.5122 60.7756 24.0711 60.9153C24.2611 60.9583 24.4511 60.9798 24.6411 61.0335C24.9206 61.1195 25.2224 61.1517 25.513 61.2055C25.8036 61.2592 26.1054 61.2914 26.3849 61.3559C26.7873 61.4419 27.1897 61.4741 27.5921 61.5171C28.2404 61.5816 28.8775 61.646 29.537 61.6568C30.9007 61.6783 32.2532 61.6568 33.6057 61.5278C33.6728 61.5171 33.7399 61.5171 33.7957 61.4956C33.9969 61.4419 34.1981 61.4311 34.3993 61.4204C34.8241 61.4096 35.2489 61.3237 35.6736 61.2592C35.8972 61.227 36.1207 61.2162 36.3331 61.1625C36.579 61.098 36.8137 61.0443 37.0597 60.9906C37.4397 60.9046 37.8197 60.8401 38.1998 60.7326C38.7363 60.5822 39.2617 60.421 39.7759 60.2383C40.5248 59.9912 41.2625 59.7226 42.0002 59.4324C43.1404 58.9919 44.2134 58.4223 45.2753 57.8528C45.9907 57.466 46.7173 57.0791 47.3879 56.5955C48.2039 56.0153 49.0087 55.4135 49.8023 54.801C49.9588 54.6828 50.1712 54.6183 50.2271 54.4034C50.4059 54.3497 50.5289 54.2207 50.663 54.1025C51.2219 53.6297 51.7137 53.1032 52.2391 52.5981C52.7197 52.1361 53.1445 51.631 53.5804 51.126C53.804 50.8681 54.0499 50.6102 54.2287 50.3201C54.2399 50.2986 54.2399 50.2878 54.2511 50.2663C54.307 50.2448 54.3405 50.2126 54.3741 50.1696C54.5305 49.9332 54.6982 49.7075 54.8659 49.4711C55.2795 48.8909 55.6819 48.3106 56.0395 47.6981C56.4419 47.0211 56.7885 46.3226 57.1238 45.6134C57.2244 45.3985 57.4703 44.9042 57.4703 44.9042C57.6491 44.4744 57.8392 44.0446 58.0292 43.6147C58.1074 43.4213 58.208 43.2279 58.2639 43.0237C58.3645 42.6261 58.5098 42.25 58.644 41.8632C58.8005 41.4334 58.9011 40.9928 59.0352 40.5629C59.0911 40.391 59.2587 39.6496 59.2587 39.6496C59.3146 39.2412 59.4488 38.8544 59.527 38.4568C59.6053 38.0055 59.717 37.5541 59.7394 37.0813C59.7394 37.0491 59.7506 37.0061 59.7506 36.9739C59.8512 36.3829 59.9518 35.7919 59.9629 35.2008C59.9629 35.0719 59.9406 34.9429 59.9853 34.8247C60.0635 34.6098 60.0524 34.3842 60.0524 34.1585C60.0524 33.9006 60.0412 33.9006 59.7953 33.9006C59.2476 33.8899 58.6999 33.8899 58.1521 33.8899C57.9733 33.8899 57.9621 33.9006 57.9621 34.0725C57.9621 34.1155 57.9621 34.1585 57.9733 34.2015C57.9845 34.6958 57.8727 35.1686 57.6268 35.5984C57.4815 35.8563 57.2803 36.1035 57.012 36.2109C56.6208 36.3721 56.196 36.4151 55.7713 36.2754C55.6371 36.2324 55.5142 36.2754 55.5142 36.3936C55.5142 36.6085 55.3912 36.7912 55.4024 36.9954C55.4024 37.264 55.313 37.5112 55.2571 37.7476C55.1677 38.1129 55.0894 38.489 54.9777 38.8544C54.8659 39.2305 54.7653 39.6066 54.6535 39.9719C54.5864 40.1761 54.307 40.9713 54.307 40.9713C54.1505 41.4333 53.9493 41.8739 53.7705 42.3252C53.7369 42.336 53.5357 42.7873 53.5245 42.8303C53.4798 43.0452 53.3457 43.2386 53.2451 43.432C52.8874 44.1198 52.5074 44.7968 52.0826 45.463C51.8032 45.8928 51.5237 46.3227 51.2331 46.7525C51.1549 46.8599 51.1437 46.9889 51.0654 47.0856C51.0431 47.1178 51.0431 47.1608 51.0766 47.1823C51.2443 47.2468 51.3225 47.4295 51.479 47.4939C51.6243 47.5584 51.7473 47.6551 51.8591 47.7411C52.2615 48.0527 52.6303 48.3966 53.0439 48.6867C53.178 48.7834 53.301 48.8909 53.3792 49.0306C53.491 49.2347 53.4463 49.6108 53.1333 49.7935C52.9098 49.9332 52.5297 49.9117 52.3397 49.7183C52.2167 49.6001 52.105 49.4819 51.9373 49.4282C51.9373 49.3959 51.9373 49.3529 51.9038 49.3315C51.4567 48.9661 51.0654 48.5363 50.6295 48.1494C50.3165 47.87 50.3165 47.87 50.0818 48.2139C49.8359 48.4933 49.4447 48.9446 49.2099 49.224C49.2099 49.224 48.7404 49.729 48.6846 49.7935C47.6003 50.9433 46.3596 51.9104 45.0853 52.8453C44.247 53.4685 43.3192 53.9629 42.4026 54.4572C41.8438 54.758 41.2513 55.0052 40.6477 55.2416C40.1671 55.435 39.6753 55.6069 39.1946 55.8004C38.7251 55.9938 38.2333 56.1442 37.7415 56.2839C37.2609 56.4129 36.7802 56.5311 36.2996 56.6493C35.6624 56.8105 35.0141 56.9287 34.3658 57.0146C33.9634 57.0791 33.5387 57.0899 33.1251 57.1221C32.5885 57.1651 32.052 57.1436 31.5043 57.1758C30.9007 57.2188 30.2971 57.2403 29.6935 57.1973C29.3023 57.1651 28.911 57.1651 28.531 57.1436C28.0727 57.1221 27.6368 57.0254 27.1785 56.9931C26.9661 56.9716 26.7314 56.9502 26.519 56.8857C26.206 56.789 25.8819 56.789 25.5689 56.7137C25.3006 56.6493 25.0324 56.5848 24.7641 56.5311C24.4511 56.4666 24.1493 56.3591 23.8363 56.2947C23.5234 56.2194 23.2216 56.112 22.9086 56.0368C22.5174 55.9293 22.1485 55.7789 21.7796 55.6284C21.3884 55.4565 20.9748 55.3383 20.5948 55.1449C20.3153 55.0052 20.0359 54.844 19.7117 54.7903C19.7006 54.6613 19.5664 54.6721 19.4882 54.6398C19.3093 54.5431 19.1528 54.4142 18.9405 54.3819L18.9293 54.3604L18.8734 54.3927ZM61.3602 35.2331C61.3378 35.5125 61.2596 36.125 61.159 36.3936C61.1366 36.4473 61.1143 36.5333 61.1813 36.5655C61.2484 36.5978 61.3155 36.5655 61.3713 36.5011C61.4943 36.3721 61.6284 36.2647 61.7514 36.1357C62.0532 35.8133 62.3103 35.4587 62.4668 35.0504C62.4891 35.0182 62.4891 34.9752 62.4891 34.9429C62.6344 34.771 62.668 34.5668 62.7015 34.3627C62.7239 34.2445 62.7239 34.137 62.7462 34.0188C62.8356 33.6105 62.8468 33.2021 62.7015 32.8045C62.7015 32.7186 62.6903 32.6219 62.6903 32.5359C62.6456 32.2673 62.5338 32.0201 62.4221 31.773C62.2544 31.4183 62.0085 31.1175 61.7849 30.7951C61.662 30.6232 61.539 30.4297 61.2819 30.3868C61.2484 30.5802 61.3378 31.2464 61.3378 31.2464C61.3825 32.2565 61.3602 33.2666 61.3602 34.2767C61.3602 34.5883 61.3602 34.9107 61.3602 35.2331ZM30.6771 7.44466C29.9841 7.44466 29.3023 7.44466 28.6092 7.44466C28.4304 7.44466 28.2516 7.44466 28.0839 7.44466C27.9609 7.44466 27.8603 7.38018 27.8492 7.28347C27.8268 7.09005 27.7709 6.88588 27.8939 6.71395C27.9721 6.59575 27.9609 6.54202 27.8492 6.45605C27.6144 6.25188 27.3797 6.03697 27.2008 5.77907C26.9549 5.43521 26.7537 5.06985 26.6643 4.66152C26.6084 4.43586 26.5749 4.41437 26.3402 4.4466C26.2954 4.4466 26.2507 4.46809 26.206 4.46809C25.9266 4.53257 25.6471 4.5863 25.3677 4.65077C24.9988 4.73674 24.63 4.81196 24.2611 4.89792C23.8922 4.99463 23.5122 5.09135 23.1433 5.1988C22.8415 5.29551 22.5285 5.37074 22.2267 5.47819C21.9808 5.55341 21.7461 5.63938 21.5002 5.72534C21.0531 5.87578 20.6059 6.02622 20.1588 6.19815C19.7676 6.3486 19.3764 6.54202 18.9852 6.69246C18.3592 6.92886 17.7444 7.219 17.1408 7.50913C16.5708 7.78852 16.0119 8.0894 15.4642 8.40103C14.6817 8.86309 13.9216 9.3359 13.1951 9.87319C12.625 10.2923 12.0997 10.7651 11.5519 11.2057C10.6913 11.9149 9.87528 12.6671 9.09283 13.4623C8.71279 13.8384 8.3551 14.236 8.03094 14.655C7.70678 15.0634 7.33792 15.4395 7.01376 15.8586C6.76785 16.1702 6.56665 16.514 6.29838 16.8149C6.19778 16.9224 6.17543 17.0836 6.00776 17.148C5.91834 17.5564 5.59418 17.8358 5.40416 18.1796C5.04647 18.8136 4.64407 19.4154 4.33109 20.0601C4.14107 20.4577 3.9734 20.8661 3.79456 21.2744C3.64925 21.6182 3.48158 21.9621 3.35863 22.3275C3.21331 22.7788 3.01212 23.2194 2.8668 23.6707C2.73267 24.0683 2.57618 24.4551 2.47558 24.8527C2.33027 25.3793 2.19614 25.895 2.09554 26.4323C2.062 26.6365 2.03965 26.8407 1.97258 27.0341C1.87198 27.3672 1.82727 27.7111 1.78256 28.0549C1.73785 28.3773 1.69314 28.7104 1.63725 29.0328C1.559 29.4196 1.59254 29.8172 1.46958 30.1933C1.48076 30.967 1.3578 31.73 1.3578 32.4929C1.3578 32.6863 1.33545 32.7078 1.57018 32.7078C2.062 32.7078 2.55382 32.7078 3.04565 32.7078C3.45923 32.7078 3.48158 32.7078 3.4704 32.3102C3.4704 31.9126 3.58218 31.5365 3.74985 31.1819C3.98458 30.6661 4.44287 30.4405 4.99058 30.3438C5.05765 30.333 5.15825 30.3223 5.21414 30.3545C5.35945 30.4297 5.51594 30.419 5.67243 30.4512C5.87363 30.4942 5.92952 30.462 5.95187 30.2793C5.99658 29.9784 6.0413 29.6775 6.05247 29.3767C6.06365 29.0758 6.11954 28.7749 6.19778 28.474C6.28721 28.0979 6.38781 27.7111 6.46605 27.335C6.54429 26.9911 6.63372 26.6365 6.74549 26.3034C6.90198 25.7983 7.08083 25.2933 7.25967 24.799C7.52794 24.0468 7.8521 23.3268 8.19861 22.6069C8.56747 21.8547 9.00341 21.1347 9.4617 20.4255C9.69643 20.0601 9.9647 19.7163 10.233 19.3724C10.3447 19.222 10.3559 19.136 10.2441 19.0823C9.99823 18.9533 9.81939 18.7491 9.60701 18.5987C9.12636 18.2656 8.71279 17.868 8.26567 17.5134C8.0533 17.3415 7.97505 16.9116 8.09801 16.6752C8.28803 16.2991 8.88045 16.2561 9.14872 16.514C9.64054 16.9869 10.1659 17.4274 10.6801 17.868C10.803 17.9755 10.9036 18.1796 11.0601 18.1689C11.2166 18.1474 11.3172 17.954 11.4178 17.825C11.932 17.191 12.5132 16.6215 13.0945 16.0412C13.9999 15.1493 14.9723 14.3434 15.9783 13.5697C16.4925 13.1721 17.0626 12.8283 17.6215 12.4844C18.158 12.162 18.6945 11.8182 19.2758 11.5495C20.1365 11.1412 20.9972 10.7436 21.9026 10.4212C22.6068 10.1633 23.3222 9.92692 24.0487 9.712C24.1605 9.67977 24.2611 9.61529 24.384 9.5938C24.6411 9.55082 24.8982 9.46485 25.1665 9.42187C25.3789 9.37889 25.5912 9.31441 25.8148 9.29292C26.0942 9.24994 26.3849 9.19621 26.6531 9.14248C27.022 9.06726 27.3909 9.02428 27.7486 8.98129C28.4304 8.89533 29.1123 8.83085 29.8053 8.8416C30.3642 8.85235 30.9231 8.8416 31.4819 8.8416C32.2309 8.83085 32.9686 8.92757 33.7063 8.98129C33.7287 8.98129 33.7622 8.98129 33.7846 8.99204C34.1758 9.11024 34.5894 9.11024 34.9918 9.17472C35.2824 9.2177 35.5842 9.26068 35.8636 9.32516C36.3666 9.43262 36.8696 9.55082 37.3615 9.70126C37.7639 9.81946 38.1774 9.93766 38.5687 10.0774C39.1723 10.2923 39.7535 10.5287 40.3459 10.7866C41.3966 11.2486 42.4138 11.7859 43.4086 12.3447C43.9005 12.6241 44.3699 12.9357 44.8394 13.2473C45.2306 13.5052 45.6107 13.7954 45.9907 14.0748C47.1085 14.8914 48.1368 15.8048 49.087 16.7934C49.4446 17.1695 49.7688 17.5671 50.093 17.9647C50.3053 18.2334 50.3612 18.2334 50.6183 18.0077C50.9313 17.739 51.2331 17.4489 51.5461 17.1803C51.8367 16.9439 52.105 16.6752 52.4291 16.4711C52.5744 16.3851 52.9656 16.3636 53.111 16.4496C53.4686 16.6645 53.5357 17.1373 53.2339 17.4167C52.9209 17.7068 52.5856 17.954 52.2391 18.2011C51.8702 18.459 51.5461 18.7706 51.1996 19.05C51.0878 19.136 51.099 19.2112 51.1772 19.3187C51.3449 19.5443 51.5125 19.7807 51.6579 20.0171C52.2838 21.0165 52.9098 22.0158 53.4016 23.0797C53.614 23.531 53.8375 23.9716 53.994 24.4444C54.1617 24.9172 54.3405 25.39 54.4858 25.8736C54.6423 26.3894 54.8324 26.8944 54.933 27.4317C54.9665 27.6251 54.9888 27.84 55.0559 28.0334C55.1453 28.2806 55.1789 28.5385 55.2236 28.7856C55.2795 29.0865 55.3465 29.3767 55.3801 29.6775C55.4024 29.8925 55.4583 30.0966 55.4695 30.3115C55.4807 30.4942 55.5477 30.5265 55.7377 30.4942C55.8383 30.4727 55.9389 30.4727 56.0395 30.4512C56.5984 30.333 57.0232 30.5694 57.3697 30.9455C57.7497 31.3646 57.8615 31.8804 57.9174 32.4069C57.9286 32.4822 57.9174 32.5466 57.9174 32.6219C57.9174 32.7186 57.9621 32.7508 58.0515 32.7401C58.1521 32.7293 58.2527 32.7293 58.3533 32.7293C58.7781 32.7293 59.214 32.7401 59.6388 32.7508C60.0188 32.7616 60.0188 32.7508 59.9965 32.4069C59.9741 31.9019 59.9518 31.3861 59.9294 30.8811C59.9182 30.6554 59.9518 30.4297 59.8959 30.2148C59.7841 29.7743 59.8065 29.3122 59.717 28.8609C59.6611 28.5707 59.6164 28.2591 59.5494 27.969C59.4599 27.5391 59.3817 27.1093 59.2699 26.6902C59.1246 26.1207 58.9905 25.5512 58.8228 24.9924C58.7781 24.842 58.711 24.6915 58.6887 24.5303C58.6328 24.208 58.5098 23.8963 58.4204 23.5847C58.3198 23.2409 58.1633 22.9077 58.0292 22.5639C57.7833 21.8976 57.4927 21.2529 57.202 20.6082C56.9673 20.0816 56.6767 19.5658 56.3972 19.0608C56.0731 18.4805 55.7266 17.9217 55.3801 17.3522C55.0783 16.8472 54.7206 16.3636 54.3629 15.88C53.8822 15.2246 53.3569 14.612 52.8092 14.021C52.5744 13.7739 52.3397 13.5375 52.105 13.2903C51.7137 12.8712 51.289 12.4844 50.8642 12.0976C50.2495 11.5388 49.6011 11.0015 48.9416 10.4964C48.5616 10.2063 48.1816 9.91617 47.7792 9.64753C46.9185 9.07801 46.0466 8.54072 45.1524 8.02493C44.4594 7.61659 43.7216 7.27272 42.9839 6.93961C42.4138 6.68171 41.8326 6.44531 41.2513 6.2089C40.8266 6.03697 40.3906 5.89727 39.9659 5.74683C39.5747 5.60714 39.1723 5.48894 38.7699 5.35999C38.4681 5.26328 38.1774 5.16657 37.8756 5.10209C37.5179 5.02687 37.1714 4.90867 36.8026 4.83345C36.5343 4.77972 36.2549 4.72599 35.9866 4.67226C35.6289 4.59704 35.26 4.55406 34.8912 4.48959C34.8241 4.47884 34.7906 4.47884 34.757 4.53257C34.7123 4.59704 34.69 4.66152 34.6788 4.72599C34.6453 5.09135 34.4664 5.40297 34.254 5.68236C34.0417 5.96175 33.8516 6.26263 33.5498 6.47754C33.3933 6.585 33.3933 6.67097 33.4939 6.83215C33.6057 6.99334 33.561 7.16527 33.5051 7.32645C33.4492 7.49839 33.2704 7.47689 33.1251 7.47689C32.2979 7.44466 31.4931 7.44466 30.6771 7.44466ZM7.1479 33.2988C7.17025 34.0188 7.1479 34.771 7.23732 35.5232C7.29321 36.0497 7.3491 36.5655 7.46088 37.0813C7.50559 37.264 7.56147 37.4467 7.58383 37.6294C7.60618 37.898 7.71796 38.1452 7.77385 38.4031C7.84092 38.7147 7.9527 39.0156 8.03094 39.3272C8.14272 39.7463 8.28803 40.1546 8.44452 40.5522C8.60101 40.9713 8.76868 41.3796 8.94752 41.788C9.09283 42.1211 9.21579 42.4649 9.39463 42.7873C9.58466 43.1527 9.79703 43.5073 9.9647 43.8726C10.0318 44.0123 10.0541 44.1735 10.1659 44.3025C10.4342 44.6141 10.6242 44.9794 10.8366 45.334C11.0601 45.7209 11.2949 46.097 11.5631 46.4623C11.9655 47.0104 12.4126 47.5262 12.8821 48.042C13.318 48.5255 13.7428 49.0306 14.2346 49.4819C15.2294 50.406 16.269 51.2657 17.4091 52.0179C17.8898 52.3403 18.3928 52.6304 18.8846 52.9313C19.4658 53.2859 20.0694 53.5867 20.6842 53.8661C21.0419 54.0273 21.3996 54.1885 21.7796 54.3175C22.2714 54.4894 22.7633 54.6613 23.2663 54.8225C23.6351 54.9407 24.004 55.0589 24.3729 55.1771C24.6858 55.2738 25.01 55.349 25.3342 55.435C25.6248 55.4995 25.9154 55.5532 26.206 55.6069C26.4855 55.6607 26.7649 55.7144 27.0555 55.7681C27.3573 55.8219 27.6591 55.8863 27.9609 55.9186C28.5086 55.983 29.0675 56.0583 29.6264 56.0475C30.543 56.0368 31.4484 56.0797 32.365 56.0153C32.8345 55.983 33.3039 55.9078 33.7734 55.8541C34.3435 55.7896 34.9135 55.6822 35.4836 55.6069C35.6624 55.5854 35.8525 55.5425 36.0201 55.478C36.3331 55.3705 36.6573 55.2953 36.9702 55.1986C37.4844 55.0374 38.0209 54.9085 38.5239 54.7258C39.1946 54.4894 39.8653 54.2315 40.5248 53.9414C41.2737 53.6082 41.9891 53.2321 42.7044 52.8453C43.5651 52.3725 44.3364 51.7922 45.1188 51.2227C45.4542 50.9863 45.7783 50.7284 46.1025 50.4598C46.6055 50.0407 47.0861 49.6108 47.5444 49.1488C48.1033 48.59 48.5951 47.9775 49.1093 47.365C49.4894 46.9137 49.8582 46.4516 50.1824 45.968C50.5848 45.3663 50.9425 44.7323 51.3337 44.109C51.5908 43.7114 51.792 43.2924 52.0044 42.8625C52.2391 42.379 52.4515 41.8739 52.6639 41.3796C52.7533 41.1755 52.8315 40.9713 52.8986 40.7564C52.9992 40.4447 53.0998 40.1331 53.2004 39.8215C53.3233 39.4454 53.4687 39.0693 53.5581 38.6717C53.6587 38.2096 53.7481 37.7476 53.8152 37.2855C53.8822 36.8019 53.9828 36.3184 54.0275 35.8348C54.0275 35.8133 54.0275 35.7811 54.0387 35.7596C54.1952 35.2653 54.0946 34.7495 54.2287 34.2552C54.2064 33.3848 54.2958 32.5037 54.1505 31.6333C54.0723 31.1927 54.117 30.7521 54.0387 30.3008C53.9717 29.9139 53.8711 29.5378 53.8934 29.1403C53.8934 29.108 53.8822 29.065 53.8711 29.0328C53.7593 28.7534 53.7593 28.4525 53.7034 28.1731C53.6475 27.926 53.5916 27.6896 53.5469 27.4424C53.5134 27.2812 53.4687 27.1201 53.4128 26.9589C53.3122 26.6795 53.2227 26.4108 53.1221 26.1315C52.9992 25.7768 52.8874 25.4115 52.7421 25.0569C52.5074 24.4766 52.2503 23.9071 51.9932 23.3376C51.6914 22.6713 51.3561 22.0051 50.9537 21.3926C50.596 20.8338 50.2047 20.2965 49.8023 19.7592C49.3552 19.1575 48.8746 18.5772 48.3604 18.0399C47.645 17.2985 46.9185 16.5678 46.1025 15.923C45.4989 15.4502 44.9065 14.9452 44.2693 14.4938C43.2522 13.7846 42.1903 13.1506 41.0613 12.6241C40.0218 12.1405 38.9822 11.6677 37.8868 11.3024C37.3726 11.1304 36.8585 10.98 36.3443 10.8296C35.8301 10.6791 35.3047 10.5824 34.7794 10.5072C34.3323 10.4427 33.8852 10.3353 33.4381 10.303C32.745 10.2385 32.052 10.1418 31.3478 10.1633C30.5207 10.1956 29.6935 10.1311 28.8663 10.2493C28.4081 10.3138 27.9386 10.346 27.4915 10.4105C27.0108 10.4749 26.5302 10.5609 26.0495 10.6791C25.5689 10.7973 25.0771 10.894 24.5964 11.0122C24.1605 11.1197 23.7246 11.2379 23.2998 11.3776C22.5397 11.614 21.8132 11.9364 21.0866 12.2587C20.3042 12.6026 19.5217 12.968 18.784 13.4085C18.0015 13.8813 17.1967 14.3219 16.4702 14.8914C15.833 15.3857 15.1959 15.8908 14.6147 16.4388C14.2346 16.8042 13.8434 17.1695 13.4857 17.5671C13.1615 17.911 12.8821 18.2978 12.5132 18.5987C12.3567 18.9426 12.0661 19.179 11.8426 19.4799C11.5296 19.9204 11.2054 20.3503 10.8813 20.7801C10.7136 21.0165 10.5459 21.2636 10.4006 21.5108C10.1659 21.8869 9.95352 22.2737 9.72997 22.6606C9.51759 23.0259 9.30521 23.3913 9.14872 23.7889C9.01459 24.122 8.86928 24.4444 8.74632 24.7775C8.62337 25.0891 8.50041 25.4115 8.41099 25.7339C8.28803 26.1637 8.1539 26.5828 8.01977 27.0019C7.86328 27.5284 7.7515 28.0657 7.62854 28.603C7.52794 29.0221 7.47205 29.4411 7.40499 29.8602C7.31557 30.4512 7.25967 31.053 7.19261 31.644C7.12554 32.1491 7.1479 32.7078 7.1479 33.2988ZM30.0624 3.79112C30.0624 3.0819 30.0624 2.38343 30.0624 1.67421C30.0624 1.39482 30.0512 1.37333 29.7606 1.4378C29.2576 1.54526 28.8552 1.80316 28.5198 2.16851C28.0727 2.65207 27.9162 3.25383 27.8603 3.86634C27.8268 4.22094 27.9721 4.56481 28.1174 4.88718C28.2963 5.27402 28.5981 5.5749 28.8552 5.89727C29.0228 6.10144 29.224 6.18741 29.4811 6.15517C29.5929 6.14443 29.7047 6.15517 29.8165 6.15517C30.0624 6.15517 30.0624 6.15517 30.0624 5.91877C30.0624 5.1988 30.0624 4.50033 30.0624 3.79112ZM31.2919 3.75888C31.3031 4.37138 31.3031 4.97314 31.3031 5.58565C31.3031 5.75758 31.2249 5.99399 31.3366 6.10144C31.4596 6.23039 31.7055 6.13368 31.8955 6.14443C32.0632 6.16592 32.1973 6.0907 32.3315 6.00473C32.6444 5.80056 32.8568 5.51043 33.058 5.22029C33.371 4.77972 33.5051 4.27467 33.4828 3.74813C33.4716 3.53322 33.4492 3.3183 33.3822 3.11414C33.2257 2.65207 32.9798 2.24373 32.6109 1.91062C32.3091 1.64197 31.9514 1.42706 31.5155 1.39482C31.3031 1.37333 31.2919 1.38408 31.2919 1.58824C31.2919 2.30821 31.2919 3.03892 31.2919 3.75888ZM5.79538 33.4278C5.79538 33.2129 5.79538 32.998 5.79538 32.783C5.79538 32.5574 5.80656 32.3317 5.80656 32.1168C5.81774 31.5365 5.81774 31.5258 5.19178 31.6118C4.96823 31.644 4.82292 31.7837 4.81174 31.9879C4.78938 32.826 4.76703 33.6642 4.81174 34.5131C4.83409 34.9537 5.20296 35.3083 5.62772 35.2653C5.82892 35.2438 5.85127 35.2331 5.8401 35.0396C5.79539 34.5024 5.79538 33.9651 5.79538 33.4278ZM56.5649 33.3741C56.5649 32.9227 56.5649 32.4822 56.5537 32.0308C56.5537 31.73 56.3972 31.601 56.0843 31.601C55.9837 31.601 55.8831 31.6118 55.7825 31.6118C55.6595 31.6118 55.6148 31.6762 55.6148 31.7837C55.6148 31.8482 55.626 31.9126 55.626 31.9664C55.6371 32.8583 55.7154 33.7502 55.5813 34.6421C55.503 35.1793 55.5924 35.2546 56.1625 35.1364C56.4419 35.0826 56.5649 34.9537 56.5649 34.6743C56.5761 34.2552 56.5649 33.8146 56.5649 33.3741Z" fill="#964315"/>
<path d="M43.0223 10.3973C42.9888 10.2469 43.0894 10.1179 43.1453 9.97824C43.2683 9.69885 43.436 9.44095 43.5814 9.16156C43.6373 9.05411 43.7379 8.9574 43.8274 8.88218C44.1516 8.61353 44.5318 8.73174 44.7219 9.10784C44.8673 9.39797 44.7555 9.63438 44.6548 9.87078C44.5318 10.1609 44.3417 10.4188 44.1405 10.6767C44.0287 10.8272 43.8833 10.9346 43.7044 10.9776C43.3578 11.0743 42.9888 10.7089 43.0223 10.3973Z" fill="#964315"/>
<path d="M55.0716 19.5957C55.2953 19.5957 55.586 19.7784 55.6419 19.9825C55.6978 20.1975 55.6754 20.3909 55.4854 20.5628C55.1052 20.8959 54.6803 21.1216 54.1883 21.272C54.0094 21.3258 53.7075 21.1861 53.5733 21.0034C53.4615 20.8422 53.4727 20.6488 53.6069 20.4661C53.8193 20.1867 54.0988 19.9825 54.4119 19.8214C54.5349 19.7569 54.6691 19.7247 54.7809 19.6602C54.8815 19.5957 54.9822 19.5957 55.0716 19.5957Z" fill="#964315"/>
<path d="M17.1623 8.83981C17.3747 8.80757 17.5313 8.92577 17.6431 9.07621C17.9003 9.43082 18.1239 9.79618 18.2805 10.2045C18.3475 10.3764 18.3587 10.5699 18.2245 10.7418C17.9786 11.0749 17.6543 11.0857 17.4083 10.8385C17.0617 10.4839 16.7933 10.0218 16.6144 9.57052C16.5138 9.43082 16.469 9.29113 16.6032 9.14069C16.7486 8.95801 16.9051 8.81832 17.1623 8.83981Z" fill="#964315"/>
<path d="M6.2811 19.5853C6.65009 19.5746 6.91845 19.7788 7.19799 19.9722C7.4328 20.1441 7.62289 20.359 7.76825 20.6169C7.91361 20.8856 7.76825 21.1757 7.45517 21.2079C7.23154 21.2294 7.01908 21.2079 6.80663 21.1112C6.46001 20.9608 6.13574 20.7889 5.8562 20.5417C5.71084 20.402 5.57666 20.2408 5.64375 20.0044C5.72202 19.7465 5.99038 19.5423 6.2811 19.5853Z" fill="#964315"/>
<path d="M51.8727 15.5769C51.9063 16.0605 51.4366 16.3721 51.0565 16.3614C50.5421 16.3506 50.2067 16.0175 50.1843 15.5447C50.162 15.0934 50.6651 14.7817 51.0677 14.7817C51.4702 14.7817 51.8951 15.1041 51.8727 15.5769Z" fill="#964315"/>
<path d="M11.1663 15.5881C11.1887 16.0501 10.7078 16.437 10.2159 16.2865C10.0817 16.2436 9.95868 16.2221 9.83568 16.1468C9.57851 15.9857 9.47787 15.717 9.57851 15.4484C9.67914 15.169 9.8245 14.9648 10.1264 14.8359C10.4507 14.6854 10.9427 14.9218 11.0657 15.2012C11.0992 15.3302 11.1998 15.4484 11.1663 15.5881Z" fill="#964315"/>
<path d="M54.0441 44.7407C54.2118 44.6977 54.346 44.7944 54.4914 44.8481C54.8604 44.9771 55.207 45.149 55.4865 45.4392C55.7325 45.6756 55.6654 45.9979 55.4418 46.2129C55.2517 46.3955 54.8715 46.46 54.6144 46.3203C54.3348 46.1699 54.0329 46.0194 53.7869 45.8045C53.6639 45.6971 53.5633 45.5681 53.5074 45.3962C53.4515 45.2243 53.485 45.0953 53.5857 44.9771C53.6975 44.8374 53.8205 44.6977 54.0441 44.7407Z" fill="#964315"/>
<path d="M31.2618 59.5059C31.2618 59.6886 31.273 59.8605 31.2618 60.0432C31.2395 60.3763 31.0494 60.5375 30.7139 60.5268C30.6468 60.5268 30.5797 60.5268 30.5238 60.516C30.3337 60.4945 30.2107 60.3763 30.166 60.1937C30.0878 59.8498 30.0766 59.5059 30.1437 59.1621C30.166 59.0439 30.166 58.9149 30.1772 58.786C30.1996 58.571 30.3673 58.3991 30.5797 58.3669C30.7922 58.3346 31.1388 58.4314 31.2059 58.657C31.2395 58.7967 31.2954 58.9257 31.2842 59.0761C31.2618 59.2265 31.273 59.3662 31.2618 59.5059C31.273 59.5059 31.273 59.5059 31.2618 59.5059Z" fill="#964315"/>
<path d="M6.13473 46.3526C5.94465 46.3956 5.82165 46.2344 5.7322 46.0732C5.63156 45.9013 5.62038 45.6863 5.75456 45.5144C5.86638 45.3532 6.01174 45.235 6.20182 45.1491C6.44782 45.0416 6.68263 44.9341 6.91744 44.8267C7.04044 44.7622 7.16344 44.7622 7.29762 44.7622C7.52125 44.7622 7.65543 44.8697 7.75606 45.0523C7.83433 45.2135 7.83433 45.3747 7.72252 45.5252C7.66661 45.6004 7.6107 45.6648 7.54361 45.7186C7.24171 45.9765 6.89508 46.1699 6.51491 46.3203C6.40309 46.3418 6.29128 46.3418 6.13473 46.3526Z" fill="#964315"/>
<path d="M17.6667 55.272C18.1476 55.272 18.4383 55.7663 18.2258 56.1424C18.0469 56.454 17.8568 56.7549 17.6556 57.045C17.499 57.2599 17.2978 57.3566 17.0629 57.2922C16.8058 57.2169 16.6045 56.959 16.6157 56.7119C16.6269 56.5292 16.6716 56.3573 16.7834 56.2176C16.9399 56.0134 17.0629 55.7878 17.2195 55.5728C17.3313 55.4117 17.4543 55.2505 17.6667 55.272Z" fill="#964315"/>
<path d="M43.6238 55.2608C43.758 55.2608 43.8698 55.2823 43.9705 55.3898C44.2947 55.7336 44.5296 56.142 44.7308 56.5503C44.742 56.5825 44.7644 56.604 44.7532 56.647C44.6973 56.8619 44.2836 57.1735 44.0487 57.1735C43.8922 57.1735 43.7804 57.1306 43.7021 57.0124C43.4673 56.6792 43.2325 56.3461 43.0536 55.97C42.9194 55.7121 43.2101 55.2286 43.6238 55.2608Z" fill="#964315"/>
<path d="M21.3355 57.7969C21.3355 58.2052 21.0336 58.5061 20.6087 58.4954C20.1167 58.4954 19.7812 58.1945 19.7812 57.7432C19.7812 57.3456 20.1726 56.991 20.5975 57.0017C20.9553 57.0124 21.3802 57.3026 21.3355 57.7969Z" fill="#964315"/>
<path d="M51.056 50.0165C51.3244 50.0165 51.6486 50.2636 51.7381 50.5C51.9617 51.0803 51.5368 51.4779 51.0784 51.5746C50.7988 51.6283 50.564 51.4564 50.4075 51.2415C50.1391 50.8869 50.2845 50.3603 50.6982 50.1454C50.8212 50.0702 50.933 49.9735 51.056 50.0165Z" fill="#964315"/>
<path d="M10.3675 51.5212C9.88667 51.5535 9.54004 51.1881 9.54004 50.7583C9.54004 50.3499 9.97612 50.0491 10.3563 50.0383C10.7812 50.0276 11.1278 50.3822 11.139 50.812C11.1502 51.1881 10.7924 51.5212 10.3675 51.5212Z" fill="#964315"/>
<path d="M41.2329 57.1201C41.2217 57.1953 41.2553 57.2168 41.3336 57.2061C41.3336 57.2706 41.3783 57.3243 41.4118 57.378C41.5013 57.5607 41.5907 57.7434 41.5236 57.9583C41.4342 58.2807 41.0764 58.5708 40.6179 58.4633C40.3831 58.4096 40.1483 58.3022 40.0589 58.0765C39.9582 57.8186 39.9918 57.5392 40.193 57.3243C40.3831 57.1094 40.6403 56.9912 40.9534 57.0557C41.0317 57.0771 41.1323 57.0986 41.2329 57.1201Z" fill="#964315"/>
<path d="M53.4043 32.9637C53.4043 33.3935 53.4155 33.8448 53.4043 34.2854C53.3931 34.726 53.3372 35.1773 53.2813 35.6178C53.2478 35.8757 53.2478 36.1444 53.1807 36.4023C53.1025 36.7247 53.0801 37.047 53.0131 37.3694C52.9013 37.853 52.7783 38.3365 52.6442 38.8201C52.4318 39.5508 52.2083 40.2815 51.9176 40.9907C51.6717 41.5817 51.3923 42.1512 51.1128 42.7315C50.5763 43.8706 49.9056 44.9344 49.1344 45.9337C48.609 46.6322 48.0278 47.2984 47.4465 47.9539C46.9994 48.459 46.5076 48.8995 46.0158 49.3616C45.7922 49.5765 45.5239 49.7592 45.2669 49.9311C45.0433 50.0816 44.8533 50.2857 44.6409 50.4469C44.2832 50.7263 43.9255 50.995 43.5678 51.2636C43.1095 51.6075 42.6177 51.8869 42.1147 52.1555C41.5447 52.4671 40.9746 52.8002 40.3598 53.0366C39.8233 53.2408 39.2979 53.4772 38.7614 53.6814C38.2807 53.8533 37.8001 54.036 37.3083 54.1864C36.8835 54.3154 36.4699 54.4551 36.0452 54.5625C35.6763 54.6593 35.3074 54.7345 34.9498 54.8312C34.648 54.9064 34.335 54.9171 34.0332 55.0031C33.7873 55.0783 33.519 55.0568 33.2619 55.0783C32.323 55.1643 31.3952 55.2073 30.4563 55.175C29.808 55.1536 29.1485 55.175 28.5002 55.0998C28.1872 55.0676 27.863 55.0783 27.5612 55.0139C27.3041 54.9601 27.0359 54.9386 26.7788 54.8634C26.5329 54.7882 26.2646 54.7882 26.0187 54.713C25.661 54.6055 25.2921 54.541 24.9345 54.4228C24.7668 54.3691 24.5991 54.3369 24.4315 54.2939C24.0067 54.1864 23.6043 54.036 23.1907 53.8856C22.7771 53.7351 22.3747 53.5847 21.9612 53.445C21.324 53.2086 20.7204 52.9292 20.1056 52.6391C19.2226 52.2092 18.3954 51.6827 17.5795 51.1454C17.2106 50.8983 16.8641 50.6189 16.5064 50.3395C16.2493 50.1353 15.9699 49.9526 15.7351 49.7377C15.4445 49.4906 15.1539 49.2327 14.8856 48.964C14.1144 48.1903 13.3878 47.3737 12.7059 46.5247C12.2365 45.923 11.7782 45.3105 11.3758 44.6657C11.1411 44.2896 10.9063 43.9028 10.6604 43.5267C10.3921 43.0969 10.1909 42.6133 9.95621 42.162C9.69912 41.6354 9.47556 41.0982 9.25201 40.5609C9.09552 40.1633 8.96139 39.7657 8.83843 39.3574C8.73783 39.0242 8.63723 38.7019 8.53663 38.3687C8.49192 38.1968 8.44721 38.0249 8.41367 37.853C8.36896 37.6058 8.31307 37.3587 8.25719 37.1223C8.17894 36.7891 8.21247 36.4453 8.07834 36.1229C8.06716 36.1014 8.06717 36.0692 8.06717 36.0477C8.0001 35.145 7.91067 34.2531 7.92185 33.3505C7.93303 32.6305 7.91067 31.8998 7.96656 31.1799C8.0001 30.836 8.01127 30.4814 8.07834 30.1483C8.15659 29.7399 8.23483 29.3424 8.31307 28.934C8.38014 28.6116 8.49192 28.3 8.57017 27.9884C8.64841 27.6338 8.79372 27.3007 8.84961 26.9353C8.87197 26.7741 8.93903 26.6237 8.98374 26.4732C9.1067 26.0434 9.25201 25.6136 9.4085 25.1945C9.67677 24.4853 9.98974 23.7976 10.3363 23.1206C10.5263 22.7552 10.761 22.4006 10.9399 22.0245C11.0293 21.8311 11.1858 21.6592 11.3199 21.4765C11.4876 21.2293 11.6441 20.9714 11.8229 20.735C12.0129 20.4879 12.2253 20.2515 12.393 19.9936C12.7395 19.467 13.1642 19.005 13.5778 18.5429C14.1367 17.9197 14.7738 17.3609 15.3774 16.7806C15.9922 16.1789 16.6517 15.6308 17.3447 15.1258C17.6912 14.8679 18.0825 14.6745 18.4402 14.4381C19.122 13.9975 19.8486 13.6321 20.5751 13.2883C21.2234 12.9766 21.8941 12.6972 22.5648 12.4286C23.0789 12.2244 23.6043 12.0418 24.1408 11.8913C24.4762 11.8054 24.8115 11.7086 25.1468 11.6227C25.5157 11.5367 25.8957 11.4615 26.2758 11.354C26.4882 11.2896 26.7229 11.2788 26.9465 11.2251C27.3041 11.1391 27.673 11.1284 28.0307 11.0532C28.3325 10.9887 28.6343 11.0102 28.9473 10.9779C29.8415 10.8597 30.7469 10.892 31.6523 10.9135C32.2112 10.9242 32.7701 10.9672 33.3178 11.0854C33.3625 11.0961 33.4072 11.0961 33.4519 11.0961C33.8879 11.1069 34.3014 11.2251 34.7262 11.2896C35.1286 11.354 35.5198 11.4507 35.911 11.5475C36.3693 11.6657 36.8388 11.7624 37.2859 11.9343C37.5318 12.031 37.7889 12.0955 38.046 12.1707C38.4931 12.3104 38.9179 12.4823 39.3538 12.6435C39.9798 12.8799 40.5722 13.1916 41.1758 13.4817C41.7347 13.7611 42.2712 14.0727 42.8077 14.3843C43.9143 15.0076 44.8756 15.8242 45.8257 16.6409C46.4629 17.189 47.0665 17.7907 47.6365 18.4032C48.1954 19.005 48.7655 19.6175 49.2573 20.273C49.6374 20.778 49.9504 21.3368 50.2857 21.8741C50.6881 22.5188 51.0458 23.1851 51.3699 23.8728C51.6047 24.3563 51.7947 24.8614 51.9959 25.3557C52.2418 25.9575 52.4206 26.5807 52.6107 27.1932C52.7672 27.6983 52.9013 28.2141 53.0019 28.7406C53.0466 28.977 53.0466 29.2349 53.1696 29.4713C53.1807 29.482 53.1919 29.5035 53.1807 29.525C53.1472 29.8689 53.2925 30.1913 53.3037 30.5351C53.3484 31.3303 53.4602 32.1362 53.4043 32.9637ZM30.3669 54.7882C31.3617 54.7237 32.2559 54.7667 33.1501 54.6593C33.7649 54.584 34.3797 54.5088 34.9945 54.3906C35.5645 54.2832 36.1234 54.122 36.6823 53.9715C37.2747 53.8103 37.8672 53.6277 38.4484 53.4128C39.1638 53.1441 39.868 52.854 40.5498 52.5209C41.1534 52.22 41.7459 51.9083 42.3383 51.5645C42.886 51.2421 43.4225 50.8983 43.9255 50.5007C44.3391 50.1675 44.7415 49.8452 45.1551 49.5121C45.6804 49.093 46.1499 48.6309 46.6194 48.1581C46.9882 47.8035 47.3124 47.4059 47.6477 47.0298C48.0613 46.557 48.4637 46.0842 48.8549 45.5899C49.2014 45.1386 49.5032 44.655 49.805 44.1714C50.1404 43.6341 50.4645 43.0861 50.7328 42.5166C51.0681 41.7966 51.4146 41.0767 51.6829 40.3245C51.8394 39.8839 51.9623 39.4433 52.0965 39.0028C52.2083 38.6267 52.2977 38.2505 52.3983 37.8744C52.4542 37.638 52.5212 37.3909 52.5548 37.1437C52.5995 36.8429 52.6554 36.542 52.7113 36.2518C52.7783 35.8543 52.823 35.4567 52.8678 35.0591C52.9348 34.3821 52.9236 33.7051 52.9125 33.0174C52.9125 32.8777 53.0019 32.7595 52.9684 32.6198C52.9013 32.3082 52.9125 31.9858 52.9125 31.6742C52.9125 31.1584 52.7783 30.6641 52.756 30.159C52.7448 29.9441 52.6777 29.7185 52.6666 29.5035C52.6666 29.482 52.6665 29.4498 52.6554 29.4283C52.5212 29.1812 52.5548 28.9018 52.4877 28.6439C52.4318 28.429 52.3759 28.1926 52.3312 27.9669C52.2977 27.8057 52.2642 27.6338 52.1971 27.4833C52.063 27.204 51.9959 26.8923 51.9176 26.6022C51.7835 26.1079 51.5711 25.6351 51.3923 25.1623C51.2805 24.8721 51.1464 24.5927 51.0346 24.3134C50.7999 23.7223 50.4869 23.1636 50.1627 22.6155C49.9392 22.2287 49.7268 21.8418 49.4585 21.4765C49.1903 21.1004 48.9555 20.7028 48.6761 20.3374C47.8489 19.2521 46.91 18.2528 45.8816 17.3394C45.2892 16.8021 44.6633 16.2971 44.0149 15.835C43.4784 15.4481 42.9307 15.0613 42.3495 14.7282C41.7347 14.3843 41.1087 14.0297 40.4716 13.7181C39.7786 13.3742 39.052 13.0733 38.3143 12.8154C37.9566 12.6865 37.5877 12.5683 37.23 12.4393C36.9506 12.3319 36.66 12.2567 36.3582 12.1922C36.0228 12.117 35.6875 12.0095 35.3522 11.9343C35.1062 11.8698 34.8492 11.8268 34.5921 11.7839C34.2791 11.7301 33.9549 11.6764 33.642 11.6227C33.0942 11.526 32.5354 11.483 31.9876 11.4615C30.8587 11.4185 29.7297 11.3755 28.5896 11.5152C27.986 11.5904 27.3936 11.7194 26.7788 11.7731C26.7564 11.7731 26.7229 11.7839 26.7005 11.7946C26.4546 11.9021 26.1752 11.8913 25.9181 11.9665C25.784 12.0095 25.6387 12.0633 25.4933 12.074C25.1468 12.1062 24.8227 12.2459 24.4873 12.3319C24.0849 12.4286 23.6937 12.6005 23.2913 12.7187C22.7548 12.8799 22.2518 13.1271 21.7376 13.3205C21.3799 13.4494 21.0446 13.6429 20.7092 13.8041C19.9044 14.1802 19.1555 14.6422 18.3954 15.1043C17.7471 15.5019 17.1324 15.9425 16.5735 16.4475C15.8134 17.1352 15.0533 17.8444 14.3267 18.5752C13.9467 18.9513 13.589 19.3596 13.2648 19.7679C12.773 20.4019 12.3035 21.0467 11.8117 21.6807C11.767 21.7451 11.7111 21.8204 11.6888 21.8848C11.5658 22.2072 11.3423 22.4758 11.1634 22.7767C10.7387 23.4967 10.3921 24.2489 10.0792 25.0226C9.93386 25.3879 9.79972 25.764 9.67677 26.1401C9.58734 26.398 9.49792 26.6559 9.41968 26.9246C9.34143 27.2147 9.21848 27.4941 9.15141 27.7842C9.05081 28.1818 8.91668 28.5687 8.82725 28.9663C8.78254 29.2027 8.74901 29.4391 8.69312 29.6755C8.6037 30.0193 8.59252 30.3847 8.52545 30.7286C8.44721 31.1691 8.44721 31.6312 8.42485 32.0933C8.38014 32.9099 8.34661 33.7374 8.46956 34.554C8.54781 35.0483 8.51428 35.5534 8.59252 36.0477C8.64841 36.4023 8.71548 36.7462 8.76019 37.1115C8.78254 37.2942 8.81608 37.4876 8.87196 37.6595C8.99492 38.0034 9.03963 38.3688 9.16259 38.7126C9.26319 39.0135 9.33025 39.3359 9.43085 39.6367C9.63205 40.1848 9.83325 40.7221 10.0456 41.2593C10.3251 41.9578 10.6939 42.6241 11.0405 43.2903C11.2417 43.6771 11.5099 44.021 11.7223 44.3971C12.0129 44.9021 12.3483 45.375 12.6948 45.837C13.1642 46.4818 13.7119 47.0728 14.2597 47.6638C14.6509 48.0936 15.0868 48.4805 15.4892 48.8888C15.6681 49.0715 15.8693 49.2327 16.0481 49.4046C16.417 49.7485 16.8082 50.0708 17.2218 50.3502C17.7695 50.7263 18.306 51.1132 18.8761 51.4678C19.2561 51.7042 19.625 51.9621 20.0274 52.1555C20.7316 52.4779 21.4246 52.8432 22.1512 53.1226C22.6318 53.3053 23.1013 53.5095 23.5931 53.6706C24.1408 53.8533 24.6997 54.0145 25.2586 54.1542C25.7057 54.2617 26.1528 54.3584 26.5999 54.4658C26.8235 54.5196 27.0359 54.5303 27.2594 54.584C27.7177 54.6915 28.176 54.7237 28.6343 54.756C28.9249 54.7775 29.2155 54.7667 29.495 54.7775C29.808 54.756 30.1433 54.7775 30.3669 54.7882Z" fill="#964315"/>
<path d="M9.16316 33.243C9.08492 32.4263 9.25258 31.5666 9.28612 30.6962C9.43143 30.4168 9.36436 30.1052 9.45378 29.8043C9.53203 29.5572 9.54321 29.2778 9.59909 29.0199C9.68852 28.633 9.77794 28.2569 9.88972 27.8808C9.94561 27.6982 9.97914 27.5047 10.0462 27.3221C10.1468 27.0319 10.2139 26.7203 10.3145 26.4302C10.471 26.0003 10.6274 25.5705 10.8175 25.1407C11.1081 24.4637 11.4323 23.7975 11.8011 23.1527C12.3265 22.2286 12.9524 21.3689 13.6007 20.52C14.3049 19.5959 15.0986 18.7685 15.9369 17.9626C16.5517 17.3823 17.2112 16.845 17.893 16.34C18.7313 15.7167 19.6479 15.2117 20.5757 14.7388C21.0899 14.4809 21.5929 14.2016 22.1294 13.9759C22.4871 13.8255 22.8448 13.675 23.2248 13.5676C23.5713 13.4708 23.9067 13.3312 24.2532 13.213C24.555 13.1055 24.8568 13.0195 25.1586 12.9228C25.5163 12.8154 25.8739 12.7509 26.2316 12.6434C26.4105 12.5897 26.6005 12.5682 26.7794 12.5467C27.0812 12.5037 27.3829 12.45 27.6847 12.3963C28.1095 12.3103 28.5343 12.3318 28.9478 12.2351C29.1155 12.1921 29.2832 12.2029 29.4508 12.2029C30.2445 12.2029 31.0381 12.2029 31.8205 12.2029C32.3012 12.2029 32.793 12.2673 33.2625 12.3318C33.5754 12.3748 33.8996 12.4178 34.2126 12.4822C34.4808 12.5467 34.7715 12.6112 35.0509 12.6327C35.2521 12.6542 35.4533 12.7079 35.6433 12.7616C35.9563 12.8476 36.2805 12.9228 36.5934 13.041C36.9511 13.1807 37.3424 13.2774 37.7112 13.3956C38.0913 13.5246 38.4713 13.6643 38.8402 13.804C39.5108 14.0726 40.1703 14.3842 40.8075 14.7174C41.5228 15.0935 42.227 15.5018 42.9089 15.9424C43.4231 16.2862 43.9149 16.6731 44.3955 17.0492C45.2227 17.7047 45.9492 18.4461 46.6758 19.1983C47.0782 19.6066 47.4694 20.0365 47.8159 20.4878C48.2407 21.0466 48.6319 21.6161 49.012 22.2071C49.3808 22.7874 49.7385 23.3676 50.0291 23.9802C50.2974 24.5389 50.5321 25.1192 50.7892 25.678C51.0128 26.1615 51.1357 26.6773 51.3034 27.1824C51.4152 27.5155 51.4823 27.8701 51.5829 28.214C51.7393 28.762 51.8288 29.3208 51.9182 29.8795C52.0188 30.4813 52.0747 31.0831 52.1529 31.6741C52.2423 32.4263 52.22 33.1785 52.1976 33.9307C52.1865 34.4142 52.1641 34.8978 52.097 35.3706C52.0188 35.8864 51.9964 36.4022 51.8847 36.9072C51.8176 37.2189 51.7282 37.5305 51.6387 37.8314C51.5717 38.057 51.5046 38.2934 51.4487 38.5298C51.3816 38.8092 51.3034 39.0779 51.2028 39.3465C51.0351 39.7978 50.8675 40.2599 50.6886 40.7112C50.3868 41.4634 50.0515 42.2049 49.6379 42.9248C49.2579 43.5911 48.8667 44.2466 48.4195 44.8698C48.0171 45.4393 47.5588 45.9659 47.1006 46.4924C46.3964 47.2876 45.6586 48.0613 44.8538 48.7598C44.2726 49.2648 43.669 49.7484 43.0095 50.1674C42.5177 50.4791 42.0258 50.7799 41.534 51.0808C40.9304 51.4569 40.2598 51.7256 39.6226 52.0479C39.142 52.2843 38.639 52.4778 38.136 52.6605C37.7559 52.8001 37.3759 52.9183 36.9958 53.0365C36.694 53.1333 36.3811 53.2192 36.0793 53.3052C35.8669 53.3697 35.6433 53.4341 35.4086 53.4556C35.2298 53.4664 35.0397 53.5201 34.8721 53.5738C34.615 53.6598 34.3244 53.6061 34.0896 53.7458C34.0784 53.7565 34.0561 53.7458 34.0337 53.7565C33.4413 53.8317 32.8601 53.8962 32.2565 53.8747C32.167 53.8747 32.0664 53.8855 31.977 53.8962C31.977 53.8962 30.971 53.9714 30.8034 53.9714C30.5351 53.9714 30.2668 53.9714 29.9985 53.9714C29.2943 53.9607 28.5902 53.8747 27.8971 53.7995C27.5506 53.7673 27.2153 53.7243 26.8799 53.6491C26.6117 53.5953 26.3322 53.5738 26.0751 53.4771C25.9187 53.4234 25.7398 53.4019 25.5721 53.3589C25.1139 53.2407 24.6556 53.0903 24.2085 52.9506C23.739 52.8001 23.2695 52.6282 22.8001 52.4778C22.5206 52.3811 22.2412 52.2736 21.9617 52.1447C21.604 51.9727 21.2463 51.833 20.8887 51.6504C20.5086 51.4462 20.1286 51.242 19.7597 51.0271C19.3461 50.7799 18.9325 50.5221 18.5413 50.2427C18.1725 49.974 17.8036 49.7054 17.4571 49.4152C17.1106 49.1359 16.7976 48.8242 16.4287 48.5663C16.0934 48.3299 15.8028 48.0291 15.5233 47.7282C14.9756 47.1372 14.4167 46.5676 13.9137 45.9444C13.6455 45.6005 13.3437 45.2781 13.0754 44.9343C12.7289 44.483 12.4383 43.9994 12.1476 43.5159C11.9688 43.2042 11.7899 42.8926 11.5999 42.581C11.3205 42.1511 11.1193 41.6783 10.9181 41.2055C10.7057 40.7005 10.538 40.1739 10.3368 39.6581C10.1915 39.2928 10.0909 38.9274 9.94561 38.5621C9.87854 38.4009 9.86736 38.229 9.83383 38.0678C9.78912 37.8206 9.72205 37.5735 9.66616 37.3371C9.59909 37.0899 9.61027 36.8213 9.49849 36.5849C9.48732 36.5741 9.48732 36.5526 9.48732 36.5311C9.49849 36.1443 9.33083 35.7789 9.35319 35.3921C9.36436 35.2094 9.36436 35.016 9.27494 34.8333C9.24141 34.7688 9.25258 34.6936 9.25258 34.6184C9.16316 34.1778 9.16316 33.7373 9.16316 33.243ZM37.6777 29.0414C37.6442 29.0521 37.6106 29.0521 37.5883 29.0629C37.2306 29.3423 36.8394 29.5894 36.4705 29.8473C36.2581 29.9978 36.0122 30.0945 35.8669 30.3094C35.7663 30.3094 35.6992 30.3738 35.6322 30.4276C35.308 30.664 34.9727 30.8789 34.6485 31.1153C34.5367 31.2013 34.3579 31.2335 34.302 31.3839C34.2573 31.3947 34.2126 31.3839 34.2014 31.4377C33.8996 31.5666 33.6649 31.803 33.3966 31.9642C33.3072 32.0179 33.2848 32.1039 33.3295 32.2006C33.4748 32.48 33.5307 32.7809 33.5419 33.0925C33.5531 33.4256 33.5307 33.748 33.4413 34.0704C33.3407 34.3175 33.2401 34.5862 33.0613 34.7796C32.7259 35.1557 32.3906 35.5318 31.8764 35.7252C31.7199 35.7789 31.5299 35.8004 31.4181 35.9401C31.2728 36.0153 31.3287 36.1443 31.3287 36.2518C31.3175 39.9805 31.3064 43.72 31.3064 47.4488C31.3064 47.524 31.3064 47.5885 31.3175 47.6637C31.3287 47.7174 31.3734 47.7282 31.4181 47.7174C31.4405 47.7282 31.474 47.7497 31.4964 47.7497C32.0553 47.7604 32.603 47.653 33.1507 47.5777C33.5419 47.524 33.922 47.3951 34.302 47.3091C34.8274 47.1909 35.3527 47.0404 35.8557 46.8363C36.8505 46.4494 37.823 45.9981 38.7284 45.4501C39.3544 45.0632 39.9468 44.6441 40.5057 44.1713C40.8969 43.8382 41.2881 43.4836 41.657 43.1183C42.16 42.6132 42.6071 42.0759 43.043 41.5171C43.5013 40.9261 43.8814 40.2814 44.2279 39.6259C44.4626 39.1746 44.6638 38.7125 44.8538 38.2397C44.9991 37.8636 45.1221 37.466 45.245 37.0899C45.3009 36.9287 45.3568 36.7461 45.3792 36.5741C45.4015 36.327 45.4798 36.0798 45.5357 35.8434C45.6139 35.521 45.6363 35.1879 45.7033 34.8656C45.7592 34.5862 45.7592 34.296 45.8039 34.0166C45.8375 33.7695 45.8263 33.7587 45.5692 33.7587C44.8985 33.7587 44.2279 33.7587 43.5572 33.7587C43.4342 33.7587 43.3001 33.748 43.1995 33.791C43.0095 33.8662 42.853 33.8232 42.6853 33.7695C42.2047 33.6191 42.0482 32.9958 42.4282 32.6842C42.5847 32.5552 42.7524 32.4693 42.976 32.48C43.8366 32.4908 44.7085 32.4908 45.5692 32.4908C45.8039 32.4908 45.8486 32.4478 45.8039 32.2436C45.6922 31.7708 45.748 31.2872 45.6251 30.8144C45.558 30.5673 45.5357 30.2986 45.4686 30.0515C45.3792 29.6754 45.3009 29.2993 45.178 28.9232C45.0886 28.633 44.9991 28.3429 44.8985 28.0635C44.6526 27.4403 44.3844 26.8278 44.049 26.2368C43.6019 25.4523 43.1213 24.7001 42.5289 24.0124C41.9811 23.3677 41.3887 22.7766 40.718 22.2393C40.2374 21.8525 39.7456 21.4764 39.2314 21.1325C38.5719 20.692 37.8789 20.3051 37.1412 19.9935C36.6158 19.7678 36.0793 19.5637 35.5539 19.3595C35.0286 19.1553 34.492 18.9941 33.9555 18.8652C33.4301 18.747 32.8936 18.6288 32.3459 18.6073C32.2229 18.6073 32.1 18.5858 31.9882 18.5643C31.7758 18.5213 31.5634 18.5213 31.3511 18.5213C31.3064 18.5966 31.3175 18.6718 31.3175 18.7362C31.3175 19.7249 31.3175 20.7027 31.3175 21.6913C31.3175 21.7773 31.3175 21.874 31.3064 21.96C31.2728 22.2501 30.8145 22.5187 30.5351 22.4113C30.1774 22.2716 30.0768 22.1319 30.0656 21.7558C30.0656 20.9821 30.0656 20.1977 30.0656 19.424C30.0656 19.1768 30.0656 18.9189 30.0656 18.6718C30.0656 18.5536 30.0209 18.5106 29.8979 18.5213C29.4397 18.5643 28.9702 18.5966 28.5119 18.6395C28.4895 18.6395 28.456 18.661 28.4337 18.661C28.1542 18.7148 27.8748 18.79 27.5953 18.8222C27.3718 18.8544 27.1706 18.9297 26.947 18.9727C26.6564 19.0371 26.3769 19.1661 26.0863 19.2413C25.628 19.3702 25.1921 19.5529 24.7562 19.7356C24.1749 19.972 23.6272 20.2514 23.0795 20.5523C22.543 20.8532 21.9841 21.1433 21.5146 21.5409C20.7881 22.1319 20.0391 22.7014 19.3908 23.3999C18.709 24.1306 18.0607 24.8935 17.5577 25.7424C17.2 26.355 16.8982 26.9889 16.6187 27.6444C16.4064 28.1387 16.2611 28.6438 16.1046 29.1488C16.0599 29.2993 15.9816 29.4497 15.9704 29.6109C15.9593 29.8581 15.8698 30.0945 15.8251 30.3416C15.7469 30.7177 15.691 31.0938 15.6463 31.4699C15.6127 31.7278 15.6127 31.9857 15.5569 32.2436C15.5121 32.4478 15.5457 32.48 15.7692 32.48C16.4623 32.48 17.1665 32.48 17.8595 32.4693C18.0495 32.4693 18.2283 32.4478 18.4184 32.4585C18.6866 32.4693 18.8543 32.609 18.9549 32.8131C19.0108 32.9421 19.1449 33.0818 19.0779 33.2322C19.0108 33.4041 18.9325 33.5761 18.709 33.6728C18.5078 33.7588 18.3178 33.791 18.1166 33.7695C17.4124 33.705 16.697 33.7695 15.9928 33.748C15.4786 33.7373 15.4786 33.748 15.5569 34.2423C15.6239 34.6614 15.6575 35.0912 15.7245 35.521C15.7692 35.8112 15.8251 36.1013 15.8922 36.3807C15.9593 36.7031 16.071 37.0147 16.1605 37.3263C16.3281 37.8958 16.5517 38.4439 16.7976 38.9919C17.1329 39.7334 17.58 40.4318 18.0383 41.1088C18.6531 42.0222 19.3908 42.8389 20.2068 43.5911C21.2016 44.5045 22.2859 45.2996 23.4819 45.9444C24.4208 46.4494 25.4157 46.8578 26.444 47.1586C26.6676 47.2231 26.9006 47.2972 27.1706 47.3736C27.3606 47.4273 27.5618 47.481 27.7518 47.5133C28.0089 47.5562 28.2548 47.5992 28.5007 47.653C28.8249 47.7282 29.3279 47.7712 29.652 47.7604C29.9874 47.7819 30.0209 47.7497 30.0209 47.438C30.0209 44.4185 30.0097 41.4097 30.0097 38.3901C30.0097 37.6379 30.0097 36.8857 30.0097 36.1335C30.0097 36.0046 29.9874 35.9294 29.8421 35.8757C29.5626 35.7682 29.272 35.6822 29.0373 35.4888C28.9255 35.4028 28.7313 35.2389 28.7313 35.2389C28.7201 35.2174 28.6796 35.1879 28.6684 35.1772C28.3778 34.9515 28.1989 34.6399 28.0536 34.3283C27.8859 33.9737 27.7742 33.6083 27.7854 33.2C27.7965 32.8346 27.8412 32.48 27.9977 32.1361C28.0313 32.0717 28.0536 31.9857 27.9977 31.932C27.7742 31.76 27.4634 31.5087 27.3494 31.3839H27.3382C27.2153 31.2443 26.8704 30.9768 26.757 30.8896C26.3099 30.5458 25.8516 30.2019 25.3933 29.8688C25.3039 29.8043 25.2368 29.6969 25.1139 29.6754L25.1027 29.6646C25.0915 29.6431 25.0915 29.6109 25.0691 29.5894C24.6109 29.2456 24.1526 28.9232 23.7055 28.5686C23.3701 28.2999 23.0348 28.0313 22.6883 27.7734C22.543 27.6659 22.3753 27.5692 22.2859 27.3865C22.1629 27.1179 22.2188 26.8815 22.3641 26.6558C22.3977 26.6558 22.42 26.6343 22.4088 26.5914C22.4647 26.5699 22.5318 26.5591 22.5877 26.5269C22.7665 26.4194 22.9454 26.4087 23.1354 26.5269C23.1801 26.5591 23.2472 26.5484 23.2919 26.5699C23.2919 26.5914 23.2919 26.6129 23.3031 26.6236C23.7725 26.989 24.2308 27.3758 24.7115 27.7304C25.4157 28.2462 26.0751 28.805 26.757 29.3315C27.4053 29.8366 28.0536 30.3524 28.6907 30.8682C28.8584 30.9971 28.8584 30.9971 29.0484 30.8896C29.5179 30.6103 30.0097 30.4061 30.5686 30.4061C30.7698 30.4061 30.9822 30.3846 31.1834 30.4383C31.5523 30.5458 31.9323 30.664 32.2453 30.9004C32.3571 30.9864 32.48 30.9756 32.603 30.9111C32.67 30.8789 32.7259 30.8359 32.7818 30.7929C33.0724 30.5995 33.3631 30.3953 33.6537 30.2019C34.4249 29.6754 35.1962 29.1488 35.9563 28.6116C36.2805 28.3859 36.6046 28.1602 36.9288 27.9453C37.6889 27.451 38.4266 26.9137 39.1643 26.3872C39.6003 26.0863 40.0138 25.7639 40.4498 25.4523C40.6622 25.3019 40.9081 25.3234 41.1093 25.4093C41.5228 25.5813 41.5787 26.1508 41.2546 26.4517C41.0869 26.6129 40.8745 26.7203 40.6845 26.86C40.3604 27.0964 40.0138 27.3006 39.6897 27.537C39.5108 27.6659 39.3097 27.7626 39.1643 27.9346C39.142 27.9346 39.1084 27.9346 39.0861 27.9561C38.6949 28.2247 38.3148 28.5041 37.9236 28.7835C37.8789 28.8802 37.7448 28.9232 37.6777 29.0414ZM11.2087 36.1443C11.3093 36.1765 11.4099 36.1443 11.5105 36.1228C12.1029 36.0046 12.7065 35.9616 13.3213 35.9294C13.3213 35.9831 13.366 35.9939 13.4107 36.0153C13.679 36.1443 13.7908 36.37 13.7461 36.6493C13.7125 36.8213 13.5113 36.961 13.2431 36.9825C13.1648 36.9932 13.0754 36.9932 12.9971 37.0147C12.7065 37.1114 12.4047 37.1222 12.1029 37.1866C11.7452 37.2511 11.3764 37.3156 11.0187 37.3801C10.851 37.4123 10.851 37.4875 10.8287 37.6165C10.7951 37.8529 10.9404 38.0463 10.974 38.2612C11.0075 38.5084 11.1193 38.734 11.1863 38.9704C11.1975 39.0134 11.2311 39.0241 11.2646 39.0241C11.4434 39.0241 11.6223 39.0671 11.7564 38.9059C11.9464 38.9274 12.1141 38.82 12.2818 38.7663C12.7289 38.6373 13.1536 38.4546 13.6007 38.3149C13.9808 38.1967 14.1149 38.2182 14.372 38.5406C14.4055 38.5943 14.4391 38.6373 14.4726 38.691C14.5732 38.863 14.5397 39.1101 14.3608 39.2068C14.1932 39.2928 14.0255 39.3895 13.8355 39.4432C13.5225 39.5292 13.2207 39.6259 12.9189 39.7226C12.55 39.8408 12.1923 39.959 11.8235 40.0665C11.5999 40.131 11.5776 40.1632 11.6558 40.3459C11.8905 40.8724 12.1253 41.3882 12.3824 41.904C12.4383 42.0115 12.4941 42.0329 12.5947 42.0222C12.673 42.0222 12.7401 41.99 12.8071 41.9577C13.3213 41.6998 13.8467 41.4527 14.3608 41.2055C14.4614 41.1625 14.5732 41.1303 14.6403 41.0336C14.6626 41.0336 14.6962 41.0443 14.7185 41.0336C15.1097 40.8187 15.5233 40.6145 15.9369 40.4211C16.1269 40.3351 16.1157 40.3351 16.0263 40.1632C15.8475 39.8516 15.6686 39.5292 15.5345 39.2068C15.3221 38.7018 15.1209 38.1967 14.9533 37.6702C14.8191 37.2619 14.7297 36.8535 14.6291 36.4452C14.5732 36.198 14.5397 35.9509 14.5061 35.7037C14.4391 35.2631 14.3273 34.8333 14.3161 34.382C14.3049 34.2101 14.3161 34.0381 14.3161 33.8769C14.3161 33.705 14.2826 33.6835 14.1037 33.6943C13.9249 33.705 13.7461 33.7158 13.5784 33.7158C12.5836 33.7265 11.5887 33.748 10.5939 33.7158C10.3256 33.705 10.2921 33.7265 10.3368 33.9844C10.3927 34.3175 10.4263 34.6614 10.4151 34.9945C10.4039 35.3599 10.538 35.7145 10.5269 36.0906C10.5269 36.1443 10.538 36.2088 10.6051 36.2088C10.7951 36.2518 11.0187 36.3162 11.2087 36.1443ZM48.006 33.791C47.76 33.7695 47.5253 33.7695 47.2794 33.791C47.0559 33.7802 47.0447 33.7802 47.0447 33.9629C47.0447 34.1134 47.0558 34.2638 47.0558 34.4142C47.0223 34.5862 47.0111 34.7474 47.0447 34.9193C46.9217 35.0053 46.9441 35.1449 46.9441 35.2631C46.9552 35.6178 46.8435 35.9401 46.7876 36.284C46.7429 36.5204 46.7093 36.7675 46.6199 36.9932C46.5528 37.2081 46.4858 37.4123 46.4187 37.6272C46.2958 37.9926 46.1728 38.3687 46.0387 38.7233C45.9381 38.9812 45.871 39.2391 45.7369 39.4862C45.6251 39.7011 45.5245 39.916 45.4015 40.1202C45.2786 40.3244 45.3233 40.4318 45.558 40.5285C45.5692 40.5285 45.5804 40.5285 45.5804 40.5393C46.0946 40.7864 46.6199 41.0121 47.1229 41.2807C47.6036 41.5386 48.1066 41.7643 48.5201 42.1189C48.6431 42.2264 48.7661 42.1834 48.8443 42.0329C49.0567 41.6676 49.2132 41.27 49.392 40.8939C49.4814 40.7112 49.582 40.5393 49.6491 40.3351C49.705 40.1632 49.7162 40.1632 49.5597 40.1095C49.3249 40.0235 49.1014 39.9483 48.8667 39.8623C48.4754 39.7226 48.073 39.5937 47.6818 39.454C47.4694 39.3788 47.2682 39.3143 47.067 39.2283C46.8882 39.1531 46.7876 38.9489 46.8658 38.7877C47.1006 38.3149 47.3018 38.1645 47.8718 38.3364C48.073 38.4009 48.2519 38.5298 48.4754 38.4976C48.576 38.5728 48.9002 38.691 49.0678 38.7018C49.0902 38.7233 49.1237 38.7233 49.1461 38.7125C49.1573 38.7448 49.1684 38.7877 49.2132 38.7877C49.5038 38.8415 49.7497 38.9919 50.0403 39.1101C50.0627 39.0027 50.1856 38.9274 50.1521 38.7985C50.1968 38.734 50.208 38.6588 50.1968 38.5836C50.2303 38.5728 50.2639 38.5513 50.2751 38.5191C50.3309 38.2182 50.4204 37.9173 50.5098 37.6272C50.5657 37.423 50.5098 37.3586 50.2862 37.3263C49.9956 37.2941 49.705 37.2726 49.4032 37.2081C48.9561 37.1114 48.4978 37.0577 48.0395 36.9717C47.883 36.9395 47.693 36.9072 47.6259 36.7461C47.4359 36.2947 47.7042 35.9079 48.1848 35.9294C48.509 35.9401 48.8331 35.9939 49.1461 36.0583C49.6044 36.155 50.0739 36.1013 50.521 36.241C50.5433 36.2518 50.5769 36.241 50.5992 36.2518C50.6886 36.2518 50.7333 36.2303 50.7669 36.1228C50.8787 35.7897 50.8563 35.4351 50.9122 35.0912C50.9681 34.7366 50.9457 34.382 50.9569 34.0166C50.9681 33.7587 50.9569 33.748 50.6775 33.7587C50.6551 33.7587 50.6439 33.7695 50.6216 33.7695C50.2639 33.748 49.9174 33.748 49.5597 33.7695C49.4479 33.748 49.3361 33.748 49.2243 33.7695C49.0343 33.748 48.8443 33.748 48.6543 33.7695C48.4419 33.7695 48.2295 33.7695 48.006 33.791ZM31.284 17.2211C31.7423 17.2641 32.167 17.2856 32.5918 17.3286C32.8824 17.3608 33.1619 17.4038 33.4413 17.4683C33.6984 17.5327 33.9667 17.5542 34.2238 17.6187C34.5703 17.7154 34.928 17.7799 35.2633 17.8873C35.9116 18.1023 36.5711 18.2849 37.1859 18.5858C37.7112 18.8437 38.2589 19.0586 38.7843 19.3273C39.2202 19.5529 39.6114 19.8323 40.025 20.0902C40.4498 20.3481 40.8075 20.6705 41.221 20.9391C41.4558 21.0896 41.6346 21.3045 41.847 21.4764C42.2271 21.7773 42.0929 21.831 42.4506 21.4227C42.9089 20.8961 43.4007 20.4126 43.8814 19.8968C44.1608 19.5852 44.4626 19.2843 44.742 18.9834C44.7868 18.9404 44.8315 18.8974 44.7756 18.8222C44.4514 18.4676 44.1049 18.1237 43.6913 17.8551C43.4566 17.6939 43.4454 17.7047 43.2666 17.9196C42.9983 18.2419 42.7412 18.5751 42.4618 18.8867C42.2718 19.0909 42.0929 19.295 41.9476 19.5314C41.8023 19.7571 41.6011 19.9075 41.3999 20.0687C41.3105 20.1332 41.2099 20.1439 41.1204 20.0687C40.9863 19.972 40.8522 19.8753 40.7404 19.7678C40.5392 19.5637 40.5168 19.381 40.7292 19.1876C41.1316 18.8115 41.4446 18.3709 41.7688 17.9411C42.0035 17.6509 42.2829 17.393 42.473 17.0492C42.0258 16.6623 41.5228 16.34 40.9975 16.0606C40.841 15.9746 40.6733 16.0068 40.6063 16.168C40.4721 16.4582 40.2933 16.7268 40.1368 17.0062C39.9021 17.436 39.6562 17.8766 39.3655 18.2742C39.209 18.4891 39.0302 18.5643 38.7955 18.4891C38.639 18.4461 38.5272 18.3172 38.4266 18.199C38.3148 18.07 38.3036 17.9411 38.3819 17.8014C38.7843 17.0814 39.1643 16.3507 39.6338 15.663C39.7679 15.4588 39.7456 15.3836 39.5108 15.2761C39.2985 15.1794 39.0861 15.072 38.8625 14.9752C38.6054 14.8678 38.3372 14.7603 38.0801 14.6529C37.9124 14.5884 37.8454 14.6314 37.7783 14.7926C37.6889 15.029 37.6218 15.2869 37.5324 15.5233C37.3312 16.0606 37.1523 16.6086 36.9958 17.1566C36.9511 17.3178 36.8505 17.4575 36.694 17.5112C36.4705 17.5865 36.2693 17.5005 36.0793 17.3608C35.9116 17.2426 35.8334 17.1136 35.8669 16.9095C35.9116 16.6516 36.0122 16.3937 36.0793 16.1358C36.2358 15.5985 36.4258 15.072 36.627 14.5562C36.7276 14.2875 36.6717 14.1693 36.3811 14.0941C36.0122 14.0081 35.6545 13.9007 35.2968 13.7825C35.2074 13.7502 35.1068 13.761 35.1068 13.8684C35.0956 14.0296 34.995 14.1693 34.995 14.3305C34.9838 14.6206 34.8721 14.9 34.8273 15.1902C34.7826 15.4481 34.7044 15.6952 34.6709 15.9424C34.6485 16.1465 34.5367 16.3292 34.5367 16.5441C34.5367 16.6301 34.4473 16.6838 34.3914 16.7268C34.2126 16.8665 33.8549 16.8665 33.676 16.7161C33.5196 16.5871 33.4078 16.4474 33.4413 16.2218C33.4748 15.9316 33.5419 15.6415 33.5978 15.3513C33.6425 15.1472 33.6425 14.943 33.6984 14.7496C33.799 14.4057 33.8437 14.0511 33.922 13.7073C33.9443 13.5783 33.8884 13.5461 33.7655 13.5138C33.3966 13.4171 33.0054 13.4386 32.6365 13.3741C32.29 13.3097 31.9323 13.3312 31.5746 13.3312C31.3622 13.3312 31.3399 13.3634 31.3287 13.5676C31.3287 13.6105 31.3287 13.6535 31.3287 13.6965C31.3287 14.7388 31.3287 15.7704 31.3287 16.8128C31.284 16.9632 31.284 17.0814 31.284 17.2211ZM21.5146 15.4588C21.6599 15.534 21.6823 15.6415 21.7382 15.7274C22.1517 16.3614 22.543 17.0062 22.8783 17.6724C22.9342 17.7799 23.0236 17.9088 22.9789 18.0485C22.9007 18.2849 22.7218 18.4354 22.4871 18.4998C22.2635 18.5643 22.107 18.4569 21.9729 18.2849C21.7605 18.0378 21.604 17.7584 21.4475 17.479C21.2016 17.0384 20.9781 16.5764 20.6875 16.1573C20.5869 16.0068 20.5086 15.9961 20.3521 16.0713C20.2403 16.1358 20.1286 16.1895 20.0168 16.254C19.7038 16.4367 19.4355 16.6731 19.1002 16.8128C18.9437 16.8772 18.9325 17.0707 19.0555 17.2211C19.3461 17.5757 19.6591 17.9196 19.9497 18.2849C20.1733 18.5751 20.4304 18.833 20.6204 19.1446C20.6875 19.252 20.7881 19.3702 20.7657 19.5099C20.7433 19.7141 20.3857 19.9827 20.1845 20.0042C19.905 20.0365 19.7262 19.8968 19.5809 19.7034C19.2232 19.1983 18.8319 18.7255 18.4295 18.2634C18.3178 18.1345 18.2172 18.0055 18.0942 17.8873C17.9377 17.7369 17.8371 17.7369 17.703 17.8658C17.3565 18.1882 16.9653 18.4569 16.6299 18.79C16.507 18.9189 16.507 19.0479 16.6635 19.1123C16.7305 19.1446 16.7864 19.1983 16.8311 19.2413C17.58 19.9827 18.3178 20.7242 18.9884 21.5194C19.0667 21.6161 19.1337 21.6268 19.2343 21.5516C19.3685 21.4549 19.5138 21.3689 19.6479 21.2507C20.0056 20.9284 20.3857 20.6597 20.7881 20.3911C21.1569 20.1547 21.5146 19.886 21.8947 19.6711C22.5094 19.338 23.113 19.0049 23.7613 18.747C24.3538 18.5106 24.9462 18.2527 25.561 18.0593C25.9634 17.9303 26.3769 17.8014 26.7905 17.6939C27.3271 17.5542 27.8636 17.4253 28.4001 17.3286C28.7914 17.2533 29.2049 17.1889 29.6185 17.2104C29.6968 17.2104 29.7862 17.2104 29.8644 17.2104C29.9986 17.2104 30.0544 17.1566 30.0433 17.0277C30.0433 16.9954 30.0433 16.9525 30.0433 16.9202C30.0433 15.9316 30.0433 14.9323 30.0433 13.9437C30.0433 13.8147 30.0433 13.6965 30.0321 13.5676C30.0209 13.4279 29.9538 13.3634 29.8085 13.3526C29.7526 13.3526 29.6968 13.3526 29.6409 13.3526C29.0932 13.3097 28.5678 13.4601 28.0313 13.4494C27.8748 13.4494 27.7183 13.4708 27.573 13.5353C27.3718 13.6213 27.3271 13.675 27.4165 13.8684C27.4612 13.9759 27.4835 14.0941 27.4947 14.2016C27.5283 14.4272 27.5842 14.6529 27.6289 14.8785C27.6959 15.2117 27.7965 15.534 27.8301 15.8671C27.8412 15.9316 27.8524 15.9853 27.8859 16.0391C27.953 16.1573 27.953 16.2862 27.9195 16.4044C27.8412 16.6301 27.5059 16.802 27.2153 16.7698C27.0253 16.7483 26.7458 16.5011 26.7123 16.3077C26.6452 15.9316 26.5893 15.5555 26.4887 15.1794C26.4552 15.072 26.3769 14.9752 26.3769 14.857C26.3881 14.5669 26.2875 14.2983 26.2652 14.0081C26.254 13.8792 26.1981 13.8362 26.0751 13.8362C25.7733 13.8362 25.4939 13.9329 25.2145 14.0189C25.0691 14.0619 24.9127 14.0834 24.7785 14.1801C24.7003 14.2338 24.5997 14.2983 24.6332 14.3735C24.7338 14.5884 24.7897 14.8141 24.8679 15.0397C24.9574 15.2869 25.058 15.534 25.1362 15.7919C25.2368 16.125 25.3262 16.4474 25.4604 16.7698C25.5833 17.0814 25.4715 17.3178 25.125 17.479C24.8679 17.5972 24.5214 17.5005 24.3873 17.2426C24.3314 17.1459 24.2979 17.0277 24.2643 16.9202C24.1749 16.6301 24.0967 16.34 23.9737 16.0606C23.8172 15.6845 23.6719 15.2976 23.5825 14.9C23.5601 14.7926 23.5154 14.7066 23.4372 14.6421C23.3589 14.5777 23.2919 14.6636 23.2136 14.6959C23.1913 14.7066 23.1801 14.7066 23.1577 14.7066C22.61 14.9215 22.0959 15.1687 21.5146 15.4588ZM19.3797 44.6334C19.2679 44.7409 19.1561 44.8268 19.0667 44.9235C18.8319 45.1922 18.5749 45.4501 18.3289 45.708C17.8259 46.2238 17.2782 46.6858 16.7641 47.1801C16.5852 47.3521 16.5852 47.3736 16.7641 47.5347C17.077 47.8141 17.39 48.1043 17.7142 48.3837C17.893 48.5448 17.9489 48.5341 18.1054 48.3407C18.3289 48.0613 18.5525 47.7819 18.7649 47.5025C19.0331 47.1372 19.3349 46.7933 19.5697 46.4064C19.6815 46.2238 19.8379 46.0948 20.1062 46.1271C20.3409 46.1593 20.4639 46.256 20.5757 46.4387C20.7098 46.6536 20.721 46.6966 20.5645 46.8793C20.3968 47.0942 20.2515 47.3091 20.0727 47.524C19.715 47.9538 19.4244 48.4374 19.022 48.835C18.9661 48.8887 18.9102 48.9639 18.8767 49.0284C18.8319 49.1144 18.8208 49.1896 18.9437 49.2648C19.4355 49.5872 19.9274 49.9095 20.4304 50.2212C20.6427 50.3501 20.6539 50.3501 20.7769 50.1352C20.8998 49.8988 21.0116 49.6517 21.1346 49.4152C21.3581 48.9639 21.604 48.5126 21.8947 48.0935C22.1517 47.7282 22.3865 47.6744 22.7777 47.9538C22.9901 48.1043 23.0013 48.2225 22.8895 48.4589C22.8671 48.5126 22.8448 48.5556 22.8224 48.5986C22.4424 49.3078 22.107 50.0278 21.6823 50.7155C21.6376 50.78 21.6376 50.8444 21.7382 50.8874C21.917 50.9734 22.0847 51.0916 22.2635 51.1775C22.5989 51.3387 22.9454 51.4892 23.2919 51.6396C23.4931 51.7256 23.5154 51.7256 23.5937 51.5322C23.6272 51.4354 23.6719 51.3495 23.6943 51.2528C23.7949 50.8444 23.9402 50.4576 24.052 50.0492C24.1414 49.7269 24.2643 49.4045 24.3649 49.0821C24.4097 48.9317 24.5214 48.8457 24.6779 48.835C25.0133 48.8135 25.2256 49.0069 25.4268 49.2326C25.4715 49.2756 25.4715 49.34 25.4492 49.383C25.3598 49.512 25.3709 49.6624 25.3262 49.7913C25.1362 50.3501 24.9462 50.9089 24.7674 51.4677C24.7338 51.5644 24.6779 51.6611 24.6779 51.7686C24.6667 51.962 24.7003 52.005 24.8791 52.0587C25.1139 52.1339 25.3486 52.2091 25.5945 52.2736C25.7175 52.3058 25.8404 52.3703 25.9634 52.3811C26.1869 52.4133 26.2316 52.3918 26.2652 52.1876C26.2987 51.9835 26.3658 51.79 26.4105 51.5859C26.4999 51.1238 26.6117 50.6618 26.7235 50.1997C26.7794 49.9633 26.8576 49.7269 27.1482 49.6194C27.3606 49.5334 27.5394 49.5657 27.7071 49.6839C27.8412 49.7913 27.8636 49.931 27.8412 50.0922C27.8077 50.3609 27.7406 50.6188 27.7071 50.8874C27.6736 51.242 27.573 51.5859 27.5171 51.9405C27.4836 52.1339 27.4724 52.3273 27.4612 52.5315C27.4612 52.6175 27.4836 52.6927 27.5953 52.6927C27.8971 52.7142 28.1989 52.8216 28.5007 52.8109C28.5901 52.8109 28.6796 52.8324 28.7802 52.8539C29.1379 52.9076 29.4956 52.9291 29.8644 52.9076C30.0097 52.8968 30.0656 52.8324 30.0544 52.7034C30.0544 52.6497 30.0544 52.596 30.0544 52.5423C30.0544 51.5859 30.0544 50.6295 30.0544 49.6731C30.0544 49.5227 30.0544 49.3723 30.0544 49.2218C30.0544 49.1036 30.0209 49.0284 29.8756 49.0392C29.8421 49.0392 29.7973 49.0392 29.7638 49.0392C29.272 49.0499 28.7802 49.0284 28.2995 48.9209C27.9083 48.835 27.4947 48.8027 27.1035 48.6953C26.8241 48.6201 26.5334 48.5663 26.254 48.4696C26.0081 48.3837 25.7622 48.2762 25.5163 48.201C25.0021 48.0398 24.4991 47.8464 24.0073 47.6315C23.5378 47.4273 23.0683 47.1909 22.6212 46.9437C22.23 46.7288 21.8611 46.4817 21.4923 46.2345C21.1457 46.0089 20.8104 45.7725 20.4863 45.5038C20.2515 45.3104 19.9721 45.1814 19.7709 44.9558C19.6815 44.8268 19.5138 44.7624 19.3797 44.6334ZM43.4007 48.4911C43.5237 48.4052 43.6243 48.3407 43.7137 48.2655C44.049 48.0076 44.362 47.7389 44.6526 47.438C44.7868 47.2983 44.7868 47.2876 44.6191 47.1586C44.4514 47.019 44.2838 46.8685 44.1161 46.7181C43.4566 46.1378 42.8642 45.4931 42.227 44.8913C42.0035 44.6764 41.9029 44.6764 41.657 44.8913C41.3887 45.1385 41.0981 45.3641 40.8075 45.5898C39.8797 46.2882 38.9072 46.9222 37.8454 47.4165C37.4318 47.61 37.0182 47.8034 36.5823 47.9323C36.0793 48.0828 35.5763 48.2762 35.0621 48.4159C34.6932 48.5234 34.3132 48.6093 33.9443 48.6845C33.676 48.7383 33.4078 48.792 33.1283 48.835C32.603 48.9102 32.0664 48.9747 31.5299 49.0177C31.2728 49.0392 31.2616 49.0284 31.2616 49.2863C31.2616 50.3501 31.2616 51.4139 31.2728 52.4778C31.2728 52.8324 31.3734 52.9076 31.7535 52.8754C31.9882 52.8539 32.2341 52.8216 32.4688 52.8109C32.8489 52.8001 33.2289 52.7894 33.609 52.7034C33.8325 52.6497 33.8884 52.5852 33.8213 52.3703C33.7878 52.2629 33.7543 52.1447 33.7431 52.0372C33.7319 51.7793 33.6537 51.5322 33.5978 51.2743C33.5307 50.9841 33.5084 50.694 33.419 50.4146C33.3742 50.2749 33.3966 50.1137 33.3966 49.9633C33.3966 49.8236 33.5866 49.6087 33.7208 49.5764C34.0337 49.4797 34.4138 49.6731 34.4697 49.9955C34.5367 50.3716 34.615 50.7477 34.7156 51.1131C34.8162 51.4892 34.9056 51.876 35.0286 52.2414C35.0733 52.3811 35.1515 52.3811 35.2521 52.3488C35.6322 52.1984 36.0346 52.1447 36.4258 52.0479C36.6046 52.005 36.627 51.962 36.5823 51.7901C36.4258 51.2098 36.2134 50.6403 36.0457 50.06C36.001 49.8881 35.9675 49.7161 35.9116 49.5442C35.7775 49.1788 35.9898 48.878 36.3922 48.835C36.6605 48.8135 36.8617 48.9209 36.9176 49.1574C36.9847 49.4045 37.0853 49.6516 37.1523 49.8988C37.2976 50.3931 37.51 50.8659 37.633 51.371C37.6665 51.5214 37.7671 51.5429 37.9348 51.5322C38.0577 51.5214 38.1583 51.4462 38.2701 51.414C38.6502 51.2743 39.0302 51.1453 39.3879 50.9411C39.5556 50.8444 39.6003 50.7155 39.5108 50.565C39.332 50.2642 39.2202 49.9418 39.0302 49.6409C38.7843 49.2541 38.5607 48.8457 38.3707 48.4159C38.3372 48.3514 38.3036 48.2762 38.3484 48.2117C38.4266 48.1043 38.5048 47.9861 38.6054 47.9108C38.7955 47.7497 38.952 47.7604 39.1532 47.9001C39.2649 47.9753 39.3432 48.0828 39.4102 48.201C39.7679 48.8242 40.1256 49.4367 40.4833 50.06C40.6174 50.2856 40.6733 50.2964 40.8857 50.1674C41.3328 49.8988 41.7799 49.6302 42.2159 49.3615C42.3947 49.2541 42.4282 49.1251 42.2941 48.9747C42.0035 48.6523 41.7352 48.3084 41.4781 47.9538C41.2099 47.5885 40.9192 47.2339 40.6957 46.8363C40.6286 46.7181 40.5951 46.5999 40.651 46.5032C40.7739 46.2775 40.964 46.0948 41.2322 46.0518C41.4446 46.0196 41.5899 46.1701 41.7017 46.3312C41.7129 46.342 41.724 46.3527 41.7352 46.3742C42.16 46.9222 42.54 47.5025 42.9871 48.0398C43.1548 48.1795 43.2778 48.3299 43.4007 48.4911ZM50.0515 27.0857C49.9509 26.7418 49.8056 26.4302 49.7162 26.1078C49.6715 25.9359 49.5709 25.7854 49.515 25.6242C49.4814 25.5383 49.4255 25.506 49.3473 25.5383C49.0231 25.6672 48.6878 25.7532 48.3748 25.9036C48.006 26.0863 47.6371 26.2475 47.257 26.4087C46.9552 26.5376 46.6758 26.4839 46.4522 26.2475C46.3516 26.14 46.2399 26.0111 46.2846 25.8499C46.3517 25.6135 46.4634 25.4093 46.7205 25.3126C47.3688 25.0547 47.9836 24.7216 48.6655 24.5174C48.889 24.453 48.9225 24.324 48.8219 24.1306C48.6878 23.8834 48.5425 23.6363 48.4195 23.3784C48.3637 23.2602 48.2854 23.2172 48.1625 23.2387C48.073 23.2494 47.9948 23.2817 47.9054 23.3247C47.1453 23.7545 46.4187 24.2595 45.6474 24.6786C45.4686 24.7753 45.2898 24.8935 45.1109 24.9902C45.055 25.0225 44.988 25.0762 44.9544 25.1299C44.9209 25.1837 44.9991 25.2159 45.0215 25.2589C45.1109 25.4523 45.2115 25.6457 45.3121 25.8392C45.5692 26.3442 45.8375 26.8493 46.0163 27.3758C46.184 27.8701 46.3852 28.3537 46.5081 28.8587C46.6311 29.3423 46.7876 29.8151 46.8211 30.3094C46.8211 30.3631 46.8323 30.4168 46.8435 30.4706C46.9329 30.8574 46.9664 31.2443 47.0111 31.6311C47.0447 31.8568 47.0223 32.0824 47.0447 32.2973C47.0559 32.48 47.0782 32.48 47.2682 32.4908C47.3241 32.4908 47.38 32.4908 47.4359 32.4908C48.4084 32.4908 49.3697 32.4908 50.3421 32.4908C50.4874 32.4908 50.6439 32.4908 50.7892 32.4908C50.8898 32.4908 50.9345 32.4585 50.9345 32.3511C50.9234 31.9212 50.9345 31.4914 50.8675 31.0616C50.8451 30.9219 50.7892 30.8682 50.6327 30.8682C50.0515 30.8789 49.4926 31.0078 48.9114 30.9971C48.8666 30.9971 48.8219 31.0186 48.7772 31.0401C48.509 31.1153 48.2407 31.1046 47.9724 31.0938C47.8495 31.0938 47.7824 31.0078 47.7265 30.9434C47.5365 30.6855 47.6706 30.1697 47.9724 30.0407C48.0954 29.987 48.2407 29.9225 48.3637 29.9225C48.9002 29.9225 49.4255 29.7613 49.9732 29.7936C50.1297 29.8043 50.2862 29.7828 50.4427 29.7936C50.5657 29.8043 50.5992 29.7506 50.5992 29.6324C50.6104 29.1918 50.4874 28.7727 50.3757 28.3537C50.3533 28.2677 50.2974 28.2462 50.208 28.2677C50.0627 28.2999 49.9285 28.3644 49.7832 28.3859C49.3473 28.4611 48.9561 28.6438 48.5425 28.7835C48.3078 28.8587 48.0842 28.9447 47.8271 28.9447C47.5812 28.9447 47.3353 28.762 47.257 28.5256C47.1788 28.3107 47.3018 28.0958 47.5141 27.9346C47.7042 27.7949 47.9277 27.7197 48.1401 27.6659C48.7996 27.4833 49.4144 27.2791 50.0515 27.0857ZM12.2818 32.4908C12.8183 32.4908 13.366 32.4908 13.9025 32.4908C13.9696 32.4908 14.0367 32.4908 14.0926 32.4908C14.1596 32.4908 14.2043 32.4585 14.1932 32.394C14.1708 32.1469 14.2938 31.9212 14.2826 31.6741C14.2714 31.3087 14.4279 30.9541 14.4167 30.5888C14.4167 30.5673 14.4167 30.5565 14.4279 30.535C14.5509 30.2664 14.5397 29.9763 14.5956 29.6969C14.6738 29.31 14.7521 28.9232 14.875 28.5686C15.0427 28.085 15.1656 27.5907 15.378 27.1179C15.6351 26.5591 15.8698 25.9789 16.1828 25.4416C16.2499 25.3234 16.4064 25.2267 16.3393 25.087C16.2722 24.958 16.1046 24.9258 15.9816 24.8613C15.4115 24.5819 14.8527 24.2703 14.2938 23.9372C13.9361 23.7223 13.6007 23.4536 13.1983 23.2924C13.0195 23.2172 13.0083 23.2172 12.9301 23.3999C12.9189 23.4321 12.8965 23.4644 12.8742 23.4966C12.7624 23.7223 12.6395 23.9479 12.5277 24.1843C12.4606 24.324 12.483 24.3777 12.6395 24.4422C13.1201 24.6464 13.6007 24.872 14.059 25.1192C14.3049 25.2481 14.562 25.3663 14.7856 25.5275C14.8527 25.5813 14.9533 25.6135 14.9644 25.721C14.998 25.9574 14.9644 26.183 14.7744 26.355C14.5844 26.5269 14.3385 26.5376 14.1261 26.4517C13.7908 26.3227 13.4666 26.1508 13.1425 26.0003C12.8295 25.8499 12.5165 25.6995 12.2147 25.549C12.1141 25.506 12.0135 25.4953 11.9129 25.5168C11.8011 25.5383 11.8458 25.6457 11.8123 25.7102C11.6782 25.9574 11.6223 26.226 11.5217 26.4839C11.4546 26.6451 11.3652 26.8063 11.354 26.989C11.3428 27.0964 11.354 27.1931 11.4658 27.2254C11.8123 27.3436 12.1588 27.4403 12.5053 27.5477C12.7512 27.6229 12.9971 27.6874 13.2319 27.7841C13.3213 27.8164 13.3995 27.8486 13.489 27.8701C14.0031 28.0205 14.1708 28.4504 13.8131 28.8802C13.7125 28.9984 13.5896 29.0629 13.3884 28.9877C13.2207 28.9232 13.0307 28.8909 12.863 28.8372C12.55 28.7512 12.2259 28.6653 11.9129 28.5686C11.6558 28.4826 11.3764 28.4289 11.1305 28.3214C11.0746 28.2999 10.974 28.2784 10.9516 28.3859C10.8398 28.762 10.7839 29.1488 10.7169 29.5249C10.6833 29.6969 10.7728 29.7828 10.9628 29.7936C11.1081 29.8043 11.2646 29.8151 11.4099 29.8043C11.98 29.8043 12.5389 29.901 13.0977 29.944C13.6231 29.987 13.8019 30.4598 13.5225 30.9004C13.4219 31.0616 13.2542 31.1046 13.0754 31.1046C12.7289 31.1153 12.3935 31.0293 12.047 30.9971C11.8347 30.9756 11.6223 30.9756 11.4099 30.9326C11.1528 30.8896 10.8957 30.9004 10.6275 30.8789C10.5157 30.8682 10.4486 30.9219 10.4262 31.0186C10.4039 31.1153 10.3815 31.212 10.3815 31.3087C10.3704 31.6311 10.3592 31.9535 10.3592 32.2758C10.3592 32.4908 10.3592 32.4908 10.5939 32.4908C11.164 32.4908 11.7229 32.4908 12.2818 32.4908ZM16.4958 41.3775C16.4399 41.3882 16.3617 41.3775 16.3058 41.4527C16.2499 41.5386 16.1493 41.5709 16.0599 41.6139C15.7692 41.775 15.4674 41.9255 15.1768 42.0759C14.7744 42.2801 14.3832 42.5272 13.9808 42.7207C13.7572 42.8281 13.556 42.9571 13.3213 43.0538C13.1313 43.1398 13.1201 43.215 13.2542 43.3762C13.3437 43.4836 13.4219 43.5911 13.5001 43.6985C13.8019 44.1284 14.0702 44.5904 14.4055 44.9988C14.562 45.1814 14.7185 45.3641 14.8638 45.5468C15.0874 45.8369 15.3221 46.1163 15.5904 46.3742C15.7581 46.5354 15.8251 46.5247 16.004 46.3635C16.0822 46.299 16.1269 46.213 16.194 46.1378C16.6523 45.7187 17.1106 45.2889 17.5689 44.8806C17.8707 44.6119 18.1948 44.3648 18.4966 44.0961C18.6643 43.9457 18.6531 43.9134 18.5078 43.7523C18.2172 43.4299 17.9377 43.0968 17.6471 42.7637C17.3229 42.3768 17.0211 41.9685 16.7641 41.5386C16.697 41.4312 16.6299 41.3667 16.4958 41.3775ZM44.8315 41.4097C44.7532 41.3667 44.7197 41.4419 44.6638 41.4849C44.5967 41.5494 44.552 41.6246 44.4961 41.6998C44.1608 42.1834 43.8255 42.6669 43.4566 43.1183C43.2666 43.3547 43.0654 43.5803 42.8642 43.8167C42.73 43.9887 42.7412 44.0424 42.9089 44.1606C43.4342 44.5474 43.8925 45.0095 44.3955 45.4286C44.7532 45.7402 45.0774 46.0948 45.4239 46.4064C45.6251 46.5784 45.6586 46.5676 45.8375 46.3742C46.2846 45.8799 46.7093 45.3749 47.1117 44.8483C47.4247 44.44 47.7265 44.0424 48.006 43.6126C48.2966 43.1612 48.263 43.258 47.8495 43.0216C46.9888 42.538 46.1169 42.0652 45.2562 41.5709C45.1333 41.4849 45.0103 41.3882 44.8315 41.4097ZM13.6343 22.1534C13.7461 22.1534 13.7796 22.2179 13.8355 22.2501C14.7632 22.7874 15.6351 23.3999 16.5181 24.0016C16.6411 24.0769 16.7305 24.2166 16.887 24.2166C17.0659 24.2166 17.077 24.0231 17.1665 23.9157C17.513 23.4858 17.8483 23.056 18.2172 22.6477C18.3848 22.4543 18.3848 22.4435 18.1948 22.2608C17.6583 21.745 17.1329 21.2292 16.6076 20.7027C16.3728 20.4663 16.1269 20.2514 15.881 20.0257C15.7022 19.8645 15.5233 19.8753 15.3668 20.0472C15.2327 20.2084 15.0874 20.3696 14.9533 20.5308C14.5285 21.0466 14.1373 21.6161 13.6343 22.1534ZM42.9201 22.4543C43.166 22.7551 43.4119 23.0345 43.6466 23.3247C43.859 23.5826 44.0714 23.8405 44.2949 24.0984C44.3508 24.1628 44.3955 24.2166 44.5185 24.1306C44.6303 24.0339 44.7756 23.9587 44.8985 23.8727C45.7369 23.2602 46.6199 22.7122 47.503 22.1856C47.6036 22.1319 47.6147 22.0889 47.5477 22.0029C47.3129 21.6913 47.067 21.3797 46.8323 21.0573C46.5752 20.7135 46.251 20.4341 46.0163 20.0687C45.9716 20.0042 45.9045 19.9613 45.8375 19.9075C45.6698 19.8001 45.6139 19.8001 45.491 19.9505C45.3345 20.1654 45.1333 20.3374 44.9544 20.52C44.2949 21.1755 43.6243 21.7988 42.9201 22.4543ZM32.3012 33.2C32.3012 32.4048 31.5076 31.5989 30.7251 31.6204C29.8085 31.6526 29.082 32.2543 29.0596 33.1785C29.0373 33.9092 29.9203 34.7688 30.7139 34.7688C31.5299 34.7688 32.3459 33.9737 32.3012 33.2Z" fill="#964315"/>
<path d="M30.6601 32.3615C31.1745 32.297 31.4875 32.8128 31.5211 33.1996C31.5546 33.5435 31.1409 33.9948 30.7048 33.9948C30.2352 33.9841 29.855 33.6724 29.8439 33.2534C29.8103 32.8128 30.1905 32.3077 30.6601 32.3615Z" fill="#964315"/>
<path d="M81.2656 42.4885V21.5705H84.7671V39.5697H93.8273V42.4885H81.2656Z" fill="#964315"/>
<path d="M111.247 26.6498V42.4885H108.548L108.081 40.3566H107.892C107.551 40.9003 107.118 41.3534 106.593 41.7159C106.068 42.0688 105.484 42.3311 104.842 42.5028C104.201 42.684 103.525 42.7746 102.815 42.7746C101.599 42.7746 100.558 42.5743 99.6923 42.1737C98.8364 41.7636 98.1799 41.134 97.7227 40.2851C97.2656 39.4362 97.037 38.3392 97.037 36.9943V26.6498H100.48V36.3648C100.48 37.5952 100.733 38.5157 101.239 39.1262C101.754 39.7366 102.552 40.0419 103.632 40.0419C104.672 40.0419 105.499 39.832 106.112 39.4123C106.725 38.9926 107.157 38.3726 107.41 37.5523C107.673 36.732 107.804 35.7257 107.804 34.5334V26.6498H111.247Z" fill="#964315"/>
<path d="M119.738 34.3903L114.34 26.6498H118.25L121.942 32.2155L125.647 26.6498H129.543L124.115 34.3903L129.82 42.4885H125.895L121.942 36.5508L117.973 42.4885H114.078L119.738 34.3903Z" fill="#964315"/>
<path d="M139.128 42.7746C137.601 42.7746 136.278 42.4837 135.16 41.9019C134.041 41.32 133.18 40.4282 132.577 39.2263C131.974 38.0245 131.673 36.4983 131.673 34.6478C131.673 32.721 132.003 31.1472 132.665 29.9263C133.326 28.7053 134.241 27.8039 135.408 27.2221C136.585 26.6402 137.932 26.3493 139.449 26.3493C140.412 26.3493 141.282 26.4447 142.061 26.6355C142.848 26.8167 143.515 27.0409 144.059 27.3079L143.038 29.9978C142.445 29.7593 141.837 29.559 141.214 29.3969C140.592 29.2347 139.994 29.1536 139.42 29.1536C138.476 29.1536 137.689 29.3587 137.056 29.7689C136.434 30.179 135.967 30.7895 135.656 31.6003C135.354 32.411 135.203 33.4174 135.203 34.6192C135.203 35.7829 135.359 36.7654 135.67 37.5666C135.982 38.3583 136.444 38.9592 137.056 39.3694C137.669 39.77 138.423 39.9703 139.318 39.9703C140.203 39.9703 140.996 39.8654 141.696 39.6555C142.396 39.4457 143.058 39.1738 143.68 38.84V41.7588C143.067 42.1022 142.411 42.3549 141.71 42.5171C141.01 42.6888 140.149 42.7746 139.128 42.7746Z" fill="#964315"/>
<path d="M150.902 20.2256V25.8199C150.902 26.4018 150.882 26.9693 150.844 27.5226C150.814 28.0758 150.78 28.505 150.741 28.8103H150.931C151.272 28.257 151.69 27.8039 152.186 27.451C152.682 27.0885 153.236 26.8167 153.849 26.6355C154.472 26.4542 155.133 26.3636 155.833 26.3636C157.068 26.3636 158.119 26.5687 158.985 26.9789C159.85 27.3795 160.512 28.0042 160.969 28.8532C161.436 29.7021 161.669 30.8038 161.669 32.1583V42.4885H158.24V32.7878C158.24 31.5573 157.983 30.6369 157.467 30.0264C156.952 29.4064 156.154 29.0964 155.075 29.0964C154.034 29.0964 153.207 29.311 152.594 29.7403C151.991 30.16 151.558 30.7847 151.296 31.6146C151.033 32.4349 150.902 33.4364 150.902 34.6192V42.4885H147.473V20.2256H150.902Z" fill="#964315"/>
<path d="M180.767 34.5334C180.767 35.8497 180.592 37.0181 180.242 38.0388C179.892 39.0594 179.381 39.9226 178.71 40.6285C178.039 41.3248 177.231 41.8589 176.288 42.2309C175.344 42.5934 174.279 42.7746 173.093 42.7746C171.984 42.7746 170.968 42.5934 170.044 42.2309C169.119 41.8589 168.317 41.3248 167.636 40.6285C166.965 39.9226 166.445 39.0594 166.075 38.0388C165.706 37.0181 165.521 35.8497 165.521 34.5334C165.521 32.7878 165.827 31.3093 166.44 30.098C167.062 28.877 167.947 27.947 169.095 27.3079C170.243 26.6689 171.609 26.3493 173.195 26.3493C174.683 26.3493 175.996 26.6689 177.134 27.3079C178.272 27.947 179.162 28.877 179.804 30.098C180.446 31.3189 180.767 32.7974 180.767 34.5334ZM169.051 34.5334C169.051 35.6875 169.192 36.6748 169.475 37.4951C169.766 38.3154 170.214 38.9449 170.817 39.3837C171.42 39.8129 172.198 40.0275 173.151 40.0275C174.104 40.0275 174.882 39.8129 175.485 39.3837C176.088 38.9449 176.531 38.3154 176.813 37.4951C177.095 36.6748 177.236 35.6875 177.236 34.5334C177.236 33.3792 177.095 32.4015 176.813 31.6003C176.531 30.7895 176.088 30.1743 175.485 29.7546C174.882 29.3253 174.099 29.1107 173.137 29.1107C171.716 29.1107 170.681 29.5781 170.029 30.5129C169.377 31.4477 169.051 32.7878 169.051 34.5334Z" fill="#964315"/>
<path d="M193.124 26.3493C194.943 26.3493 196.358 26.8119 197.37 27.7372C198.391 28.6529 198.902 30.1266 198.902 32.1583V42.4885H195.473V32.7878C195.473 31.5573 195.215 30.6369 194.7 30.0264C194.184 29.4064 193.387 29.0964 192.307 29.0964C190.741 29.0964 189.652 29.5686 189.039 30.5129C188.436 31.4572 188.135 32.826 188.135 34.6192V42.4885H184.706V26.6498H187.376L187.857 28.7959H188.047C188.397 28.2427 188.83 27.7896 189.346 27.4367C189.871 27.0742 190.454 26.8024 191.096 26.6212C191.748 26.4399 192.424 26.3493 193.124 26.3493Z" fill="#964315"/>
<path d="M218 34.5334C218 35.8497 217.825 37.0181 217.474 38.0388C217.124 39.0594 216.614 39.9226 215.942 40.6285C215.271 41.3248 214.464 41.8589 213.521 42.2309C212.577 42.5934 211.512 42.7746 210.325 42.7746C209.217 42.7746 208.2 42.5934 207.276 42.2309C206.352 41.8589 205.55 41.3248 204.869 40.6285C204.198 39.9226 203.677 39.0594 203.308 38.0388C202.938 37.0181 202.753 35.8497 202.753 34.5334C202.753 32.7878 203.06 31.3093 203.673 30.098C204.295 28.877 205.18 27.947 206.328 27.3079C207.476 26.6689 208.842 26.3493 210.428 26.3493C211.916 26.3493 213.229 26.6689 214.367 27.3079C215.505 27.947 216.395 28.877 217.037 30.098C217.679 31.3189 218 32.7974 218 34.5334ZM206.284 34.5334C206.284 35.6875 206.425 36.6748 206.707 37.4951C206.999 38.3154 207.446 38.9449 208.049 39.3837C208.653 39.8129 209.431 40.0275 210.384 40.0275C211.337 40.0275 212.115 39.8129 212.718 39.3837C213.321 38.9449 213.764 38.3154 214.046 37.4951C214.328 36.6748 214.469 35.6875 214.469 34.5334C214.469 33.3792 214.328 32.4015 214.046 31.6003C213.764 30.7895 213.321 30.1743 212.718 29.7546C212.115 29.3253 211.332 29.1107 210.369 29.1107C208.949 29.1107 207.913 29.5781 207.262 30.5129C206.61 31.4477 206.284 32.7878 206.284 34.5334Z" fill="#964315"/>
</svg>
